<svg xmlns="http://www.w3.org/2000/svg" xmlns:xlink="http://www.w3.org/1999/xlink" contentStyleType="text/css" data-diagram-type="CLASS" height="616px" preserveAspectRatio="none" style="width:4614px;height:616px;background:#FFFFFF;" version="1.1" viewBox="0 0 4614 616" width="4614px" zoomAndPan="magnify"><title>Score Crypto API &#8212; Configuration</title><defs/><g><text fill="#000000" font-family="sans-serif" font-size="14" font-weight="bold" lengthAdjust="spacing" textLength="265.002" x="2167.499" y="22.9951">Score Crypto API &#8212; Configuration</text><!--cluster Configuration--><g id="cluster_Configuration"><rect fill="transparent" height="566" rx="2.5" ry="2.5" style="stroke:#000000;stroke-width:1.5;" width="4601" x="7" y="44.2969"/><text fill="#000000" font-family="sans-serif" font-size="14" font-weight="bold" lengthAdjust="spacing" textLength="108.165" x="2253.4175" y="59.292">Configuration</text></g><!--class BaseContextConfig--><g id="elem_BaseContextConfig"><rect codeLine="10" fill="#F1F1F1" height="268.125" id="BaseContextConfig" rx="2.5" ry="2.5" style="stroke:#181818;stroke-width:0.5;" width="408.6826" x="2201.5" y="326.2969"/><ellipse cx="2334.541" cy="346.4297" fill="#ADD1B2" rx="11" ry="11" style="stroke:#181818;stroke-width:1;"/><path d="M2337.5098,352.0703 Q2336.9316,352.3672 2336.291,352.5078 Q2335.6504,352.6641 2334.9473,352.6641 Q2332.4473,352.6641 2331.1191,351.0234 Q2329.8066,349.3672 2329.8066,346.2422 Q2329.8066,343.1172 2331.1191,341.4609 Q2332.4473,339.8047 2334.9473,339.8047 Q2335.6504,339.8047 2336.291,339.9609 Q2336.9473,340.1172 2337.5098,340.4141 L2337.5098,343.1328 Q2336.8848,342.5547 2336.291,342.2891 Q2335.6973,342.0078 2335.0723,342.0078 Q2333.7285,342.0078 2333.041,343.0859 Q2332.3535,344.1484 2332.3535,346.2422 Q2332.3535,348.3359 2333.041,349.4141 Q2333.7285,350.4766 2335.0723,350.4766 Q2335.6973,350.4766 2336.291,350.2109 Q2336.8848,349.9297 2337.5098,349.3516 L2337.5098,352.0703 Z " fill="#000000"/><text fill="#000000" font-family="sans-serif" font-size="12" font-style="italic" lengthAdjust="spacing" textLength="49.6113" x="2397.2856" y="342.4355">&#171;struct&#187;</text><text fill="#000000" font-family="sans-serif" font-size="14" lengthAdjust="spacing" textLength="134.1006" x="2355.041" y="358.2607">BaseContextConfig</text><line style="stroke:#181818;stroke-width:0.5;" x1="2202.5" x2="2609.1826" y1="366.5625" y2="366.5625"/><ellipse cx="2212.5" cy="380.2109" fill="transparent" rx="3" ry="3" style="stroke:#038048;stroke-width:1;"/><text fill="#000000" font-family="sans-serif" font-size="14" lengthAdjust="spacing" textLength="162.7637" x="2221.5" y="383.5576">algorithm : AlgorithmId</text><ellipse cx="2212.5" cy="396.5078" fill="transparent" rx="3" ry="3" style="stroke:#038048;stroke-width:1;"/><text fill="#000000" font-family="sans-serif" font-size="14" lengthAdjust="spacing" textLength="277.3682" x="2221.5" y="399.8545">provider : optional&lt;CryptoResourceId&gt;</text><ellipse cx="2212.5" cy="412.8047" fill="transparent" rx="3" ry="3" style="stroke:#038048;stroke-width:1;"/><text fill="#000000" font-family="sans-serif" font-size="14" lengthAdjust="spacing" textLength="283.2607" x="2221.5" y="416.1514">provider_type : optional&lt;ProviderType&gt;</text><ellipse cx="2212.5" cy="429.1016" fill="transparent" rx="3" ry="3" style="stroke:#038048;stroke-width:1;"/><text fill="#000000" font-family="sans-serif" font-size="14" lengthAdjust="spacing" textLength="280.5059" x="2221.5" y="432.4482">provider_properties : ProviderProperties</text><ellipse cx="2212.5" cy="445.3984" fill="transparent" rx="3" ry="3" style="stroke:#038048;stroke-width:1;"/><text fill="#000000" font-family="sans-serif" font-size="14" lengthAdjust="spacing" textLength="309.0117" x="2221.5" y="448.7451">operation_timeout : optional&lt;milliseconds&gt;</text><ellipse cx="2212.5" cy="461.6953" fill="transparent" rx="3" ry="3" style="stroke:#038048;stroke-width:1;"/><text fill="#000000" font-family="sans-serif" font-size="14" lengthAdjust="spacing" textLength="161.4238" x="2221.5" y="465.042">timeout_enabled : bool</text><line style="stroke:#181818;stroke-width:1;" x1="2202.5" x2="2609.1826" y1="472.3438" y2="472.3438"/><ellipse cx="2212.5" cy="485.9922" fill="#84BE84" rx="3" ry="3" style="stroke:#038048;stroke-width:1;"/><text fill="#000000" font-family="sans-serif" font-size="14" lengthAdjust="spacing" textLength="282.4678" x="2221.5" y="489.3389">SetAlgorithm(alg) : BaseContextConfig&amp;</text><ellipse cx="2212.5" cy="502.2891" fill="#84BE84" rx="3" ry="3" style="stroke:#038048;stroke-width:1;"/><text fill="#000000" font-family="sans-serif" font-size="14" lengthAdjust="spacing" textLength="282.2354" x="2221.5" y="505.6357">SetProvider(prov) : BaseContextConfig&amp;</text><ellipse cx="2212.5" cy="518.5859" fill="#84BE84" rx="3" ry="3" style="stroke:#038048;stroke-width:1;"/><text fill="#000000" font-family="sans-serif" font-size="14" lengthAdjust="spacing" textLength="316.3535" x="2221.5" y="521.9326">SetProviderType(type) : BaseContextConfig&amp;</text><ellipse cx="2212.5" cy="534.8828" fill="#84BE84" rx="3" ry="3" style="stroke:#038048;stroke-width:1;"/><text fill="#000000" font-family="sans-serif" font-size="14" lengthAdjust="spacing" textLength="382.6826" x="2221.5" y="538.2295">SetProviderProperty(key, value) : BaseContextConfig&amp;</text><ellipse cx="2212.5" cy="551.1797" fill="#84BE84" rx="3" ry="3" style="stroke:#038048;stroke-width:1;"/><text fill="#000000" font-family="sans-serif" font-size="14" lengthAdjust="spacing" textLength="374.3975" x="2221.5" y="554.5264">SetOperationTimeout(timeout) : BaseContextConfig&amp;</text><ellipse cx="2212.5" cy="567.4766" fill="#84BE84" rx="3" ry="3" style="stroke:#038048;stroke-width:1;"/><text fill="#000000" font-family="sans-serif" font-size="14" lengthAdjust="spacing" textLength="279.1113" x="2221.5" y="570.8232">DisableTimeout() : BaseContextConfig&amp;</text><ellipse cx="2212.5" cy="583.7734" fill="#84BE84" rx="3" ry="3" style="stroke:#038048;stroke-width:1;"/><text fill="#000000" font-family="sans-serif" font-size="14" lengthAdjust="spacing" textLength="274.8662" x="2221.5" y="587.1201">EnableTimeout() : BaseContextConfig&amp;</text></g><!--class HashContextConfig--><g id="elem_HashContextConfig"><rect codeLine="27" fill="#F1F1F1" height="105.1563" id="HashContextConfig" rx="2.5" ry="2.5" style="stroke:#181818;stroke-width:0.5;" width="343.5361" x="4248" y="111.7969"/><ellipse cx="4347.8765" cy="131.9297" fill="#ADD1B2" rx="11" ry="11" style="stroke:#181818;stroke-width:1;"/><path d="M4350.8452,137.5703 Q4350.2671,137.8672 4349.6265,138.0078 Q4348.9858,138.1641 4348.2827,138.1641 Q4345.7827,138.1641 4344.4546,136.5234 Q4343.1421,134.8672 4343.1421,131.7422 Q4343.1421,128.6172 4344.4546,126.9609 Q4345.7827,125.3047 4348.2827,125.3047 Q4348.9858,125.3047 4349.6265,125.4609 Q4350.2827,125.6172 4350.8452,125.9141 L4350.8452,128.6328 Q4350.2202,128.0547 4349.6265,127.7891 Q4349.0327,127.5078 4348.4077,127.5078 Q4347.064,127.5078 4346.3765,128.5859 Q4345.689,129.6484 4345.689,131.7422 Q4345.689,133.8359 4346.3765,134.9141 Q4347.064,135.9766 4348.4077,135.9766 Q4349.0327,135.9766 4349.6265,135.7109 Q4350.2202,135.4297 4350.8452,134.8516 L4350.8452,137.5703 Z " fill="#000000"/><text fill="#000000" font-family="sans-serif" font-size="12" font-style="italic" lengthAdjust="spacing" textLength="49.6113" x="4411.2124" y="127.9355">&#171;struct&#187;</text><text fill="#000000" font-family="sans-serif" font-size="14" lengthAdjust="spacing" textLength="135.2832" x="4368.3765" y="143.7607">HashContextConfig</text><line style="stroke:#181818;stroke-width:0.5;" x1="4249" x2="4590.5361" y1="152.0625" y2="152.0625"/><line style="stroke:#181818;stroke-width:0.5;" x1="4249" x2="4590.5361" y1="160.0625" y2="160.0625"/><ellipse cx="4259" cy="173.7109" fill="#84BE84" rx="3" ry="3" style="stroke:#038048;stroke-width:1;"/><text fill="#000000" font-family="sans-serif" font-size="14" lengthAdjust="spacing" textLength="283.6504" x="4268" y="177.0576">SetAlgorithm(alg) : HashContextConfig&amp;</text><ellipse cx="4259" cy="190.0078" fill="#84BE84" rx="3" ry="3" style="stroke:#038048;stroke-width:1;"/><text fill="#000000" font-family="sans-serif" font-size="14" lengthAdjust="spacing" textLength="283.418" x="4268" y="193.3545">SetProvider(prov) : HashContextConfig&amp;</text><ellipse cx="4259" cy="206.3047" fill="#84BE84" rx="3" ry="3" style="stroke:#038048;stroke-width:1;"/><text fill="#000000" font-family="sans-serif" font-size="14" lengthAdjust="spacing" textLength="317.5361" x="4268" y="209.6514">SetProviderType(type) : HashContextConfig&amp;</text></g><!--class MacContextConfig--><g id="elem_MacContextConfig"><rect codeLine="33" fill="#F1F1F1" height="137.75" id="MacContextConfig" rx="2.5" ry="2.5" style="stroke:#181818;stroke-width:0.5;" width="336.6182" x="3875.5" y="95.2969"/><ellipse cx="3975.3765" cy="115.4297" fill="#ADD1B2" rx="11" ry="11" style="stroke:#181818;stroke-width:1;"/><path d="M3978.3452,121.0703 Q3977.7671,121.3672 3977.1265,121.5078 Q3976.4858,121.6641 3975.7827,121.6641 Q3973.2827,121.6641 3971.9546,120.0234 Q3970.6421,118.3672 3970.6421,115.2422 Q3970.6421,112.1172 3971.9546,110.4609 Q3973.2827,108.8047 3975.7827,108.8047 Q3976.4858,108.8047 3977.1265,108.9609 Q3977.7827,109.1172 3978.3452,109.4141 L3978.3452,112.1328 Q3977.7202,111.5547 3977.1265,111.2891 Q3976.5327,111.0078 3975.9077,111.0078 Q3974.564,111.0078 3973.8765,112.0859 Q3973.189,113.1484 3973.189,115.2422 Q3973.189,117.3359 3973.8765,118.4141 Q3974.564,119.4766 3975.9077,119.4766 Q3976.5327,119.4766 3977.1265,119.2109 Q3977.7202,118.9297 3978.3452,118.3516 L3978.3452,121.0703 Z " fill="#000000"/><text fill="#000000" font-family="sans-serif" font-size="12" font-style="italic" lengthAdjust="spacing" textLength="49.6113" x="4035.2534" y="111.4355">&#171;struct&#187;</text><text fill="#000000" font-family="sans-serif" font-size="14" lengthAdjust="spacing" textLength="128.3652" x="3995.8765" y="127.2607">MacContextConfig</text><line style="stroke:#181818;stroke-width:0.5;" x1="3876.5" x2="4211.1182" y1="135.5625" y2="135.5625"/><ellipse cx="3886.5" cy="149.2109" fill="transparent" rx="3" ry="3" style="stroke:#038048;stroke-width:1;"/><text fill="#000000" font-family="sans-serif" font-size="14" lengthAdjust="spacing" textLength="163.5361" x="3895.5" y="152.5576">key : CryptoResourceId</text><line style="stroke:#181818;stroke-width:1;" x1="3876.5" x2="4211.1182" y1="159.8594" y2="159.8594"/><ellipse cx="3886.5" cy="173.5078" fill="#84BE84" rx="3" ry="3" style="stroke:#038048;stroke-width:1;"/><text fill="#000000" font-family="sans-serif" font-size="14" lengthAdjust="spacing" textLength="276.7324" x="3895.5" y="176.8545">SetAlgorithm(alg) : MacContextConfig&amp;</text><ellipse cx="3886.5" cy="189.8047" fill="#84BE84" rx="3" ry="3" style="stroke:#038048;stroke-width:1;"/><text fill="#000000" font-family="sans-serif" font-size="14" lengthAdjust="spacing" textLength="225.668" x="3895.5" y="193.1514">SetKey(id) : MacContextConfig&amp;</text><ellipse cx="3886.5" cy="206.1016" fill="#84BE84" rx="3" ry="3" style="stroke:#038048;stroke-width:1;"/><text fill="#000000" font-family="sans-serif" font-size="14" lengthAdjust="spacing" textLength="276.5" x="3895.5" y="209.4482">SetProvider(prov) : MacContextConfig&amp;</text><ellipse cx="3886.5" cy="222.3984" fill="#84BE84" rx="3" ry="3" style="stroke:#038048;stroke-width:1;"/><text fill="#000000" font-family="sans-serif" font-size="14" lengthAdjust="spacing" textLength="310.6182" x="3895.5" y="225.7451">SetProviderType(type) : MacContextConfig&amp;</text></g><!--class KeyManagementContextConfig--><g id="elem_KeyManagementContextConfig"><rect codeLine="42" fill="#F1F1F1" height="105.1563" id="KeyManagementContextConfig" rx="2.5" ry="2.5" style="stroke:#181818;stroke-width:0.5;" width="426.5654" x="3413.5" y="111.7969"/><ellipse cx="3513.3765" cy="131.9297" fill="#ADD1B2" rx="11" ry="11" style="stroke:#181818;stroke-width:1;"/><path d="M3516.3452,137.5703 Q3515.7671,137.8672 3515.1265,138.0078 Q3514.4858,138.1641 3513.7827,138.1641 Q3511.2827,138.1641 3509.9546,136.5234 Q3508.6421,134.8672 3508.6421,131.7422 Q3508.6421,128.6172 3509.9546,126.9609 Q3511.2827,125.3047 3513.7827,125.3047 Q3514.4858,125.3047 3515.1265,125.4609 Q3515.7827,125.6172 3516.3452,125.9141 L3516.3452,128.6328 Q3515.7202,128.0547 3515.1265,127.7891 Q3514.5327,127.5078 3513.9077,127.5078 Q3512.564,127.5078 3511.8765,128.5859 Q3511.189,129.6484 3511.189,131.7422 Q3511.189,133.8359 3511.8765,134.9141 Q3512.564,135.9766 3513.9077,135.9766 Q3514.5327,135.9766 3515.1265,135.7109 Q3515.7202,135.4297 3516.3452,134.8516 L3516.3452,137.5703 Z " fill="#000000"/><text fill="#000000" font-family="sans-serif" font-size="12" font-style="italic" lengthAdjust="spacing" textLength="49.6113" x="3618.2271" y="127.9355">&#171;struct&#187;</text><text fill="#000000" font-family="sans-serif" font-size="14" lengthAdjust="spacing" textLength="218.3125" x="3533.8765" y="143.7607">KeyManagementContextConfig</text><line style="stroke:#181818;stroke-width:0.5;" x1="3414.5" x2="3839.0654" y1="152.0625" y2="152.0625"/><line style="stroke:#181818;stroke-width:0.5;" x1="3414.5" x2="3839.0654" y1="160.0625" y2="160.0625"/><ellipse cx="3424.5" cy="173.7109" fill="#84BE84" rx="3" ry="3" style="stroke:#038048;stroke-width:1;"/><text fill="#000000" font-family="sans-serif" font-size="14" lengthAdjust="spacing" textLength="366.6797" x="3433.5" y="177.0576">SetAlgorithm(alg) : KeyManagementContextConfig&amp;</text><ellipse cx="3424.5" cy="190.0078" fill="#84BE84" rx="3" ry="3" style="stroke:#038048;stroke-width:1;"/><text fill="#000000" font-family="sans-serif" font-size="14" lengthAdjust="spacing" textLength="366.4473" x="3433.5" y="193.3545">SetProvider(prov) : KeyManagementContextConfig&amp;</text><ellipse cx="3424.5" cy="206.3047" fill="#84BE84" rx="3" ry="3" style="stroke:#038048;stroke-width:1;"/><text fill="#000000" font-family="sans-serif" font-size="14" lengthAdjust="spacing" textLength="400.5654" x="3433.5" y="209.6514">SetProviderType(type) : KeyManagementContextConfig&amp;</text></g><!--class CipherContextConfig--><g id="elem_CipherContextConfig"><rect codeLine="48" fill="#F1F1F1" height="170.3438" id="CipherContextConfig" rx="2.5" ry="2.5" style="stroke:#181818;stroke-width:0.5;" width="354.0566" x="3024" y="79.2969"/><ellipse cx="3123.8765" cy="99.4297" fill="#ADD1B2" rx="11" ry="11" style="stroke:#181818;stroke-width:1;"/><path d="M3126.8452,105.0703 Q3126.2671,105.3672 3125.6265,105.5078 Q3124.9858,105.6641 3124.2827,105.6641 Q3121.7827,105.6641 3120.4546,104.0234 Q3119.1421,102.3672 3119.1421,99.2422 Q3119.1421,96.1172 3120.4546,94.4609 Q3121.7827,92.8047 3124.2827,92.8047 Q3124.9858,92.8047 3125.6265,92.9609 Q3126.2827,93.1172 3126.8452,93.4141 L3126.8452,96.1328 Q3126.2202,95.5547 3125.6265,95.2891 Q3125.0327,95.0078 3124.4077,95.0078 Q3123.064,95.0078 3122.3765,96.0859 Q3121.689,97.1484 3121.689,99.2422 Q3121.689,101.3359 3122.3765,102.4141 Q3123.064,103.4766 3124.4077,103.4766 Q3125.0327,103.4766 3125.6265,103.2109 Q3126.2202,102.9297 3126.8452,102.3516 L3126.8452,105.0703 Z " fill="#000000"/><text fill="#000000" font-family="sans-serif" font-size="12" font-style="italic" lengthAdjust="spacing" textLength="49.6113" x="3192.4727" y="95.4355">&#171;struct&#187;</text><text fill="#000000" font-family="sans-serif" font-size="14" lengthAdjust="spacing" textLength="145.8037" x="3144.3765" y="111.2607">CipherContextConfig</text><line style="stroke:#181818;stroke-width:0.5;" x1="3025" x2="3377.0566" y1="119.5625" y2="119.5625"/><ellipse cx="3035" cy="133.2109" fill="transparent" rx="3" ry="3" style="stroke:#038048;stroke-width:1;"/><text fill="#000000" font-family="sans-serif" font-size="14" lengthAdjust="spacing" textLength="163.5361" x="3044" y="136.5576">key : CryptoResourceId</text><ellipse cx="3035" cy="149.5078" fill="transparent" rx="3" ry="3" style="stroke:#038048;stroke-width:1;"/><text fill="#000000" font-family="sans-serif" font-size="14" lengthAdjust="spacing" textLength="184.625" x="3044" y="152.8545">direction : CipherDirection</text><line style="stroke:#181818;stroke-width:1;" x1="3025" x2="3377.0566" y1="160.1563" y2="160.1563"/><ellipse cx="3035" cy="173.8047" fill="#84BE84" rx="3" ry="3" style="stroke:#038048;stroke-width:1;"/><text fill="#000000" font-family="sans-serif" font-size="14" lengthAdjust="spacing" textLength="294.1709" x="3044" y="177.1514">SetAlgorithm(alg) : CipherContextConfig&amp;</text><ellipse cx="3035" cy="190.1016" fill="#84BE84" rx="3" ry="3" style="stroke:#038048;stroke-width:1;"/><text fill="#000000" font-family="sans-serif" font-size="14" lengthAdjust="spacing" textLength="243.1064" x="3044" y="193.4482">SetKey(id) : CipherContextConfig&amp;</text><ellipse cx="3035" cy="206.3984" fill="#84BE84" rx="3" ry="3" style="stroke:#038048;stroke-width:1;"/><text fill="#000000" font-family="sans-serif" font-size="14" lengthAdjust="spacing" textLength="286.3369" x="3044" y="209.7451">SetDirection(dir) : CipherContextConfig&amp;</text><ellipse cx="3035" cy="222.6953" fill="#84BE84" rx="3" ry="3" style="stroke:#038048;stroke-width:1;"/><text fill="#000000" font-family="sans-serif" font-size="14" lengthAdjust="spacing" textLength="293.9385" x="3044" y="226.042">SetProvider(prov) : CipherContextConfig&amp;</text><ellipse cx="3035" cy="238.9922" fill="#84BE84" rx="3" ry="3" style="stroke:#038048;stroke-width:1;"/><text fill="#000000" font-family="sans-serif" font-size="14" lengthAdjust="spacing" textLength="328.0566" x="3044" y="242.3389">SetProviderType(type) : CipherContextConfig&amp;</text></g><!--class SignContextConfig--><g id="elem_SignContextConfig"><rect codeLine="59" fill="#F1F1F1" height="137.75" id="SignContextConfig" rx="2.5" ry="2.5" style="stroke:#181818;stroke-width:0.5;" width="338.7988" x="2649.5" y="95.2969"/><ellipse cx="2749.3765" cy="115.4297" fill="#ADD1B2" rx="11" ry="11" style="stroke:#181818;stroke-width:1;"/><path d="M2752.3452,121.0703 Q2751.7671,121.3672 2751.1265,121.5078 Q2750.4858,121.6641 2749.7827,121.6641 Q2747.2827,121.6641 2745.9546,120.0234 Q2744.6421,118.3672 2744.6421,115.2422 Q2744.6421,112.1172 2745.9546,110.4609 Q2747.2827,108.8047 2749.7827,108.8047 Q2750.4858,108.8047 2751.1265,108.9609 Q2751.7827,109.1172 2752.3452,109.4141 L2752.3452,112.1328 Q2751.7202,111.5547 2751.1265,111.2891 Q2750.5327,111.0078 2749.9077,111.0078 Q2748.564,111.0078 2747.8765,112.0859 Q2747.189,113.1484 2747.189,115.2422 Q2747.189,117.3359 2747.8765,118.4141 Q2748.564,119.4766 2749.9077,119.4766 Q2750.5327,119.4766 2751.1265,119.2109 Q2751.7202,118.9297 2752.3452,118.3516 L2752.3452,121.0703 Z " fill="#000000"/><text fill="#000000" font-family="sans-serif" font-size="12" font-style="italic" lengthAdjust="spacing" textLength="49.6113" x="2810.3438" y="111.4355">&#171;struct&#187;</text><text fill="#000000" font-family="sans-serif" font-size="14" lengthAdjust="spacing" textLength="130.5459" x="2769.8765" y="127.2607">SignContextConfig</text><line style="stroke:#181818;stroke-width:0.5;" x1="2650.5" x2="2987.2988" y1="135.5625" y2="135.5625"/><ellipse cx="2660.5" cy="149.2109" fill="transparent" rx="3" ry="3" style="stroke:#038048;stroke-width:1;"/><text fill="#000000" font-family="sans-serif" font-size="14" lengthAdjust="spacing" textLength="163.5361" x="2669.5" y="152.5576">key : CryptoResourceId</text><line style="stroke:#181818;stroke-width:1;" x1="2650.5" x2="2987.2988" y1="159.8594" y2="159.8594"/><ellipse cx="2660.5" cy="173.5078" fill="#84BE84" rx="3" ry="3" style="stroke:#038048;stroke-width:1;"/><text fill="#000000" font-family="sans-serif" font-size="14" lengthAdjust="spacing" textLength="278.9131" x="2669.5" y="176.8545">SetAlgorithm(alg) : SignContextConfig&amp;</text><ellipse cx="2660.5" cy="189.8047" fill="#84BE84" rx="3" ry="3" style="stroke:#038048;stroke-width:1;"/><text fill="#000000" font-family="sans-serif" font-size="14" lengthAdjust="spacing" textLength="227.8486" x="2669.5" y="193.1514">SetKey(id) : SignContextConfig&amp;</text><ellipse cx="2660.5" cy="206.1016" fill="#84BE84" rx="3" ry="3" style="stroke:#038048;stroke-width:1;"/><text fill="#000000" font-family="sans-serif" font-size="14" lengthAdjust="spacing" textLength="278.6807" x="2669.5" y="209.4482">SetProvider(prov) : SignContextConfig&amp;</text><ellipse cx="2660.5" cy="222.3984" fill="#84BE84" rx="3" ry="3" style="stroke:#038048;stroke-width:1;"/><text fill="#000000" font-family="sans-serif" font-size="14" lengthAdjust="spacing" textLength="312.7988" x="2669.5" y="225.7451">SetProviderType(type) : SignContextConfig&amp;</text></g><!--class VerifySignatureContextConfig--><g id="elem_VerifySignatureContextConfig"><rect codeLine="68" fill="#F1F1F1" height="137.75" id="VerifySignatureContextConfig" rx="2.5" ry="2.5" style="stroke:#181818;stroke-width:0.5;" width="417.1592" x="2197.5" y="95.2969"/><ellipse cx="2297.3765" cy="115.4297" fill="#ADD1B2" rx="11" ry="11" style="stroke:#181818;stroke-width:1;"/><path d="M2300.3452,121.0703 Q2299.7671,121.3672 2299.1265,121.5078 Q2298.4858,121.6641 2297.7827,121.6641 Q2295.2827,121.6641 2293.9546,120.0234 Q2292.6421,118.3672 2292.6421,115.2422 Q2292.6421,112.1172 2293.9546,110.4609 Q2295.2827,108.8047 2297.7827,108.8047 Q2298.4858,108.8047 2299.1265,108.9609 Q2299.7827,109.1172 2300.3452,109.4141 L2300.3452,112.1328 Q2299.7202,111.5547 2299.1265,111.2891 Q2298.5327,111.0078 2297.9077,111.0078 Q2296.564,111.0078 2295.8765,112.0859 Q2295.189,113.1484 2295.189,115.2422 Q2295.189,117.3359 2295.8765,118.4141 Q2296.564,119.4766 2297.9077,119.4766 Q2298.5327,119.4766 2299.1265,119.2109 Q2299.7202,118.9297 2300.3452,118.3516 L2300.3452,121.0703 Z " fill="#000000"/><text fill="#000000" font-family="sans-serif" font-size="12" font-style="italic" lengthAdjust="spacing" textLength="49.6113" x="2397.5239" y="111.4355">&#171;struct&#187;</text><text fill="#000000" font-family="sans-serif" font-size="14" lengthAdjust="spacing" textLength="208.9063" x="2317.8765" y="127.2607">VerifySignatureContextConfig</text><line style="stroke:#181818;stroke-width:0.5;" x1="2198.5" x2="2613.6592" y1="135.5625" y2="135.5625"/><ellipse cx="2208.5" cy="149.2109" fill="transparent" rx="3" ry="3" style="stroke:#038048;stroke-width:1;"/><text fill="#000000" font-family="sans-serif" font-size="14" lengthAdjust="spacing" textLength="163.5361" x="2217.5" y="152.5576">key : CryptoResourceId</text><line style="stroke:#181818;stroke-width:1;" x1="2198.5" x2="2613.6592" y1="159.8594" y2="159.8594"/><ellipse cx="2208.5" cy="173.5078" fill="#84BE84" rx="3" ry="3" style="stroke:#038048;stroke-width:1;"/><text fill="#000000" font-family="sans-serif" font-size="14" lengthAdjust="spacing" textLength="357.2734" x="2217.5" y="176.8545">SetAlgorithm(alg) : VerifySignatureContextConfig&amp;</text><ellipse cx="2208.5" cy="189.8047" fill="#84BE84" rx="3" ry="3" style="stroke:#038048;stroke-width:1;"/><text fill="#000000" font-family="sans-serif" font-size="14" lengthAdjust="spacing" textLength="306.209" x="2217.5" y="193.1514">SetKey(id) : VerifySignatureContextConfig&amp;</text><ellipse cx="2208.5" cy="206.1016" fill="#84BE84" rx="3" ry="3" style="stroke:#038048;stroke-width:1;"/><text fill="#000000" font-family="sans-serif" font-size="14" lengthAdjust="spacing" textLength="357.041" x="2217.5" y="209.4482">SetProvider(prov) : VerifySignatureContextConfig&amp;</text><ellipse cx="2208.5" cy="222.3984" fill="#84BE84" rx="3" ry="3" style="stroke:#038048;stroke-width:1;"/><text fill="#000000" font-family="sans-serif" font-size="14" lengthAdjust="spacing" textLength="391.1592" x="2217.5" y="225.7451">SetProviderType(type) : VerifySignatureContextConfig&amp;</text></g><!--class AeadContextConfig--><g id="elem_AeadContextConfig"><rect codeLine="77" fill="#F1F1F1" height="170.3438" id="AeadContextConfig" rx="2.5" ry="2.5" style="stroke:#181818;stroke-width:0.5;" width="343.9189" x="1818" y="79.2969"/><ellipse cx="1917.8765" cy="99.4297" fill="#ADD1B2" rx="11" ry="11" style="stroke:#181818;stroke-width:1;"/><path d="M1920.8452,105.0703 Q1920.2671,105.3672 1919.6265,105.5078 Q1918.9858,105.6641 1918.2827,105.6641 Q1915.7827,105.6641 1914.4546,104.0234 Q1913.1421,102.3672 1913.1421,99.2422 Q1913.1421,96.1172 1914.4546,94.4609 Q1915.7827,92.8047 1918.2827,92.8047 Q1918.9858,92.8047 1919.6265,92.9609 Q1920.2827,93.1172 1920.8452,93.4141 L1920.8452,96.1328 Q1920.2202,95.5547 1919.6265,95.2891 Q1919.0327,95.0078 1918.4077,95.0078 Q1917.064,95.0078 1916.3765,96.0859 Q1915.689,97.1484 1915.689,99.2422 Q1915.689,101.3359 1916.3765,102.4141 Q1917.064,103.4766 1918.4077,103.4766 Q1919.0327,103.4766 1919.6265,103.2109 Q1920.2202,102.9297 1920.8452,102.3516 L1920.8452,105.0703 Z " fill="#000000"/><text fill="#000000" font-family="sans-serif" font-size="12" font-style="italic" lengthAdjust="spacing" textLength="49.6113" x="1981.4038" y="95.4355">&#171;struct&#187;</text><text fill="#000000" font-family="sans-serif" font-size="14" lengthAdjust="spacing" textLength="135.666" x="1938.3765" y="111.2607">AeadContextConfig</text><line style="stroke:#181818;stroke-width:0.5;" x1="1819" x2="2160.9189" y1="119.5625" y2="119.5625"/><ellipse cx="1829" cy="133.2109" fill="transparent" rx="3" ry="3" style="stroke:#038048;stroke-width:1;"/><text fill="#000000" font-family="sans-serif" font-size="14" lengthAdjust="spacing" textLength="163.5361" x="1838" y="136.5576">key : CryptoResourceId</text><ellipse cx="1829" cy="149.5078" fill="transparent" rx="3" ry="3" style="stroke:#038048;stroke-width:1;"/><text fill="#000000" font-family="sans-serif" font-size="14" lengthAdjust="spacing" textLength="184.625" x="1838" y="152.8545">direction : CipherDirection</text><line style="stroke:#181818;stroke-width:1;" x1="1819" x2="2160.9189" y1="160.1563" y2="160.1563"/><ellipse cx="1829" cy="173.8047" fill="#84BE84" rx="3" ry="3" style="stroke:#038048;stroke-width:1;"/><text fill="#000000" font-family="sans-serif" font-size="14" lengthAdjust="spacing" textLength="284.0332" x="1838" y="177.1514">SetAlgorithm(alg) : AeadContextConfig&amp;</text><ellipse cx="1829" cy="190.1016" fill="#84BE84" rx="3" ry="3" style="stroke:#038048;stroke-width:1;"/><text fill="#000000" font-family="sans-serif" font-size="14" lengthAdjust="spacing" textLength="232.9688" x="1838" y="193.4482">SetKey(id) : AeadContextConfig&amp;</text><ellipse cx="1829" cy="206.3984" fill="#84BE84" rx="3" ry="3" style="stroke:#038048;stroke-width:1;"/><text fill="#000000" font-family="sans-serif" font-size="14" lengthAdjust="spacing" textLength="276.1992" x="1838" y="209.7451">SetDirection(dir) : AeadContextConfig&amp;</text><ellipse cx="1829" cy="222.6953" fill="#84BE84" rx="3" ry="3" style="stroke:#038048;stroke-width:1;"/><text fill="#000000" font-family="sans-serif" font-size="14" lengthAdjust="spacing" textLength="283.8008" x="1838" y="226.042">SetProvider(prov) : AeadContextConfig&amp;</text><ellipse cx="1829" cy="238.9922" fill="#84BE84" rx="3" ry="3" style="stroke:#038048;stroke-width:1;"/><text fill="#000000" font-family="sans-serif" font-size="14" lengthAdjust="spacing" textLength="317.9189" x="1838" y="242.3389">SetProviderType(type) : AeadContextConfig&amp;</text></g><!--class RandomContextConfig--><g id="elem_RandomContextConfig"><rect codeLine="88" fill="#F1F1F1" height="105.1563" id="RandomContextConfig" rx="2.5" ry="2.5" style="stroke:#181818;stroke-width:0.5;" width="366.5322" x="1415.5" y="111.7969"/><ellipse cx="1515.3765" cy="131.9297" fill="#ADD1B2" rx="11" ry="11" style="stroke:#181818;stroke-width:1;"/><path d="M1518.3452,137.5703 Q1517.7671,137.8672 1517.1265,138.0078 Q1516.4858,138.1641 1515.7827,138.1641 Q1513.2827,138.1641 1511.9546,136.5234 Q1510.6421,134.8672 1510.6421,131.7422 Q1510.6421,128.6172 1511.9546,126.9609 Q1513.2827,125.3047 1515.7827,125.3047 Q1516.4858,125.3047 1517.1265,125.4609 Q1517.7827,125.6172 1518.3452,125.9141 L1518.3452,128.6328 Q1517.7202,128.0547 1517.1265,127.7891 Q1516.5327,127.5078 1515.9077,127.5078 Q1514.564,127.5078 1513.8765,128.5859 Q1513.189,129.6484 1513.189,131.7422 Q1513.189,133.8359 1513.8765,134.9141 Q1514.564,135.9766 1515.9077,135.9766 Q1516.5327,135.9766 1517.1265,135.7109 Q1517.7202,135.4297 1518.3452,134.8516 L1518.3452,137.5703 Z " fill="#000000"/><text fill="#000000" font-family="sans-serif" font-size="12" font-style="italic" lengthAdjust="spacing" textLength="49.6113" x="1590.2104" y="127.9355">&#171;struct&#187;</text><text fill="#000000" font-family="sans-serif" font-size="14" lengthAdjust="spacing" textLength="158.2793" x="1535.8765" y="143.7607">RandomContextConfig</text><line style="stroke:#181818;stroke-width:0.5;" x1="1416.5" x2="1781.0322" y1="152.0625" y2="152.0625"/><line style="stroke:#181818;stroke-width:0.5;" x1="1416.5" x2="1781.0322" y1="160.0625" y2="160.0625"/><ellipse cx="1426.5" cy="173.7109" fill="#84BE84" rx="3" ry="3" style="stroke:#038048;stroke-width:1;"/><text fill="#000000" font-family="sans-serif" font-size="14" lengthAdjust="spacing" textLength="306.6465" x="1435.5" y="177.0576">SetAlgorithm(alg) : RandomContextConfig&amp;</text><ellipse cx="1426.5" cy="190.0078" fill="#84BE84" rx="3" ry="3" style="stroke:#038048;stroke-width:1;"/><text fill="#000000" font-family="sans-serif" font-size="14" lengthAdjust="spacing" textLength="306.4141" x="1435.5" y="193.3545">SetProvider(prov) : RandomContextConfig&amp;</text><ellipse cx="1426.5" cy="206.3047" fill="#84BE84" rx="3" ry="3" style="stroke:#038048;stroke-width:1;"/><text fill="#000000" font-family="sans-serif" font-size="14" lengthAdjust="spacing" textLength="340.5322" x="1435.5" y="209.6514">SetProviderType(type) : RandomContextConfig&amp;</text></g><!--class CertificateContextConfig--><g id="elem_CertificateContextConfig"><rect codeLine="94" fill="#F1F1F1" height="105.1563" id="CertificateContextConfig" rx="2.5" ry="2.5" style="stroke:#181818;stroke-width:0.5;" width="380.9834" x="999.5" y="111.7969"/><ellipse cx="1099.3765" cy="131.9297" fill="#ADD1B2" rx="11" ry="11" style="stroke:#181818;stroke-width:1;"/><path d="M1102.3452,137.5703 Q1101.7671,137.8672 1101.1265,138.0078 Q1100.4858,138.1641 1099.7827,138.1641 Q1097.2827,138.1641 1095.9546,136.5234 Q1094.6421,134.8672 1094.6421,131.7422 Q1094.6421,128.6172 1095.9546,126.9609 Q1097.2827,125.3047 1099.7827,125.3047 Q1100.4858,125.3047 1101.1265,125.4609 Q1101.7827,125.6172 1102.3452,125.9141 L1102.3452,128.6328 Q1101.7202,128.0547 1101.1265,127.7891 Q1100.5327,127.5078 1099.9077,127.5078 Q1098.564,127.5078 1097.8765,128.5859 Q1097.189,129.6484 1097.189,131.7422 Q1097.189,133.8359 1097.8765,134.9141 Q1098.564,135.9766 1099.9077,135.9766 Q1100.5327,135.9766 1101.1265,135.7109 Q1101.7202,135.4297 1102.3452,134.8516 L1102.3452,137.5703 Z " fill="#000000"/><text fill="#000000" font-family="sans-serif" font-size="12" font-style="italic" lengthAdjust="spacing" textLength="49.6113" x="1181.436" y="127.9355">&#171;struct&#187;</text><text fill="#000000" font-family="sans-serif" font-size="14" lengthAdjust="spacing" textLength="172.7305" x="1119.8765" y="143.7607">CertificateContextConfig</text><line style="stroke:#181818;stroke-width:0.5;" x1="1000.5" x2="1379.4834" y1="152.0625" y2="152.0625"/><line style="stroke:#181818;stroke-width:0.5;" x1="1000.5" x2="1379.4834" y1="160.0625" y2="160.0625"/><ellipse cx="1010.5" cy="173.7109" fill="#84BE84" rx="3" ry="3" style="stroke:#038048;stroke-width:1;"/><text fill="#000000" font-family="sans-serif" font-size="14" lengthAdjust="spacing" textLength="321.0977" x="1019.5" y="177.0576">SetAlgorithm(alg) : CertificateContextConfig&amp;</text><ellipse cx="1010.5" cy="190.0078" fill="#84BE84" rx="3" ry="3" style="stroke:#038048;stroke-width:1;"/><text fill="#000000" font-family="sans-serif" font-size="14" lengthAdjust="spacing" textLength="320.8652" x="1019.5" y="193.3545">SetProvider(prov) : CertificateContextConfig&amp;</text><ellipse cx="1010.5" cy="206.3047" fill="#84BE84" rx="3" ry="3" style="stroke:#038048;stroke-width:1;"/><text fill="#000000" font-family="sans-serif" font-size="14" lengthAdjust="spacing" textLength="354.9834" x="1019.5" y="209.6514">SetProviderType(type) : CertificateContextConfig&amp;</text></g><!--class CertificateVerificationContextConfig--><g id="elem_CertificateVerificationContextConfig"><rect codeLine="100" fill="#F1F1F1" height="121.4531" id="CertificateVerificationContextConfig" rx="2.5" ry="2.5" style="stroke:#181818;stroke-width:0.5;" width="497.1943" x="467.5" y="103.7969"/><ellipse cx="585.6079" cy="123.9297" fill="#ADD1B2" rx="11" ry="11" style="stroke:#181818;stroke-width:1;"/><path d="M588.5767,129.5703 Q587.9985,129.8672 587.3579,130.0078 Q586.7173,130.1641 586.0142,130.1641 Q583.5142,130.1641 582.186,128.5234 Q580.8735,126.8672 580.8735,123.7422 Q580.8735,120.6172 582.186,118.9609 Q583.5142,117.3047 586.0142,117.3047 Q586.7173,117.3047 587.3579,117.4609 Q588.0142,117.6172 588.5767,117.9141 L588.5767,120.6328 Q587.9517,120.0547 587.3579,119.7891 Q586.7642,119.5078 586.1392,119.5078 Q584.7954,119.5078 584.1079,120.5859 Q583.4204,121.6484 583.4204,123.7422 Q583.4204,125.8359 584.1079,126.9141 Q584.7954,127.9766 586.1392,127.9766 Q586.7642,127.9766 587.3579,127.7109 Q587.9517,127.4297 588.5767,126.8516 L588.5767,129.5703 Z " fill="#000000"/><text fill="#000000" font-family="sans-serif" font-size="12" font-style="italic" lengthAdjust="spacing" textLength="49.6113" x="707.5415" y="119.9355">&#171;struct&#187;</text><text fill="#000000" font-family="sans-serif" font-size="14" lengthAdjust="spacing" textLength="252.4785" x="606.1079" y="135.7607">CertificateVerificationContextConfig</text><line style="stroke:#181818;stroke-width:0.5;" x1="468.5" x2="963.6943" y1="144.0625" y2="144.0625"/><ellipse cx="478.5" cy="157.7109" fill="transparent" rx="3" ry="3" style="stroke:#038048;stroke-width:1;"/><text fill="#000000" font-family="sans-serif" font-size="14" lengthAdjust="spacing" textLength="378.4648" x="487.5" y="161.0576">revocation_policy : optional&lt;RevocationCheckPolicy&gt;</text><line style="stroke:#181818;stroke-width:1;" x1="468.5" x2="963.6943" y1="168.3594" y2="168.3594"/><ellipse cx="478.5" cy="182.0078" fill="#84BE84" rx="3" ry="3" style="stroke:#038048;stroke-width:1;"/><text fill="#000000" font-family="sans-serif" font-size="14" lengthAdjust="spacing" textLength="471.1943" x="487.5" y="185.3545">SetRevocationPolicy(policy) : CertificateVerificationContextConfig&amp;</text><ellipse cx="478.5" cy="198.3047" fill="#84BE84" rx="3" ry="3" style="stroke:#038048;stroke-width:1;"/><text fill="#000000" font-family="sans-serif" font-size="14" lengthAdjust="spacing" textLength="400.6133" x="487.5" y="201.6514">SetProvider(prov) : CertificateVerificationContextConfig&amp;</text><ellipse cx="478.5" cy="214.6016" fill="#84BE84" rx="3" ry="3" style="stroke:#038048;stroke-width:1;"/><text fill="#000000" font-family="sans-serif" font-size="14" lengthAdjust="spacing" textLength="434.7314" x="487.5" y="217.9482">SetProviderType(type) : CertificateVerificationContextConfig&amp;</text></g><!--class CsrGenerationContextConfig--><g id="elem_CsrGenerationContextConfig"><rect codeLine="108" fill="#F1F1F1" height="105.1563" id="CsrGenerationContextConfig" rx="2.5" ry="2.5" style="stroke:#181818;stroke-width:0.5;" width="409.1885" x="23.5" y="111.7969"/><ellipse cx="123.3765" cy="131.9297" fill="#ADD1B2" rx="11" ry="11" style="stroke:#181818;stroke-width:1;"/><path d="M126.3452,137.5703 Q125.7671,137.8672 125.1265,138.0078 Q124.4858,138.1641 123.7827,138.1641 Q121.2827,138.1641 119.9546,136.5234 Q118.6421,134.8672 118.6421,131.7422 Q118.6421,128.6172 119.9546,126.9609 Q121.2827,125.3047 123.7827,125.3047 Q124.4858,125.3047 125.1265,125.4609 Q125.7827,125.6172 126.3452,125.9141 L126.3452,128.6328 Q125.7202,128.0547 125.1265,127.7891 Q124.5327,127.5078 123.9077,127.5078 Q122.564,127.5078 121.8765,128.5859 Q121.189,129.6484 121.189,131.7422 Q121.189,133.8359 121.8765,134.9141 Q122.564,135.9766 123.9077,135.9766 Q124.5327,135.9766 125.1265,135.7109 Q125.7202,135.4297 126.3452,134.8516 L126.3452,137.5703 Z " fill="#000000"/><text fill="#000000" font-family="sans-serif" font-size="12" font-style="italic" lengthAdjust="spacing" textLength="49.6113" x="219.5386" y="127.9355">&#171;struct&#187;</text><text fill="#000000" font-family="sans-serif" font-size="14" lengthAdjust="spacing" textLength="200.9355" x="143.8765" y="143.7607">CsrGenerationContextConfig</text><line style="stroke:#181818;stroke-width:0.5;" x1="24.5" x2="431.6885" y1="152.0625" y2="152.0625"/><line style="stroke:#181818;stroke-width:0.5;" x1="24.5" x2="431.6885" y1="160.0625" y2="160.0625"/><ellipse cx="34.5" cy="173.7109" fill="#84BE84" rx="3" ry="3" style="stroke:#038048;stroke-width:1;"/><text fill="#000000" font-family="sans-serif" font-size="14" lengthAdjust="spacing" textLength="349.3027" x="43.5" y="177.0576">SetAlgorithm(alg) : CsrGenerationContextConfig&amp;</text><ellipse cx="34.5" cy="190.0078" fill="#84BE84" rx="3" ry="3" style="stroke:#038048;stroke-width:1;"/><text fill="#000000" font-family="sans-serif" font-size="14" lengthAdjust="spacing" textLength="349.0703" x="43.5" y="193.3545">SetProvider(prov) : CsrGenerationContextConfig&amp;</text><ellipse cx="34.5" cy="206.3047" fill="#84BE84" rx="3" ry="3" style="stroke:#038048;stroke-width:1;"/><text fill="#000000" font-family="sans-serif" font-size="14" lengthAdjust="spacing" textLength="383.1885" x="43.5" y="209.6514">SetProviderType(type) : CsrGenerationContextConfig&amp;</text></g><!--link HashContextConfig to BaseContextConfig--><g id="link_HashContextConfig_BaseContextConfig"><path codeLine="114" d="M4318.53,216.8969 C4290.47,229.2969 4259.58,241.2569 4230,249.2969 C3657.11,405.0469 2970.3417,444.78 2628.8317,455.16 " fill="transparent" id="HashContextConfig-to-BaseContextConfig" style="stroke:#181818;stroke-width:1;"/><polygon fill="transparent" points="2610.84,455.7069,2629.014,461.1573,2628.6494,449.1628,2610.84,455.7069" style="stroke:#181818;stroke-width:1;"/><text fill="#000000" font-family="sans-serif" font-size="13" lengthAdjust="spacing" textLength="48.915" x="4086" y="292.3638">inherits</text></g><!--link MacContextConfig to BaseContextConfig--><g id="link_MacContextConfig_BaseContextConfig"><path codeLine="115" d="M3904.42,233.3169 C3888.98,239.3369 3873.31,244.8269 3858,249.2969 C3424.61,375.7569 2913.2356,426.5134 2628.5856,446.5434 " fill="transparent" id="MacContextConfig-to-BaseContextConfig" style="stroke:#181818;stroke-width:1;"/><polygon fill="transparent" points="2610.63,447.8069,2629.0068,452.5286,2628.1644,440.5582,2610.63,447.8069" style="stroke:#181818;stroke-width:1;"/><text fill="#000000" font-family="sans-serif" font-size="13" lengthAdjust="spacing" textLength="48.915" x="3744" y="292.3638">inherits</text></g><!--link KeyManagementContextConfig to BaseContextConfig--><g id="link_KeyManagementContextConfig_BaseContextConfig"><path codeLine="116" d="M3495.2,216.8169 C3463.03,228.3869 3428.51,239.9869 3396,249.2969 C3128.28,325.9669 2830.2856,385.0096 2628.6356,421.2896 " fill="transparent" id="KeyManagementContextConfig-to-BaseContextConfig" style="stroke:#181818;stroke-width:1;"/><polygon fill="transparent" points="2610.92,424.4769,2629.698,427.1948,2627.5731,415.3844,2610.92,424.4769" style="stroke:#181818;stroke-width:1;"/><text fill="#000000" font-family="sans-serif" font-size="13" lengthAdjust="spacing" textLength="48.915" x="3264" y="292.3638">inherits</text></g><!--link CipherContextConfig to BaseContextConfig--><g id="link_CipherContextConfig_BaseContextConfig"><path codeLine="117" d="M3024,242.1769 C3017.94,244.6069 3011.92,246.9869 3006,249.2969 C2875.67,300.1069 2744.3562,346.2954 2627.7762,385.8354 " fill="transparent" id="CipherContextConfig-to-BaseContextConfig" style="stroke:#181818;stroke-width:1;"/><polygon fill="transparent" points="2610.73,391.6169,2629.7034,391.5174,2625.8491,380.1533,2610.73,391.6169" style="stroke:#181818;stroke-width:1;"/><text fill="#000000" font-family="sans-serif" font-size="13" lengthAdjust="spacing" textLength="48.915" x="2926" y="292.3638">inherits</text></g><!--link SignContextConfig to BaseContextConfig--><g id="link_SignContextConfig_BaseContextConfig"><path codeLine="118" d="M2723.47,233.2969 C2684.52,261.0269 2652.7338,283.6579 2607.5438,315.8279 " fill="transparent" id="SignContextConfig-to-BaseContextConfig" style="stroke:#181818;stroke-width:1;"/><polygon fill="transparent" points="2592.88,326.2669,2611.0235,320.7159,2604.0642,310.94,2592.88,326.2669" style="stroke:#181818;stroke-width:1;"/><text fill="#000000" font-family="sans-serif" font-size="13" lengthAdjust="spacing" textLength="48.915" x="2650" y="292.3638">inherits</text></g><!--link VerifySignatureContextConfig to BaseContextConfig--><g id="link_VerifySignatureContextConfig_BaseContextConfig"><path codeLine="119" d="M2406,233.4869 C2406,261.1369 2406,276.0669 2406,308.1169 " fill="transparent" id="VerifySignatureContextConfig-to-BaseContextConfig" style="stroke:#181818;stroke-width:1;"/><polygon fill="transparent" points="2406,326.1169,2412,308.1169,2400,308.1169,2406,326.1169" style="stroke:#181818;stroke-width:1;"/><text fill="#000000" font-family="sans-serif" font-size="13" lengthAdjust="spacing" textLength="48.915" x="2407" y="292.3638">inherits</text></g><!--link AeadContextConfig to BaseContextConfig--><g id="link_AeadContextConfig_BaseContextConfig"><path codeLine="120" d="M2108.93,249.3469 C2142.79,273.2769 2165.8313,289.557 2202.7413,315.647 " fill="transparent" id="AeadContextConfig-to-BaseContextConfig" style="stroke:#181818;stroke-width:1;"/><polygon fill="transparent" points="2217.44,326.0369,2206.2046,310.7475,2199.278,320.5466,2217.44,326.0369" style="stroke:#181818;stroke-width:1;"/><text fill="#000000" font-family="sans-serif" font-size="13" lengthAdjust="spacing" textLength="48.915" x="2174" y="292.3638">inherits</text></g><!--link RandomContextConfig to BaseContextConfig--><g id="link_RandomContextConfig_BaseContextConfig"><path codeLine="121" d="M1719.76,216.8969 C1746.4,227.8969 1774.56,239.2169 1801,249.2969 C1933.21,299.6769 2066.4063,346.0974 2184.1063,385.8474 " fill="transparent" id="RandomContextConfig-to-BaseContextConfig" style="stroke:#181818;stroke-width:1;"/><polygon fill="transparent" points="2201.16,391.6069,2186.0261,380.1629,2182.1865,391.532,2201.16,391.6069" style="stroke:#181818;stroke-width:1;"/><text fill="#000000" font-family="sans-serif" font-size="13" lengthAdjust="spacing" textLength="48.915" x="1916" y="292.3638">inherits</text></g><!--link CertificateContextConfig to BaseContextConfig--><g id="link_CertificateContextConfig_BaseContextConfig"><path codeLine="122" d="M1307.21,216.8769 C1336.5,228.5869 1368.09,240.2269 1398,249.2969 C1671.05,332.1469 1977.7357,390.3631 2183.3257,424.6831 " fill="transparent" id="CertificateContextConfig-to-BaseContextConfig" style="stroke:#181818;stroke-width:1;"/><polygon fill="transparent" points="2201.08,427.6469,2184.3136,418.765,2182.3377,430.6012,2201.08,427.6469" style="stroke:#181818;stroke-width:1;"/><text fill="#000000" font-family="sans-serif" font-size="13" lengthAdjust="spacing" textLength="48.915" x="1561" y="292.3638">inherits</text></g><!--link CertificateVerificationContextConfig to BaseContextConfig--><g id="link_CertificateVerificationContextConfig_BaseContextConfig"><path codeLine="123" d="M890.9,224.8769 C921.06,233.8969 952.27,242.4569 982,249.2969 C1410.62,347.9169 1905.0489,408.3025 2183.3989,437.6025 " fill="transparent" id="CertificateVerificationContextConfig-to-BaseContextConfig" style="stroke:#181818;stroke-width:1;"/><polygon fill="transparent" points="2201.3,439.4869,2184.027,431.6355,2182.7708,443.5696,2201.3,439.4869" style="stroke:#181818;stroke-width:1;"/><text fill="#000000" font-family="sans-serif" font-size="13" lengthAdjust="spacing" textLength="48.915" x="1174" y="292.3638">inherits</text></g><!--link CsrGenerationContextConfig to BaseContextConfig--><g id="link_CsrGenerationContextConfig_BaseContextConfig"><path codeLine="124" d="M347.51,216.8869 C380.22,229.2369 416.03,241.1869 450,249.2969 C1076.82,398.9369 1824.2506,441.4588 2183.4406,453.7988 " fill="transparent" id="CsrGenerationContextConfig-to-BaseContextConfig" style="stroke:#181818;stroke-width:1;"/><polygon fill="transparent" points="2201.43,454.4169,2183.6466,447.8024,2183.2346,459.7953,2201.43,454.4169" style="stroke:#181818;stroke-width:1;"/><text fill="#000000" font-family="sans-serif" font-size="13" lengthAdjust="spacing" textLength="48.915" x="659" y="292.3638">inherits</text></g><!--SRC=[pPVVRjCm5CRlynJMBY1ez0McKcbq22eqKRKJjvMNdBPM4pkodOe89l4GF25FWjqa9QxZskdGHAuYv_iT-tp7_oA9p00j4yO1JNbLI8PkvpFq- -SlD6LqJJObnv8m6aLYHsY1ESvHWPCTti1ILWhba4XCDnb4qMlqxXcFmiqUdnck6IMwCg9UeUyHKa-IOI7GUon0VPRmJTOgD1uBoSj4JYQDK3_N26SRnedSvkW6tRRlixIZA3ZRanIu4h12zuIpSMte0WGhUGApTDAZNycgW2uqRpuygFPUGBqKm2K1eR1MFJysTX3TTCXw9KaEh9JTVdAIPKH0mcWgklqqqXLG_9X1gf17nhAZO3GQTSHBa4SxOcNI6oMtJ7rb0ksGOvtH440x4ckxXa2DCLMyW-ejskEi3CA_jDOzr7R4ZIrUzeu8xLkBUVKVQA3yAUfCt4zOR8CcRb-1BDXNe530A903CjAunqbG5gfsAkBfSXem9qyxEadWCrGnIGE4bZM1UiEPViOmHWte7bErVUL0vSM5TaVnfJMOD1BqqKQgKr9iWV-BQN2DKgAF8xLgjUmGzwvj6J1PUaRad2z-xN44iHfT66AL8nmnwk34Z08ioOQ-p2gqUdBQwbDQ3eK2XZyEo73dAt2ohhGIovB3onXrhbEdPmCWoxuBMCD9Fs-OUWiu_PzMl3KUfya-fRNQVO1LYb30yDy16QOlC4rPVl5XqeFxKWb7Z6ISc7bkwElkcYHOmiKvkM9uz-DXdBafdsLTAHuMc7vJKoieNGvxLijN1Sj8KdNl_elZn-aMajty89Yu5ynVVIsDwv0dwJZ7EC3EeJ5SrdhYc3OB_X5eSz-_V2uvetZJ7qgQINle9bNxZs4q-Z7f-GE-GOIgRPJ8-a_IkgA7OMSki641-gw5OQHzdmdZpfxqOI7iSosCwzkQ0sroxOA3SVSE4nZAlOhy0PwYFm00]--></g></svg>