<svg xmlns="http://www.w3.org/2000/svg" xmlns:xlink="http://www.w3.org/1999/xlink" contentStyleType="text/css" data-diagram-type="CLASS" height="948px" preserveAspectRatio="none" style="width:1949px;height:948px;background:#FFFFFF;" version="1.1" viewBox="0 0 1949 948" width="1949px" zoomAndPan="magnify"><title>Score Crypto API &#8212; Stack, Factory &amp; Context Overview</title><defs/><g><text fill="#000000" font-family="sans-serif" font-size="14" font-weight="bold" lengthAdjust="spacing" textLength="432.8926" x="751.0537" y="22.9951">Score Crypto API &#8212; Stack, Factory &amp; Context Overview</text><!--cluster Factory--><g id="cluster_Factory"><rect fill="transparent" height="314" rx="2.5" ry="2.5" style="stroke:#000000;stroke-width:1.5;" width="600" x="7" y="44.2969"/><text fill="#000000" font-family="sans-serif" font-size="14" font-weight="bold" lengthAdjust="spacing" textLength="59.6504" x="277.1748" y="59.292">Factory</text></g><!--cluster Stack & Ownership--><g id="cluster_Stack &amp; Ownership"><rect fill="transparent" height="550.5" rx="2.5" ry="2.5" style="stroke:#000000;stroke-width:1.5;" width="564" x="631" y="206.2969"/><text fill="#000000" font-family="sans-serif" font-size="14" font-weight="bold" lengthAdjust="spacing" textLength="150.1104" x="837.9448" y="221.292">Stack &amp; Ownership</text></g><!--cluster Crypto Context--><g id="cluster_Crypto Context"><rect fill="transparent" height="535" rx="2.5" ry="2.5" style="stroke:#000000;stroke-width:1.5;" width="724" x="1219" y="407.2969"/><text fill="#000000" font-family="sans-serif" font-size="14" font-weight="bold" lengthAdjust="spacing" textLength="119.2803" x="1521.3599" y="422.292">Crypto Context</text></g><!--class CryptoStackConfig--><g id="elem_CryptoStackConfig"><rect codeLine="10" fill="#F1F1F1" height="121.4531" id="CryptoStackConfig" rx="2.5" ry="2.5" style="stroke:#181818;stroke-width:0.5;" width="447.8867" x="83" y="221.2969"/><ellipse cx="237.4751" cy="241.4297" fill="#ADD1B2" rx="11" ry="11" style="stroke:#181818;stroke-width:1;"/><path d="M240.4438,247.0703 Q239.8657,247.3672 239.2251,247.5078 Q238.5845,247.6641 237.8813,247.6641 Q235.3813,247.6641 234.0532,246.0234 Q232.7407,244.3672 232.7407,241.2422 Q232.7407,238.1172 234.0532,236.4609 Q235.3813,234.8047 237.8813,234.8047 Q238.5845,234.8047 239.2251,234.9609 Q239.8813,235.1172 240.4438,235.4141 L240.4438,238.1328 Q239.8188,237.5547 239.2251,237.2891 Q238.6313,237.0078 238.0063,237.0078 Q236.6626,237.0078 235.9751,238.0859 Q235.2876,239.1484 235.2876,241.2422 Q235.2876,243.3359 235.9751,244.4141 Q236.6626,245.4766 238.0063,245.4766 Q238.6313,245.4766 239.2251,245.2109 Q239.8188,244.9297 240.4438,244.3516 L240.4438,247.0703 Z " fill="#000000"/><text fill="#000000" font-family="sans-serif" font-size="12" font-style="italic" lengthAdjust="spacing" textLength="49.6113" x="298.3877" y="237.4355">&#171;struct&#187;</text><text fill="#000000" font-family="sans-serif" font-size="14" lengthAdjust="spacing" textLength="130.4365" x="257.9751" y="253.2607">CryptoStackConfig</text><line style="stroke:#181818;stroke-width:0.5;" x1="84" x2="529.8867" y1="261.5625" y2="261.5625"/><ellipse cx="94" cy="275.2109" fill="transparent" rx="3" ry="3" style="stroke:#038048;stroke-width:1;"/><text fill="#000000" font-family="sans-serif" font-size="14" lengthAdjust="spacing" textLength="200.0195" x="103" y="278.5576">connection_endpoint : string</text><ellipse cx="94" cy="291.5078" fill="transparent" rx="3" ry="3" style="stroke:#038048;stroke-width:1;"/><text fill="#000000" font-family="sans-serif" font-size="14" lengthAdjust="spacing" textLength="365.2715" x="103" y="294.8545">default_operation_timeout : optional&lt;milliseconds&gt;</text><line style="stroke:#181818;stroke-width:1;" x1="84" x2="529.8867" y1="302.1563" y2="302.1563"/><ellipse cx="94" cy="315.8047" fill="#84BE84" rx="3" ry="3" style="stroke:#038048;stroke-width:1;"/><text fill="#000000" font-family="sans-serif" font-size="14" lengthAdjust="spacing" textLength="392.4854" x="103" y="319.1514">SetConnectionEndpoint(endpoint) : CryptoStackConfig&amp;</text><ellipse cx="94" cy="332.1016" fill="#84BE84" rx="3" ry="3" style="stroke:#038048;stroke-width:1;"/><text fill="#000000" font-family="sans-serif" font-size="14" lengthAdjust="spacing" textLength="421.8867" x="103" y="335.4482">SetDefaultOperationTimeout(timeout) : CryptoStackConfig&amp;</text></g><!--class CreateCryptoStack--><g id="elem_CreateCryptoStack"><rect codeLine="18" fill="#F1F1F1" height="64.2969" id="CreateCryptoStack" rx="2.5" ry="2.5" style="stroke:#181818;stroke-width:0.5;" width="566.5859" x="23.5" y="79.2969"/><ellipse cx="236.3711" cy="95.2969" fill="#B4A7E5" rx="11" ry="11" style="stroke:#181818;stroke-width:1;"/><path d="M232.293,91.0625 L232.293,88.9063 L239.6836,88.9063 L239.6836,91.0625 L237.2148,91.0625 L237.2148,99.1406 L239.6836,99.1406 L239.6836,101.2969 L232.293,101.2969 L232.293,99.1406 L234.7617,99.1406 L234.7617,91.0625 L232.293,91.0625 Z " fill="#000000"/><text fill="#000000" font-family="sans-serif" font-size="14" font-style="italic" lengthAdjust="spacing" textLength="132.3438" x="256.8711" y="100.1436">CreateCryptoStack</text><line style="stroke:#181818;stroke-width:0.5;" x1="24.5" x2="589.0859" y1="111.2969" y2="111.2969"/><line style="stroke:#181818;stroke-width:0.5;" x1="24.5" x2="589.0859" y1="119.2969" y2="119.2969"/><ellipse cx="34.5" cy="132.9453" fill="#84BE84" rx="3" ry="3" style="stroke:#038048;stroke-width:1;"/><text fill="#000000" font-family="sans-serif" font-size="14" lengthAdjust="spacing" textLength="540.5859" x="43.5" y="136.292">CreateCryptoStack(config : CryptoStackConfig) : Result&lt;ICryptoStack::Uptr&gt;</text></g><!--class ICryptoStack--><g id="elem_ICryptoStack"><rect codeLine="27" fill="#F1F1F1" height="80.5938" id="ICryptoStack" rx="2.5" ry="2.5" style="stroke:#181818;stroke-width:0.5;" width="424.6719" x="727.5" y="241.2969"/><ellipse cx="890.7627" cy="257.2969" fill="#B4A7E5" rx="11" ry="11" style="stroke:#181818;stroke-width:1;"/><path d="M886.6846,253.0625 L886.6846,250.9063 L894.0752,250.9063 L894.0752,253.0625 L891.6064,253.0625 L891.6064,261.1406 L894.0752,261.1406 L894.0752,263.2969 L886.6846,263.2969 L886.6846,261.1406 L889.1533,261.1406 L889.1533,253.0625 L886.6846,253.0625 Z " fill="#000000"/><text fill="#000000" font-family="sans-serif" font-size="14" font-style="italic" lengthAdjust="spacing" textLength="89.6465" x="911.2627" y="262.1436">ICryptoStack</text><line style="stroke:#181818;stroke-width:0.5;" x1="728.5" x2="1151.1719" y1="273.2969" y2="273.2969"/><line style="stroke:#181818;stroke-width:0.5;" x1="728.5" x2="1151.1719" y1="281.2969" y2="281.2969"/><ellipse cx="738.5" cy="294.9453" fill="#84BE84" rx="3" ry="3" style="stroke:#038048;stroke-width:1;"/><text fill="#000000" font-family="sans-serif" font-size="14" lengthAdjust="spacing" textLength="386.3535" x="747.5" y="298.292">CreateCryptoContext() : Result&lt;ICryptoContext::Uptr&gt;</text><ellipse cx="738.5" cy="311.2422" fill="#84BE84" rx="3" ry="3" style="stroke:#038048;stroke-width:1;"/><text fill="#000000" font-family="sans-serif" font-size="14" lengthAdjust="spacing" textLength="398.6719" x="747.5" y="314.5889">GetMemoryAllocator() : Result&lt;IMemoryAllocator::Uptr&gt;</text></g><!--class IMemoryAllocator--><g id="elem_IMemoryAllocator"><rect codeLine="32" fill="#F1F1F1" height="113.1875" id="IMemoryAllocator" rx="2.5" ry="2.5" style="stroke:#181818;stroke-width:0.5;" width="531.8799" x="647" y="627.7969"/><ellipse cx="847.1528" cy="643.7969" fill="#B4A7E5" rx="11" ry="11" style="stroke:#181818;stroke-width:1;"/><path d="M843.0747,639.5625 L843.0747,637.4063 L850.4653,637.4063 L850.4653,639.5625 L847.9966,639.5625 L847.9966,647.6406 L850.4653,647.6406 L850.4653,649.7969 L843.0747,649.7969 L843.0747,647.6406 L845.5435,647.6406 L845.5435,639.5625 L843.0747,639.5625 Z " fill="#000000"/><text fill="#000000" font-family="sans-serif" font-size="14" font-style="italic" lengthAdjust="spacing" textLength="123.0742" x="867.6528" y="648.6436">IMemoryAllocator</text><line style="stroke:#181818;stroke-width:0.5;" x1="648" x2="1177.8799" y1="659.7969" y2="659.7969"/><line style="stroke:#181818;stroke-width:0.5;" x1="648" x2="1177.8799" y1="667.7969" y2="667.7969"/><ellipse cx="658" cy="681.4453" fill="#84BE84" rx="3" ry="3" style="stroke:#038048;stroke-width:1;"/><text fill="#000000" font-family="sans-serif" font-size="14" lengthAdjust="spacing" textLength="398.166" x="667" y="684.792">Allocate(size) : Result&lt;IReadWriteMemoryRegion::Uptr&gt;</text><ellipse cx="658" cy="697.7422" fill="#84BE84" rx="3" ry="3" style="stroke:#038048;stroke-width:1;"/><text fill="#000000" font-family="sans-serif" font-size="14" lengthAdjust="spacing" textLength="505.8799" x="667" y="701.0889">Allocate(size, type, provider) : Result&lt;IReadWriteMemoryRegion::Uptr&gt;</text><ellipse cx="658" cy="714.0391" fill="#84BE84" rx="3" ry="3" style="stroke:#038048;stroke-width:1;"/><text fill="#000000" font-family="sans-serif" font-size="14" lengthAdjust="spacing" textLength="131.6533" x="667" y="717.3857">GetQuota() : size_t</text><ellipse cx="658" cy="730.3359" fill="#84BE84" rx="3" ry="3" style="stroke:#038048;stroke-width:1;"/><text fill="#000000" font-family="sans-serif" font-size="14" lengthAdjust="spacing" textLength="185.8828" x="667" y="733.6826">GetCurrentUsage() : size_t</text></g><!--class ICryptoContext--><g id="elem_ICryptoContext"><rect codeLine="45" fill="#F1F1F1" height="483.7188" id="ICryptoContext" rx="2.5" ry="2.5" style="stroke:#181818;stroke-width:0.5;" width="691.5674" x="1235" y="442.2969"/><ellipse cx="1523.5449" cy="458.2969" fill="#B4A7E5" rx="11" ry="11" style="stroke:#181818;stroke-width:1;"/><path d="M1519.4668,454.0625 L1519.4668,451.9063 L1526.8574,451.9063 L1526.8574,454.0625 L1524.3887,454.0625 L1524.3887,462.1406 L1526.8574,462.1406 L1526.8574,464.2969 L1519.4668,464.2969 L1519.4668,462.1406 L1521.9355,462.1406 L1521.9355,454.0625 L1519.4668,454.0625 Z " fill="#000000"/><text fill="#000000" font-family="sans-serif" font-size="14" font-style="italic" lengthAdjust="spacing" textLength="105.9775" x="1544.0449" y="463.1436">ICryptoContext</text><line style="stroke:#181818;stroke-width:0.5;" x1="1236" x2="1925.5674" y1="474.2969" y2="474.2969"/><ellipse cx="1246" cy="508.2422" fill="#84BE84" rx="3" ry="3" style="stroke:#038048;stroke-width:1;"/><text fill="#000000" font-family="sans-serif" font-size="14" lengthAdjust="spacing" textLength="458.0488" x="1255" y="511.5889">ResolveResource(resource_id, type) : Result&lt;CryptoResourceId&gt;</text><line style="stroke:#181818;stroke-width:0.5;" x1="1236" x2="1509.0986" y1="490.4453" y2="490.4453"/><text fill="#000000" font-family="sans-serif" font-size="14" lengthAdjust="spacing" textLength="143.3701" x="1509.0986" y="494.792">Resource Resolution</text><line style="stroke:#181818;stroke-width:0.5;" x1="1652.4688" x2="1925.5674" y1="490.4453" y2="490.4453"/><ellipse cx="1246" cy="544.8359" fill="#84BE84" rx="3" ry="3" style="stroke:#038048;stroke-width:1;"/><text fill="#000000" font-family="sans-serif" font-size="14" lengthAdjust="spacing" textLength="406.2256" x="1255" y="548.1826">CreateHashContext(config) : Result&lt;IHashContext::Uptr&gt;</text><ellipse cx="1246" cy="561.1328" fill="#84BE84" rx="3" ry="3" style="stroke:#038048;stroke-width:1;"/><text fill="#000000" font-family="sans-serif" font-size="14" lengthAdjust="spacing" textLength="392.3896" x="1255" y="564.4795">CreateMacContext(config) : Result&lt;IMacContext::Uptr&gt;</text><ellipse cx="1246" cy="577.4297" fill="#84BE84" rx="3" ry="3" style="stroke:#038048;stroke-width:1;"/><text fill="#000000" font-family="sans-serif" font-size="14" lengthAdjust="spacing" textLength="572.2842" x="1255" y="580.7764">CreateKeyManagementContext(config) : Result&lt;IKeyManagementContext::Uptr&gt;</text><ellipse cx="1246" cy="593.7266" fill="#84BE84" rx="3" ry="3" style="stroke:#038048;stroke-width:1;"/><text fill="#000000" font-family="sans-serif" font-size="14" lengthAdjust="spacing" textLength="427.2666" x="1255" y="597.0732">CreateCipherContext(config) : Result&lt;ICipherContext::Uptr&gt;</text><ellipse cx="1246" cy="610.0234" fill="#84BE84" rx="3" ry="3" style="stroke:#038048;stroke-width:1;"/><text fill="#000000" font-family="sans-serif" font-size="14" lengthAdjust="spacing" textLength="396.751" x="1255" y="613.3701">CreateSignContext(config) : Result&lt;ISignContext::Uptr&gt;</text><ellipse cx="1246" cy="626.3203" fill="#84BE84" rx="3" ry="3" style="stroke:#038048;stroke-width:1;"/><text fill="#000000" font-family="sans-serif" font-size="14" lengthAdjust="spacing" textLength="553.4717" x="1255" y="629.667">CreateVerifySignatureContext(config) : Result&lt;IVerifySignatureContext::Uptr&gt;</text><ellipse cx="1246" cy="642.6172" fill="#84BE84" rx="3" ry="3" style="stroke:#038048;stroke-width:1;"/><text fill="#000000" font-family="sans-serif" font-size="14" lengthAdjust="spacing" textLength="406.9912" x="1255" y="645.9639">CreateAeadContext(config) : Result&lt;IAeadContext::Uptr&gt;</text><ellipse cx="1246" cy="658.9141" fill="#84BE84" rx="3" ry="3" style="stroke:#038048;stroke-width:1;"/><text fill="#000000" font-family="sans-serif" font-size="14" lengthAdjust="spacing" textLength="452.2178" x="1255" y="662.2607">CreateRandomContext(config) : Result&lt;IRandomContext::Uptr&gt;</text><line style="stroke:#181818;stroke-width:0.5;" x1="1236" x2="1493.7349" y1="527.0391" y2="527.0391"/><text fill="#000000" font-family="sans-serif" font-size="14" lengthAdjust="spacing" textLength="174.0977" x="1493.7349" y="531.3857">Context Factory (Crypto)</text><line style="stroke:#181818;stroke-width:0.5;" x1="1667.8325" x2="1925.5674" y1="527.0391" y2="527.0391"/><ellipse cx="1246" cy="695.5078" fill="#84BE84" rx="3" ry="3" style="stroke:#038048;stroke-width:1;"/><text fill="#000000" font-family="sans-serif" font-size="14" lengthAdjust="spacing" textLength="665.5674" x="1255" y="698.8545">CreateCertificateManagementContext(config) : Result&lt;ICertificateManagementContext::Uptr&gt;</text><ellipse cx="1246" cy="711.8047" fill="#84BE84" rx="3" ry="3" style="stroke:#038048;stroke-width:1;"/><text fill="#000000" font-family="sans-serif" font-size="14" lengthAdjust="spacing" textLength="640.6162" x="1255" y="715.1514">CreateCertificateVerificationContext(config) : Result&lt;ICertificateVerificationContext::Uptr&gt;</text><ellipse cx="1246" cy="728.1016" fill="#84BE84" rx="3" ry="3" style="stroke:#038048;stroke-width:1;"/><text fill="#000000" font-family="sans-serif" font-size="14" lengthAdjust="spacing" textLength="537.5303" x="1255" y="731.4482">CreateCsrGenerationContext(config) : Result&lt;ICsrGenerationContext::Uptr&gt;</text><line style="stroke:#181818;stroke-width:0.5;" x1="1236" x2="1480.7534" y1="677.7109" y2="677.7109"/><text fill="#000000" font-family="sans-serif" font-size="14" lengthAdjust="spacing" textLength="200.0605" x="1480.7534" y="682.0576">Context Factory (Certificate)</text><line style="stroke:#181818;stroke-width:0.5;" x1="1680.814" x2="1925.5674" y1="677.7109" y2="677.7109"/><ellipse cx="1246" cy="764.6953" fill="#84BE84" rx="3" ry="3" style="stroke:#038048;stroke-width:1;"/><text fill="#000000" font-family="sans-serif" font-size="14" lengthAdjust="spacing" textLength="433.8906" x="1255" y="768.042">QueryCapabilities(algorithm) : Result&lt;AlgorithmCapabilities&gt;</text><ellipse cx="1246" cy="780.9922" fill="#84BE84" rx="3" ry="3" style="stroke:#038048;stroke-width:1;"/><text fill="#000000" font-family="sans-serif" font-size="14" lengthAdjust="spacing" textLength="349.9658" x="1255" y="784.3389">QueryCapabilities() : Result&lt;SystemCapabilities&gt;</text><ellipse cx="1246" cy="797.2891" fill="#84BE84" rx="3" ry="3" style="stroke:#038048;stroke-width:1;"/><text fill="#000000" font-family="sans-serif" font-size="14" lengthAdjust="spacing" textLength="524.7949" x="1255" y="800.6357">QueryProviderCompatibility(resource) : Result&lt;ProviderCompatibilityInfo&gt;</text><ellipse cx="1246" cy="813.5859" fill="#84BE84" rx="3" ry="3" style="stroke:#038048;stroke-width:1;"/><text fill="#000000" font-family="sans-serif" font-size="14" lengthAdjust="spacing" textLength="364.6357" x="1255" y="816.9326">GetProviderInfo(provider_id) : Result&lt;ProviderInfo&gt;</text><line style="stroke:#181818;stroke-width:0.5;" x1="1236" x2="1553.7544" y1="746.8984" y2="746.8984"/><text fill="#000000" font-family="sans-serif" font-size="14" lengthAdjust="spacing" textLength="54.0586" x="1553.7544" y="751.2451">Queries</text><line style="stroke:#181818;stroke-width:0.5;" x1="1607.813" x2="1925.5674" y1="746.8984" y2="746.8984"/><ellipse cx="1246" cy="850.1797" fill="#84BE84" rx="3" ry="3" style="stroke:#038048;stroke-width:1;"/><text fill="#000000" font-family="sans-serif" font-size="14" lengthAdjust="spacing" textLength="316.9072" x="1255" y="853.5264">GetKeyObject(id) : Result&lt;IKeyObject::Uptr&gt;</text><ellipse cx="1246" cy="866.4766" fill="#84BE84" rx="3" ry="3" style="stroke:#038048;stroke-width:1;"/><text fill="#000000" font-family="sans-serif" font-size="14" lengthAdjust="spacing" textLength="370.5693" x="1255" y="869.8232">GetKeySlotObject(id) : Result&lt;IKeySlotObject::Uptr&gt;</text><ellipse cx="1246" cy="882.7734" fill="#84BE84" rx="3" ry="3" style="stroke:#038048;stroke-width:1;"/><text fill="#000000" font-family="sans-serif" font-size="14" lengthAdjust="spacing" textLength="410.1904" x="1255" y="886.1201">GetCertificateObject(id) : Result&lt;ICertificateObject::Uptr&gt;</text><ellipse cx="1246" cy="899.0703" fill="#84BE84" rx="3" ry="3" style="stroke:#038048;stroke-width:1;"/><text fill="#000000" font-family="sans-serif" font-size="14" lengthAdjust="spacing" textLength="377.6787" x="1255" y="902.417">GetCertSlotObject(id) : Result&lt;ICertSlotObject::Uptr&gt;</text><ellipse cx="1246" cy="915.3672" fill="#84BE84" rx="3" ry="3" style="stroke:#038048;stroke-width:1;"/><text fill="#000000" font-family="sans-serif" font-size="14" lengthAdjust="spacing" textLength="381.1377" x="1255" y="918.7139">GetProviderObject(id) : Result&lt;IProviderObject::Uptr&gt;</text><line style="stroke:#181818;stroke-width:0.5;" x1="1236" x2="1507.8374" y1="832.3828" y2="832.3828"/><text fill="#000000" font-family="sans-serif" font-size="14" lengthAdjust="spacing" textLength="145.8926" x="1507.8374" y="836.7295">Typed Object Access</text><line style="stroke:#181818;stroke-width:0.5;" x1="1653.73" x2="1925.5674" y1="832.3828" y2="832.3828"/></g><!--link ICryptoContext to ICryptoStack--><!--link ICryptoStack to ICryptoContext--><g id="link_ICryptoStack_ICryptoContext"><path codeLine="82" d="M1038.94,322.3569 C1087.2,343.0469 1145.38,370.1269 1195,399.2969 C1217.77,412.6869 1235.8109,423.8292 1258.7409,438.8492 " fill="transparent" id="ICryptoStack-to-ICryptoContext" style="stroke:#181818;stroke-width:1;"/><polygon fill="#181818" points="1263.76,442.1369,1258.4232,433.8593,1259.5774,439.3971,1254.0396,440.5514,1263.76,442.1369" style="stroke:#181818;stroke-width:1;"/><text fill="#000000" font-family="sans-serif" font-size="13" lengthAdjust="spacing" textLength="48.3247" x="1176" y="387.3638">creates</text></g><!--link CreateCryptoStack to CryptoStackConfig--><g id="link_CreateCryptoStack_CryptoStackConfig"><path codeLine="80" d="M307,143.5969 C307,165.2969 307,188.8769 307,215.0169 " fill="transparent" id="CreateCryptoStack-to-CryptoStackConfig" style="stroke:#181818;stroke-width:1;stroke-dasharray:7.0,7.0;"/><polygon fill="#181818" points="307,221.0169,311,212.0169,307,216.0169,303,212.0169,307,221.0169" style="stroke:#181818;stroke-width:1;"/><text fill="#000000" font-family="sans-serif" font-size="13" lengthAdjust="spacing" textLength="50.3813" x="308" y="186.3638">accepts</text></g><!--link CreateCryptoStack to ICryptoStack--><g id="link_CreateCryptoStack_ICryptoStack"><path codeLine="81" d="M423.47,143.2969 C527.11,170.8869 673.4419,209.8437 785.7819,239.7437 " fill="transparent" id="CreateCryptoStack-to-ICryptoStack" style="stroke:#181818;stroke-width:1;"/><polygon fill="#181818" points="791.58,241.2869,783.9116,235.1066,786.7482,240.0009,781.854,242.8375,791.58,241.2869" style="stroke:#181818;stroke-width:1;"/><text fill="#000000" font-family="sans-serif" font-size="13" lengthAdjust="spacing" textLength="48.3247" x="587" y="186.3638">creates</text></g><!--link ICryptoStack to IMemoryAllocator--><g id="link_ICryptoStack_IMemoryAllocator"><path codeLine="83" d="M937.31,322.6669 C932.47,394.4869 922.6732,539.7504 917.1532,621.7104 " fill="transparent" id="ICryptoStack-to-IMemoryAllocator" style="stroke:#181818;stroke-width:1;"/><polygon fill="#181818" points="916.75,627.6969,921.3457,618.986,917.086,622.7082,913.3638,618.4484,916.75,627.6969" style="stroke:#181818;stroke-width:1;"/><text fill="#000000" font-family="sans-serif" font-size="13" lengthAdjust="spacing" textLength="55.8784" x="934" y="387.3638">provides</text></g><!--SRC=[hLVTRjCm5BxlKrYx646iUu2gLAe2Z0fDtTeDBX2glEIqDKlio7Os0fh4G_24F0adVwsTsDN4ceijylc-x_puvDZLJ2T0bf6GG49PP5gGwTMC_FtzXomrZUxFo0SQQI4BSaf2mJNyq6J-0FA1mUDWeEuPpwYaASaGIpUmr0NAIOWqvPi41eDNvEqB7gGtxbygrCH7JXgz4_9hGF294gfKatcLC2QvPXio7YijyqXF9WsmVDwGI72EoJ71Ly3ZJ32koOWWbF6D0OjXJVD4hqG6abPepL8GUGaMMRb0at7AaeGfGCbOJNRauN1e22r1XpkNxnkFGUlwDShrGZ-rwU_gKEPj93Tr844Jq069fq7r3_s0NDC8QnTAe1eC-0cXPV4wgrR5UjOWgYliy5i6im25uOvdXd4qkisqd3H1FHsXgUemJqjd8fUOsloHWrHRbXsjpreNE-Msu_Rrd3sdPir75_HhqrZCwjJq2z2Na6AJJvD4H1JRtM9tR7Prko5sm5QOpIe4Ylq4qyC2QFn5CWqrUm4RRBn-d1R_ZEWYmx-P50yi1laVUfZtTIuqhR8jDLVQjeQvbC3rhS8Twe8mzMDqbhqtH-kcPZGtijvMQYVqVfTMgtsJboz9NWu1N3OgKwq_G8iBPFEoOd6zAyPUr7vQw2oUc9vQz-sH4TJerxQxkhi_KhLjUplgVVs6jR_FjS0bZVpylT57_mJ59ULOt1GxmY_aWlaaGvPjGVgrBBjFPCast2zXM7q2dq6oTL42gSub-BNSG9_i5Bz1lvPXzGaiA8z5wfUmx5qHPtE1r6pDoWdYx333_foTFWJtxlYUKrMpVCFFwrbE70Il6oKlW3S7-05n1ynHoEiSFOEoIrOk5Y7Dw1rBc4PpG9EDm9cxJGqNqtRDH4uEoXZiPQ4q7APUDTC_56c6QLIuOZUG32qdSCRNedCWjBZI5BHd2musXvJDnaBTuEYBoVpkErw_o3IAG7MAXleu7sf0O6dETklEOmgjoqHe7tDlSxAD9d8gzEnU5MyGjj79RylcvDj6nnMZSs0DlsvP70F_DfnOrwAZdCaBIAfFeho5gPVAzM-xv-SJnm-84Q7OCPbM3iQmaoM2emga1ZCFhYtK8MJthZPgBrDgy0y0]--></g></svg>