<svg xmlns="http://www.w3.org/2000/svg" xmlns:xlink="http://www.w3.org/1999/xlink" contentStyleType="text/css" data-diagram-type="SEQUENCE" height="1498px" preserveAspectRatio="none" style="width:667px;height:1498px;background:#FFFFFF;" version="1.1" viewBox="0 0 667 1498" width="667px" zoomAndPan="magnify"><title>Score Crypto API &#8212; Typical Usage Flow</title><defs/><g><text fill="#000000" font-family="sans-serif" font-size="14" font-weight="bold" lengthAdjust="spacing" textLength="308.2051" x="175.4563" y="27.9951">Score Crypto API &#8212; Typical Usage Flow</text><g><title>score::mw::crypto</title><rect fill="#FFFFFF" height="87.3984" style="stroke:#181818;stroke-width:1;" width="10" x="361.2534" y="164.1563"/></g><g><title>score::mw::crypto</title><rect fill="#FFFFFF" height="29.1328" style="stroke:#181818;stroke-width:1;" width="10" x="361.2534" y="323.8203"/></g><g><title>score::mw::crypto</title><rect fill="#FFFFFF" height="87.3984" style="stroke:#181818;stroke-width:1;" width="10" x="361.2534" y="382.0859"/></g><g><title>score::mw::crypto</title><rect fill="#FFFFFF" height="87.3984" style="stroke:#181818;stroke-width:1;" width="10" x="361.2534" y="583.8828"/></g><g><title>score::mw::crypto</title><rect fill="#FFFFFF" height="87.3984" style="stroke:#181818;stroke-width:1;" width="10" x="361.2534" y="715.5469"/></g><g><title>score::mw::crypto</title><rect fill="#FFFFFF" height="87.3984" style="stroke:#181818;stroke-width:1;" width="10" x="361.2534" y="890.3438"/></g><g><title>score::mw::crypto</title><rect fill="#FFFFFF" height="87.3984" style="stroke:#181818;stroke-width:1;" width="10" x="361.2534" y="1006.875"/></g><g><title>score::mw::crypto</title><rect fill="#FFFFFF" height="87.3984" style="stroke:#181818;stroke-width:1;" width="10" x="361.2534" y="1123.4063"/></g><g><title>score::mw::crypto</title><rect fill="#FFFFFF" height="87.3984" style="stroke:#181818;stroke-width:1;" width="10" x="361.2534" y="1239.9375"/></g><g><title>score::mw::crypto</title><rect fill="#FFFFFF" height="29.1328" style="stroke:#181818;stroke-width:1;" width="10" x="361.2534" y="1399.6016"/></g><g><title>Crypto Daemon</title><rect fill="#FFFFFF" height="1235.4453" style="stroke:#181818;stroke-width:1;" width="10" x="587.9893" y="193.2891"/></g><g><title>Application</title><rect fill="transparent" height="1356.8438" width="8" x="47.1118" y="89.8906"/><line style="stroke:#181818;stroke-width:0.5;stroke-dasharray:5.0,5.0;" x1="51" x2="51" y1="89.8906" y2="1446.7344"/></g><g><title>score::mw::crypto</title><rect fill="transparent" height="1356.8438" width="8" x="362.2534" y="89.8906"/><line style="stroke:#181818;stroke-width:0.5;stroke-dasharray:5.0,5.0;" x1="365.9731" x2="365.9731" y1="89.8906" y2="1446.7344"/></g><g><title>Crypto Daemon</title><rect fill="transparent" height="1356.8438" width="8" x="588.9893" y="89.8906"/><line style="stroke:#181818;stroke-width:0.5;stroke-dasharray:5.0,5.0;" x1="592.8608" x2="592.8608" y1="89.8906" y2="1446.7344"/></g><rect fill="#E2E2F0" height="30.2969" rx="2.5" ry="2.5" style="stroke:#181818;stroke-width:0.5;" width="92.2236" x="5" y="58.5938"/><text fill="#000000" font-family="sans-serif" font-size="14" lengthAdjust="spacing" textLength="78.2236" x="12" y="78.5889">Application</text><rect fill="#E2E2F0" height="30.2969" rx="2.5" ry="2.5" style="stroke:#181818;stroke-width:0.5;" width="92.2236" x="5" y="1445.7344"/><text fill="#000000" font-family="sans-serif" font-size="14" lengthAdjust="spacing" textLength="78.2236" x="12" y="1465.7295">Application</text><rect fill="#E2E2F0" height="46.5938" rx="2.5" ry="2.5" style="stroke:#181818;stroke-width:0.5;" width="140.5605" x="295.9731" y="42.2969"/><text fill="#000000" font-family="sans-serif" font-size="14" lengthAdjust="spacing" textLength="126.5605" x="302.9731" y="62.292">score::mw::crypto</text><text fill="#000000" font-family="sans-serif" font-size="14" lengthAdjust="spacing" textLength="104.8564" x="313.8252" y="78.5889">(Client Library)</text><rect fill="#E2E2F0" height="46.5938" rx="2.5" ry="2.5" style="stroke:#181818;stroke-width:0.5;" width="140.5605" x="295.9731" y="1445.7344"/><text fill="#000000" font-family="sans-serif" font-size="14" lengthAdjust="spacing" textLength="126.5605" x="302.9731" y="1465.7295">score::mw::crypto</text><text fill="#000000" font-family="sans-serif" font-size="14" lengthAdjust="spacing" textLength="104.8564" x="313.8252" y="1482.0264">(Client Library)</text><rect fill="#E2E2F0" height="30.2969" rx="2.5" ry="2.5" style="stroke:#181818;stroke-width:0.5;" width="124.2568" x="530.8608" y="58.5938"/><text fill="#000000" font-family="sans-serif" font-size="14" lengthAdjust="spacing" textLength="110.2568" x="537.8608" y="78.5889">Crypto Daemon</text><rect fill="#E2E2F0" height="30.2969" rx="2.5" ry="2.5" style="stroke:#181818;stroke-width:0.5;" width="124.2568" x="530.8608" y="1445.7344"/><text fill="#000000" font-family="sans-serif" font-size="14" lengthAdjust="spacing" textLength="110.2568" x="537.8608" y="1465.7295">Crypto Daemon</text><g><title>score::mw::crypto</title><rect fill="#FFFFFF" height="87.3984" style="stroke:#181818;stroke-width:1;" width="10" x="361.2534" y="164.1563"/></g><g><title>score::mw::crypto</title><rect fill="#FFFFFF" height="29.1328" style="stroke:#181818;stroke-width:1;" width="10" x="361.2534" y="323.8203"/></g><g><title>score::mw::crypto</title><rect fill="#FFFFFF" height="87.3984" style="stroke:#181818;stroke-width:1;" width="10" x="361.2534" y="382.0859"/></g><g><title>score::mw::crypto</title><rect fill="#FFFFFF" height="87.3984" style="stroke:#181818;stroke-width:1;" width="10" x="361.2534" y="583.8828"/></g><g><title>score::mw::crypto</title><rect fill="#FFFFFF" height="87.3984" style="stroke:#181818;stroke-width:1;" width="10" x="361.2534" y="715.5469"/></g><g><title>score::mw::crypto</title><rect fill="#FFFFFF" height="87.3984" style="stroke:#181818;stroke-width:1;" width="10" x="361.2534" y="890.3438"/></g><g><title>score::mw::crypto</title><rect fill="#FFFFFF" height="87.3984" style="stroke:#181818;stroke-width:1;" width="10" x="361.2534" y="1006.875"/></g><g><title>score::mw::crypto</title><rect fill="#FFFFFF" height="87.3984" style="stroke:#181818;stroke-width:1;" width="10" x="361.2534" y="1123.4063"/></g><g><title>score::mw::crypto</title><rect fill="#FFFFFF" height="87.3984" style="stroke:#181818;stroke-width:1;" width="10" x="361.2534" y="1239.9375"/></g><g><title>score::mw::crypto</title><rect fill="#FFFFFF" height="29.1328" style="stroke:#181818;stroke-width:1;" width="10" x="361.2534" y="1399.6016"/></g><g><title>Crypto Daemon</title><rect fill="#FFFFFF" height="1235.4453" style="stroke:#181818;stroke-width:1;" width="10" x="587.9893" y="193.2891"/></g><rect fill="#EEEEEE" height="3" style="stroke:#EEEEEE;stroke-width:1;" width="660.1177" x="0" y="120.457"/><line style="stroke:#000000;stroke-width:1;" x1="0" x2="660.1177" y1="120.457" y2="120.457"/><line style="stroke:#000000;stroke-width:1;" x1="0" x2="660.1177" y1="123.457" y2="123.457"/><rect fill="#EEEEEE" height="23.1328" style="stroke:#000000;stroke-width:2;" width="155.8511" x="252.1333" y="109.8906"/><text fill="#000000" font-family="sans-serif" font-size="13" font-weight="bold" lengthAdjust="spacing" textLength="137.3252" x="258.1333" y="125.9575">Stack Initialization</text><polygon fill="#181818" points="349.2534,160.1563,359.2534,164.1563,349.2534,168.1563,353.2534,164.1563" style="stroke:#181818;stroke-width:1;"/><line style="stroke:#181818;stroke-width:1;" x1="51.1118" x2="355.2534" y1="164.1563" y2="164.1563"/><text fill="#000000" font-family="sans-serif" font-size="13" lengthAdjust="spacing" textLength="254.1538" x="79.1057" y="159.0903">CreateCryptoStack(CryptoStackConfig)</text><polygon fill="#181818" points="575.9893,189.2891,585.9893,193.2891,575.9893,197.2891,579.9893,193.2891" style="stroke:#181818;stroke-width:1;"/><line style="stroke:#181818;stroke-width:1;" x1="371.2534" x2="581.9893" y1="193.2891" y2="193.2891"/><text fill="#000000" font-family="sans-serif" font-size="13" lengthAdjust="spacing" textLength="197.7358" x="380.7534" y="188.2231">connect(connection_endpoint)</text><polygon fill="#181818" points="382.2534,218.4219,372.2534,222.4219,382.2534,226.4219,378.2534,222.4219" style="stroke:#181818;stroke-width:1;"/><line style="stroke:#181818;stroke-width:1;stroke-dasharray:2.0,2.0;" x1="376.2534" x2="586.9893" y1="222.4219" y2="222.4219"/><text fill="#000000" font-family="sans-serif" font-size="13" lengthAdjust="spacing" textLength="150.3315" x="404.4556" y="217.356">connection established</text><polygon fill="#181818" points="62.1118,247.5547,52.1118,251.5547,62.1118,255.5547,58.1118,251.5547" style="stroke:#181818;stroke-width:1;"/><line style="stroke:#181818;stroke-width:1;stroke-dasharray:2.0,2.0;" x1="56.1118" x2="365.2534" y1="251.5547" y2="251.5547"/><text fill="#000000" font-family="sans-serif" font-size="13" lengthAdjust="spacing" textLength="182.749" x="117.3081" y="246.4888">Result&lt;ICryptoStack::Uptr&gt;</text><rect fill="#EEEEEE" height="3" style="stroke:#EEEEEE;stroke-width:1;" width="660.1177" x="0" y="280.1211"/><line style="stroke:#000000;stroke-width:1;" x1="0" x2="660.1177" y1="280.1211" y2="280.1211"/><line style="stroke:#000000;stroke-width:1;" x1="0" x2="660.1177" y1="283.1211" y2="283.1211"/><rect fill="#EEEEEE" height="23.1328" style="stroke:#000000;stroke-width:2;" width="251.7197" x="204.199" y="269.5547"/><text fill="#000000" font-family="sans-serif" font-size="13" font-weight="bold" lengthAdjust="spacing" textLength="233.1938" x="210.199" y="285.6216">Memory Allocation (Data Plane)</text><polygon fill="#181818" points="349.2534,319.8203,359.2534,323.8203,349.2534,327.8203,353.2534,323.8203" style="stroke:#181818;stroke-width:1;"/><line style="stroke:#181818;stroke-width:1;" x1="51.1118" x2="355.2534" y1="323.8203" y2="323.8203"/><text fill="#000000" font-family="sans-serif" font-size="13" lengthAdjust="spacing" textLength="235.7646" x="88.3003" y="318.7544">ICryptoStack::GetMemoryAllocator()</text><polygon fill="#181818" points="62.1118,348.9531,52.1118,352.9531,62.1118,356.9531,58.1118,352.9531" style="stroke:#181818;stroke-width:1;"/><line style="stroke:#181818;stroke-width:1;stroke-dasharray:2.0,2.0;" x1="56.1118" x2="365.2534" y1="352.9531" y2="352.9531"/><text fill="#000000" font-family="sans-serif" font-size="13" lengthAdjust="spacing" textLength="213.7891" x="101.7881" y="347.8872">Result&lt;IMemoryAllocator::Uptr&gt;</text><polygon fill="#181818" points="349.2534,378.0859,359.2534,382.0859,349.2534,386.0859,353.2534,382.0859" style="stroke:#181818;stroke-width:1;"/><line style="stroke:#181818;stroke-width:1;" x1="51.1118" x2="355.2534" y1="382.0859" y2="382.0859"/><text fill="#000000" font-family="sans-serif" font-size="13" lengthAdjust="spacing" textLength="210.6724" x="100.8464" y="377.02">IMemoryAllocator::Allocate(size)</text><polygon fill="#181818" points="575.9893,407.2188,585.9893,411.2188,575.9893,415.2188,579.9893,411.2188" style="stroke:#181818;stroke-width:1;"/><line style="stroke:#181818;stroke-width:1;" x1="371.2534" x2="581.9893" y1="411.2188" y2="411.2188"/><text fill="#000000" font-family="sans-serif" font-size="13" lengthAdjust="spacing" textLength="158.5073" x="400.3677" y="406.1528">allocate shared memory</text><polygon fill="#181818" points="382.2534,436.3516,372.2534,440.3516,382.2534,444.3516,378.2534,440.3516" style="stroke:#181818;stroke-width:1;"/><line style="stroke:#181818;stroke-width:1;stroke-dasharray:2.0,2.0;" x1="376.2534" x2="586.9893" y1="440.3516" y2="440.3516"/><text fill="#000000" font-family="sans-serif" font-size="13" lengthAdjust="spacing" textLength="169.9458" x="394.6484" y="435.2856">IReadWriteMemoryRegion</text><polygon fill="#181818" points="62.1118,465.4844,52.1118,469.4844,62.1118,473.4844,58.1118,469.4844" style="stroke:#181818;stroke-width:1;"/><line style="stroke:#181818;stroke-width:1;stroke-dasharray:2.0,2.0;" x1="56.1118" x2="365.2534" y1="469.4844" y2="469.4844"/><text fill="#000000" font-family="sans-serif" font-size="13" lengthAdjust="spacing" textLength="269.4517" x="73.9568" y="464.4185">Result&lt;IReadWriteMemoryRegion::Uptr&gt;</text><line style="stroke:#181818;stroke-width:1;" x1="51.1118" x2="93.1118" y1="498.6172" y2="498.6172"/><line style="stroke:#181818;stroke-width:1;" x1="93.1118" x2="93.1118" y1="498.6172" y2="511.6172"/><line style="stroke:#181818;stroke-width:1;" x1="52.1118" x2="93.1118" y1="511.6172" y2="511.6172"/><polygon fill="#181818" points="62.1118,507.6172,52.1118,511.6172,62.1118,515.6172,58.1118,511.6172" style="stroke:#181818;stroke-width:1;"/><text fill="#000000" font-family="sans-serif" font-size="13" lengthAdjust="spacing" textLength="128.813" x="58.1118" y="493.5513">write data to region</text><rect fill="#EEEEEE" height="3" style="stroke:#EEEEEE;stroke-width:1;" width="660.1177" x="0" y="540.1836"/><line style="stroke:#000000;stroke-width:1;" x1="0" x2="660.1177" y1="540.1836" y2="540.1836"/><line style="stroke:#000000;stroke-width:1;" x1="0" x2="660.1177" y1="543.1836" y2="543.1836"/><rect fill="#EEEEEE" height="23.1328" style="stroke:#000000;stroke-width:2;" width="246.5464" x="206.7856" y="529.6172"/><text fill="#000000" font-family="sans-serif" font-size="13" font-weight="bold" lengthAdjust="spacing" textLength="228.0205" x="212.7856" y="545.6841">Context &amp; Resource Resolution</text><polygon fill="#181818" points="349.2534,579.8828,359.2534,583.8828,349.2534,587.8828,353.2534,583.8828" style="stroke:#181818;stroke-width:1;"/><line style="stroke:#181818;stroke-width:1;" x1="51.1118" x2="355.2534" y1="583.8828" y2="583.8828"/><text fill="#000000" font-family="sans-serif" font-size="13" lengthAdjust="spacing" textLength="240.2017" x="86.0818" y="578.8169">ICryptoStack::CreateCryptoContext()</text><polygon fill="#181818" points="575.9893,609.0156,585.9893,613.0156,575.9893,617.0156,579.9893,613.0156" style="stroke:#181818;stroke-width:1;"/><line style="stroke:#181818;stroke-width:1;" x1="371.2534" x2="581.9893" y1="613.0156" y2="613.0156"/><text fill="#000000" font-family="sans-serif" font-size="13" lengthAdjust="spacing" textLength="93.8057" x="432.7185" y="607.9497">create session</text><polygon fill="#181818" points="382.2534,638.1484,372.2534,642.1484,382.2534,646.1484,378.2534,642.1484" style="stroke:#181818;stroke-width:1;"/><line style="stroke:#181818;stroke-width:1;stroke-dasharray:2.0,2.0;" x1="376.2534" x2="586.9893" y1="642.1484" y2="642.1484"/><text fill="#000000" font-family="sans-serif" font-size="13" lengthAdjust="spacing" textLength="96.5605" x="431.3411" y="637.0825">session handle</text><polygon fill="#181818" points="62.1118,667.2813,52.1118,671.2813,62.1118,675.2813,58.1118,671.2813" style="stroke:#181818;stroke-width:1;"/><line style="stroke:#181818;stroke-width:1;stroke-dasharray:2.0,2.0;" x1="56.1118" x2="365.2534" y1="671.2813" y2="671.2813"/><text fill="#000000" font-family="sans-serif" font-size="13" lengthAdjust="spacing" textLength="197.9136" x="109.7258" y="666.2153">Result&lt;ICryptoContext::Uptr&gt;</text><polygon fill="#181818" points="349.2534,711.5469,359.2534,715.5469,349.2534,719.5469,353.2534,715.5469" style="stroke:#181818;stroke-width:1;"/><line style="stroke:#181818;stroke-width:1;" x1="51.1118" x2="355.2534" y1="715.5469" y2="715.5469"/><text fill="#000000" font-family="sans-serif" font-size="13" lengthAdjust="spacing" textLength="223.7866" x="94.2893" y="695.3481">ICryptoContext::ResolveResource(</text><text fill="#000000" font-family="sans-serif" font-size="13" lengthAdjust="spacing" textLength="243.6992" x="88.4653" y="710.481">ResourceId, ResourceType::kKeySlot)</text><polygon fill="#181818" points="575.9893,740.6797,585.9893,744.6797,575.9893,748.6797,579.9893,744.6797" style="stroke:#181818;stroke-width:1;"/><line style="stroke:#181818;stroke-width:1;" x1="371.2534" x2="581.9893" y1="744.6797" y2="744.6797"/><text fill="#000000" font-family="sans-serif" font-size="13" lengthAdjust="spacing" textLength="168.3145" x="395.4641" y="739.6138">resolve + ACL check (uid)</text><polygon fill="#181818" points="382.2534,769.8125,372.2534,773.8125,382.2534,777.8125,378.2534,773.8125" style="stroke:#181818;stroke-width:1;"/><line style="stroke:#181818;stroke-width:1;stroke-dasharray:2.0,2.0;" x1="376.2534" x2="586.9893" y1="773.8125" y2="773.8125"/><text fill="#000000" font-family="sans-serif" font-size="13" lengthAdjust="spacing" textLength="105.2378" x="427.0024" y="768.7466">resource handle</text><polygon fill="#181818" points="62.1118,798.9453,52.1118,802.9453,62.1118,806.9453,58.1118,802.9453" style="stroke:#181818;stroke-width:1;"/><line style="stroke:#181818;stroke-width:1;stroke-dasharray:2.0,2.0;" x1="56.1118" x2="365.2534" y1="802.9453" y2="802.9453"/><text fill="#000000" font-family="sans-serif" font-size="13" lengthAdjust="spacing" textLength="178.5278" x="119.4187" y="797.8794">Result&lt;CryptoResourceId&gt;</text><rect fill="#EEEEEE" height="3" style="stroke:#EEEEEE;stroke-width:1;" width="660.1177" x="0" y="831.5117"/><line style="stroke:#000000;stroke-width:1;" x1="0" x2="660.1177" y1="831.5117" y2="831.5117"/><line style="stroke:#000000;stroke-width:1;" x1="0" x2="660.1177" y1="834.5117" y2="834.5117"/><rect fill="#EEEEEE" height="23.1328" style="stroke:#000000;stroke-width:2;" width="225.4595" x="217.3291" y="820.9453"/><text fill="#000000" font-family="sans-serif" font-size="13" font-weight="bold" lengthAdjust="spacing" textLength="206.9336" x="223.3291" y="837.0122">Hash Operation (Streaming)</text><polygon fill="#181818" points="349.2534,886.3438,359.2534,890.3438,349.2534,894.3438,353.2534,890.3438" style="stroke:#181818;stroke-width:1;"/><line style="stroke:#181818;stroke-width:1;" x1="51.1118" x2="355.2534" y1="890.3438" y2="890.3438"/><text fill="#000000" font-family="sans-serif" font-size="13" lengthAdjust="spacing" textLength="239.6304" x="86.3674" y="870.145">ICryptoContext::CreateHashContext(</text><text fill="#000000" font-family="sans-serif" font-size="13" lengthAdjust="spacing" textLength="130.6919" x="144.969" y="885.2778">HashContextConfig)</text><polygon fill="#181818" points="575.9893,915.4766,585.9893,919.4766,575.9893,923.4766,579.9893,919.4766" style="stroke:#181818;stroke-width:1;"/><line style="stroke:#181818;stroke-width:1;" x1="371.2534" x2="581.9893" y1="919.4766" y2="919.4766"/><text fill="#000000" font-family="sans-serif" font-size="13" lengthAdjust="spacing" textLength="130.2603" x="414.4912" y="914.4106">create hash context</text><polygon fill="#181818" points="382.2534,944.6094,372.2534,948.6094,382.2534,952.6094,378.2534,948.6094" style="stroke:#181818;stroke-width:1;"/><line style="stroke:#181818;stroke-width:1;stroke-dasharray:2.0,2.0;" x1="376.2534" x2="586.9893" y1="948.6094" y2="948.6094"/><text fill="#000000" font-family="sans-serif" font-size="13" lengthAdjust="spacing" textLength="97.665" x="430.7888" y="943.5435">context handle</text><polygon fill="#181818" points="62.1118,973.7422,52.1118,977.7422,62.1118,981.7422,58.1118,977.7422" style="stroke:#181818;stroke-width:1;"/><line style="stroke:#181818;stroke-width:1;stroke-dasharray:2.0,2.0;" x1="56.1118" x2="365.2534" y1="977.7422" y2="977.7422"/><text fill="#000000" font-family="sans-serif" font-size="13" lengthAdjust="spacing" textLength="187.2495" x="115.0579" y="972.6763">Result&lt;IHashContext::Uptr&gt;</text><polygon fill="#181818" points="349.2534,1002.875,359.2534,1006.875,349.2534,1010.875,353.2534,1006.875" style="stroke:#181818;stroke-width:1;"/><line style="stroke:#181818;stroke-width:1;" x1="51.1118" x2="355.2534" y1="1006.875" y2="1006.875"/><text fill="#000000" font-family="sans-serif" font-size="13" lengthAdjust="spacing" textLength="127.4292" x="142.468" y="1001.8091">IHashContext::Init()</text><polygon fill="#181818" points="575.9893,1032.0078,585.9893,1036.0078,575.9893,1040.0078,579.9893,1036.0078" style="stroke:#181818;stroke-width:1;"/><line style="stroke:#181818;stroke-width:1;" x1="371.2534" x2="581.9893" y1="1036.0078" y2="1036.0078"/><text fill="#000000" font-family="sans-serif" font-size="13" lengthAdjust="spacing" textLength="125.8359" x="416.7034" y="1030.9419">forward to provider</text><polygon fill="#181818" points="382.2534,1061.1406,372.2534,1065.1406,382.2534,1069.1406,378.2534,1065.1406" style="stroke:#181818;stroke-width:1;"/><line style="stroke:#181818;stroke-width:1;stroke-dasharray:2.0,2.0;" x1="376.2534" x2="586.9893" y1="1065.1406" y2="1065.1406"/><text fill="#000000" font-family="sans-serif" font-size="13" lengthAdjust="spacing" textLength="161.1606" x="399.041" y="1060.0747">Result&lt;std::monostate&gt;</text><polygon fill="#181818" points="62.1118,1090.2734,52.1118,1094.2734,62.1118,1098.2734,58.1118,1094.2734" style="stroke:#181818;stroke-width:1;"/><line style="stroke:#181818;stroke-width:1;stroke-dasharray:2.0,2.0;" x1="56.1118" x2="365.2534" y1="1094.2734" y2="1094.2734"/><text fill="#000000" font-family="sans-serif" font-size="13" lengthAdjust="spacing" textLength="161.1606" x="128.1023" y="1089.2075">Result&lt;std::monostate&gt;</text><polygon fill="#181818" points="349.2534,1119.4063,359.2534,1123.4063,349.2534,1127.4063,353.2534,1123.4063" style="stroke:#181818;stroke-width:1;"/><line style="stroke:#181818;stroke-width:1;" x1="51.1118" x2="355.2534" y1="1123.4063" y2="1123.4063"/><text fill="#000000" font-family="sans-serif" font-size="13" lengthAdjust="spacing" textLength="291.1416" x="60.6118" y="1118.3403">IHashContext::Update(span&lt;const uint8_t&gt;)</text><polygon fill="#181818" points="575.9893,1148.5391,585.9893,1152.5391,575.9893,1156.5391,579.9893,1152.5391" style="stroke:#181818;stroke-width:1;"/><line style="stroke:#181818;stroke-width:1;" x1="371.2534" x2="581.9893" y1="1152.5391" y2="1152.5391"/><text fill="#000000" font-family="sans-serif" font-size="13" lengthAdjust="spacing" textLength="125.8359" x="416.7034" y="1147.4731">forward to provider</text><polygon fill="#181818" points="382.2534,1177.6719,372.2534,1181.6719,382.2534,1185.6719,378.2534,1181.6719" style="stroke:#181818;stroke-width:1;"/><line style="stroke:#181818;stroke-width:1;stroke-dasharray:2.0,2.0;" x1="376.2534" x2="586.9893" y1="1181.6719" y2="1181.6719"/><text fill="#000000" font-family="sans-serif" font-size="13" lengthAdjust="spacing" textLength="161.1606" x="399.041" y="1176.606">Result&lt;std::monostate&gt;</text><polygon fill="#181818" points="62.1118,1206.8047,52.1118,1210.8047,62.1118,1214.8047,58.1118,1210.8047" style="stroke:#181818;stroke-width:1;"/><line style="stroke:#181818;stroke-width:1;stroke-dasharray:2.0,2.0;" x1="56.1118" x2="365.2534" y1="1210.8047" y2="1210.8047"/><text fill="#000000" font-family="sans-serif" font-size="13" lengthAdjust="spacing" textLength="161.1606" x="128.1023" y="1205.7388">Result&lt;std::monostate&gt;</text><polygon fill="#181818" points="349.2534,1235.9375,359.2534,1239.9375,349.2534,1243.9375,353.2534,1239.9375" style="stroke:#181818;stroke-width:1;"/><line style="stroke:#181818;stroke-width:1;" x1="51.1118" x2="355.2534" y1="1239.9375" y2="1239.9375"/><text fill="#000000" font-family="sans-serif" font-size="13" lengthAdjust="spacing" textLength="254.0586" x="79.1533" y="1234.8716">IHashContext::Finalize(span&lt;uint8_t&gt;)</text><polygon fill="#181818" points="575.9893,1265.0703,585.9893,1269.0703,575.9893,1273.0703,579.9893,1269.0703" style="stroke:#181818;stroke-width:1;"/><line style="stroke:#181818;stroke-width:1;" x1="371.2534" x2="581.9893" y1="1269.0703" y2="1269.0703"/><text fill="#000000" font-family="sans-serif" font-size="13" lengthAdjust="spacing" textLength="125.8359" x="416.7034" y="1264.0044">forward to provider</text><polygon fill="#181818" points="382.2534,1294.2031,372.2534,1298.2031,382.2534,1302.2031,378.2534,1298.2031" style="stroke:#181818;stroke-width:1;"/><line style="stroke:#181818;stroke-width:1;stroke-dasharray:2.0,2.0;" x1="376.2534" x2="586.9893" y1="1298.2031" y2="1298.2031"/><text fill="#000000" font-family="sans-serif" font-size="13" lengthAdjust="spacing" textLength="79.9297" x="439.6565" y="1293.1372">digest bytes</text><polygon fill="#181818" points="62.1118,1323.3359,52.1118,1327.3359,62.1118,1331.3359,58.1118,1327.3359" style="stroke:#181818;stroke-width:1;"/><line style="stroke:#181818;stroke-width:1;stroke-dasharray:2.0,2.0;" x1="56.1118" x2="365.2534" y1="1327.3359" y2="1327.3359"/><text fill="#000000" font-family="sans-serif" font-size="13" lengthAdjust="spacing" textLength="99.3408" x="159.0122" y="1322.27">Result&lt;size_t&gt;</text><rect fill="#EEEEEE" height="3" style="stroke:#EEEEEE;stroke-width:1;" width="660.1177" x="0" y="1355.9023"/><line style="stroke:#000000;stroke-width:1;" x1="0" x2="660.1177" y1="1355.9023" y2="1355.9023"/><line style="stroke:#000000;stroke-width:1;" x1="0" x2="660.1177" y1="1358.9023" y2="1358.9023"/><rect fill="#EEEEEE" height="23.1328" style="stroke:#000000;stroke-width:2;" width="77.9272" x="291.0952" y="1345.3359"/><text fill="#000000" font-family="sans-serif" font-size="13" font-weight="bold" lengthAdjust="spacing" textLength="59.4014" x="297.0952" y="1361.4028">Cleanup</text><polygon fill="#181818" points="349.2534,1395.6016,359.2534,1399.6016,349.2534,1403.6016,353.2534,1399.6016" style="stroke:#181818;stroke-width:1;"/><line style="stroke:#181818;stroke-width:1;" x1="51.1118" x2="355.2534" y1="1399.6016" y2="1399.6016"/><text fill="#000000" font-family="sans-serif" font-size="13" lengthAdjust="spacing" textLength="104.2793" x="154.043" y="1394.5356">~ICryptoStack()</text><polygon fill="#181818" points="580.9893,1424.7344,590.9893,1428.7344,580.9893,1432.7344,584.9893,1428.7344" style="stroke:#181818;stroke-width:1;"/><line style="stroke:#181818;stroke-width:1;" x1="366.2534" x2="586.9893" y1="1428.7344" y2="1428.7344"/><text fill="#000000" font-family="sans-serif" font-size="13" lengthAdjust="spacing" textLength="70.459" x="444.3918" y="1423.6685">disconnect</text><!--SRC=[rLRTJjim5BxFKnnniQKQx7gAQAMkYAqQ24H1kq529ZvDBLmxinswSZ7j8VQ4Uv8Tnsv9cvGoQJUxgjESxtpV-NNUNb-SN6HmKtBc4DmCWGjM63O7fy7WL6BkwhyblRSEXfTZu6X5eO0f3a8vD2ntGYiecQC7PG_ftrnMNAY2R9QWS05JPAuoQ44Ro6TC5NGKgdOybNhnFacSS19Xack3C3BBakWzr- -Vl-1wMOgSIRYnh40u9ViaiGz2bSphjFYjGfNZELh_VYYzjXozi8OLSPTQsPNLHoGlGsFq0fofC4d8oebSb4mvE1YMfIH67zK1C0lql6bWlSmico-oBA-rtgfq90MHmfcuDymiUpMG7ZQ1CR8JXlFeEnoJfD-7YMFv0uoLS899yLJpGx-V9CGFHmFl3J9A3kKIWwCQaJRE8wscekWblYIFlg9UWSSHF32HXrmhHMLDuo-ntA7YfQPYDf1HM4GThVcVKK0DmUwbi3FaWOIClDOChj1MqXsF6zAoxAPqPf1mt13d0pyd2hE4ePGwP1tI4-OON4gciDTEmQRRJ-Y2WuZN9krAG4lR5cYNlatc5YWUCRNY2VSadaLRi3DcaCEyTjPEyVWA6VzgXCD0TuK59ML769ssUu897XOU1TndkXxsciJNWxh8uNS7Rpo9haoEzK5MtHsvMOvcVqP7wRw6h24qoTQAhfQBBu0M1vVuOgj5njSLSmjIn_Y8gvZJMmNh18pvuVfC-uY6_-4BBYTIkpsncU0Kti5mT4Qx3sd4qqhmNZjCiqhsIt46pS-oEWVgCxCpk2XfDOTfcZZAy9mMykvXMcSXrCzxM5NFvw7n_BeT4qewyqBoWEjS9NMVlLZN1lFhghe1yDjqN_jDjLamm_qGb4O_2autHqjhb6CTfxslbQRLvt3GhNdRw2_qXeiujNHT75DwwCQjQ2r_k7E3_oY8Kw7y1HR3-9S1S57uhv3x9NsCx91Dl4JMDHKZYKnLPNi4VZGtsBvkuSB6Ax394M_BBTO_]--></g></svg>