<svg xmlns="http://www.w3.org/2000/svg" xmlns:xlink="http://www.w3.org/1999/xlink" contentStyleType="text/css" data-diagram-type="CLASS" height="917px" preserveAspectRatio="none" style="width:3198px;height:917px;background:#FFFFFF;" version="1.1" viewBox="0 0 3198 917" width="3198px" zoomAndPan="magnify"><title>Score Crypto API &#8212; Certificate Operation Contexts</title><defs/><g><text fill="#000000" font-family="sans-serif" font-size="14" font-weight="bold" lengthAdjust="spacing" textLength="398.5215" x="1392.7393" y="22.9951">Score Crypto API &#8212; Certificate Operation Contexts</text><!--cluster Context Base--><g id="cluster_Context Base"><rect fill="transparent" height="867" rx="2.5" ry="2.5" style="stroke:#000000;stroke-width:1.5;" width="3185" x="7" y="44.2969"/><text fill="#000000" font-family="sans-serif" font-size="14" font-weight="bold" lengthAdjust="spacing" textLength="104.5898" x="1547.2051" y="59.292">Context Base</text></g><!--cluster Certificate Management--><g id="cluster_Certificate Management"><rect fill="transparent" height="478" rx="2.5" ry="2.5" style="stroke:#000000;stroke-width:1.5;" width="648" x="1444" y="306.2969"/><text fill="#000000" font-family="sans-serif" font-size="14" font-weight="bold" lengthAdjust="spacing" textLength="190.9141" x="1672.543" y="321.292">Certificate Management</text></g><!--cluster Certificate Verification--><g id="cluster_Certificate Verification"><rect fill="transparent" height="278" rx="2.5" ry="2.5" style="stroke:#000000;stroke-width:1.5;" width="546" x="2116" y="406.2969"/><text fill="#000000" font-family="sans-serif" font-size="14" font-weight="bold" lengthAdjust="spacing" textLength="179.6074" x="2299.1963" y="421.292">Certificate Verification</text></g><!--cluster CSR Generation--><g id="cluster_CSR Generation"><rect fill="transparent" height="213" rx="2.5" ry="2.5" style="stroke:#000000;stroke-width:1.5;" width="482" x="2686" y="438.7969"/><text fill="#000000" font-family="sans-serif" font-size="14" font-weight="bold" lengthAdjust="spacing" textLength="123.8877" x="2865.0562" y="453.792">CSR Generation</text></g><!--cluster Configuration--><g id="cluster_Configuration"><rect fill="transparent" height="552.5" rx="2.5" ry="2.5" style="stroke:#000000;stroke-width:1.5;" width="1389" x="31" y="87.2969"/><text fill="#000000" font-family="sans-serif" font-size="14" font-weight="bold" lengthAdjust="spacing" textLength="108.165" x="671.4175" y="102.292">Configuration</text></g><!--class IContext--><g id="elem_IContext"><rect codeLine="10" fill="#F1F1F1" height="48" id="IContext" rx="2.5" ry="2.5" style="stroke:#181818;stroke-width:0.5;" width="91.2197" x="2343.5" y="847.2969"/><ellipse cx="2358.5" cy="863.2969" fill="#B4A7E5" rx="11" ry="11" style="stroke:#181818;stroke-width:1;"/><path d="M2354.4219,859.0625 L2354.4219,856.9063 L2361.8125,856.9063 L2361.8125,859.0625 L2359.3438,859.0625 L2359.3438,867.1406 L2361.8125,867.1406 L2361.8125,869.2969 L2354.4219,869.2969 L2354.4219,867.1406 L2356.8906,867.1406 L2356.8906,859.0625 L2354.4219,859.0625 Z " fill="#000000"/><text fill="#000000" font-family="sans-serif" font-size="14" font-style="italic" lengthAdjust="spacing" textLength="59.2197" x="2372.5" y="868.1436">IContext</text><line style="stroke:#181818;stroke-width:0.5;" x1="2344.5" x2="2433.7197" y1="879.2969" y2="879.2969"/><line style="stroke:#181818;stroke-width:0.5;" x1="2344.5" x2="2433.7197" y1="887.2969" y2="887.2969"/></g><!--class ICertificateManagementContext--><g id="elem_ICertificateManagementContext"><rect codeLine="17" fill="#F1F1F1" height="426.5313" id="ICertificateManagementContext" rx="2.5" ry="2.5" style="stroke:#181818;stroke-width:0.5;" width="615.6475" x="1460" y="341.2969"/><ellipse cx="1651.4917" cy="357.2969" fill="#B4A7E5" rx="11" ry="11" style="stroke:#181818;stroke-width:1;"/><path d="M1647.4136,353.0625 L1647.4136,350.9063 L1654.8042,350.9063 L1654.8042,353.0625 L1652.3354,353.0625 L1652.3354,361.1406 L1654.8042,361.1406 L1654.8042,363.2969 L1647.4136,363.2969 L1647.4136,361.1406 L1649.8823,361.1406 L1649.8823,353.0625 L1647.4136,353.0625 Z " fill="#000000"/><text fill="#000000" font-family="sans-serif" font-size="14" font-style="italic" lengthAdjust="spacing" textLength="224.1641" x="1671.9917" y="362.1436">ICertificateManagementContext</text><line style="stroke:#181818;stroke-width:0.5;" x1="1461" x2="2074.6475" y1="373.2969" y2="373.2969"/><ellipse cx="1471" cy="407.2422" fill="#84BE84" rx="3" ry="3" style="stroke:#038048;stroke-width:1;"/><text fill="#000000" font-family="sans-serif" font-size="14" lengthAdjust="spacing" textLength="487.498" x="1480" y="410.5889">ParseCertificate(cert_data, format) : Result&lt;ICertificateObject::Uptr&gt;</text><ellipse cx="1471" cy="423.5391" fill="#84BE84" rx="3" ry="3" style="stroke:#038048;stroke-width:1;"/><text fill="#000000" font-family="sans-serif" font-size="14" lengthAdjust="spacing" textLength="562.6592" x="1480" y="426.8857">ParseCertificates(cert_data, format) : Result&lt;vector&lt;ICertificateObject::Uptr&gt;&gt;</text><line style="stroke:#181818;stroke-width:0.5;" x1="1461" x2="1741.9634" y1="389.4453" y2="389.4453"/><text fill="#000000" font-family="sans-serif" font-size="14" lengthAdjust="spacing" textLength="51.7207" x="1741.9634" y="393.792">Parsing</text><line style="stroke:#181818;stroke-width:0.5;" x1="1793.6841" x2="2074.6475" y1="389.4453" y2="389.4453"/><ellipse cx="1471" cy="460.1328" fill="#84BE84" rx="3" ry="3" style="stroke:#038048;stroke-width:1;"/><text fill="#000000" font-family="sans-serif" font-size="14" lengthAdjust="spacing" textLength="352.0986" x="1480" y="463.4795">SaveCertificate(id, slot) : Result&lt;std::monostate&gt;</text><line style="stroke:#181818;stroke-width:0.5;" x1="1461" x2="1665.2231" y1="442.3359" y2="442.3359"/><text fill="#000000" font-family="sans-serif" font-size="14" lengthAdjust="spacing" textLength="205.2012" x="1665.2231" y="446.6826">Persistence (copy semantics)</text><line style="stroke:#181818;stroke-width:0.5;" x1="1870.4243" x2="2074.6475" y1="442.3359" y2="442.3359"/><ellipse cx="1471" cy="496.7266" fill="#84BE84" rx="3" ry="3" style="stroke:#038048;stroke-width:1;"/><text fill="#000000" font-family="sans-serif" font-size="14" lengthAdjust="spacing" textLength="331.3174" x="1480" y="500.0732">GetCertificateExportSize(cert) : Result&lt;size_t&gt;</text><ellipse cx="1471" cy="513.0234" fill="#84BE84" rx="3" ry="3" style="stroke:#038048;stroke-width:1;"/><text fill="#000000" font-family="sans-serif" font-size="14" lengthAdjust="spacing" textLength="388.5615" x="1480" y="516.3701">ExportCertificate(cert, format, output) : Result&lt;size_t&gt;</text><ellipse cx="1471" cy="529.3203" fill="#84BE84" rx="3" ry="3" style="stroke:#038048;stroke-width:1;"/><text fill="#000000" font-family="sans-serif" font-size="14" lengthAdjust="spacing" textLength="421.2305" x="1480" y="532.667">GetConvertedCertificateSize(cert, out_fmt) : Result&lt;size_t&gt;</text><ellipse cx="1471" cy="545.6172" fill="#84BE84" rx="3" ry="3" style="stroke:#038048;stroke-width:1;"/><text fill="#000000" font-family="sans-serif" font-size="14" lengthAdjust="spacing" textLength="516.373" x="1480" y="548.9639">ConvertCertificateFormat(input, in_fmt, out_fmt, output) : Result&lt;size_t&gt;</text><line style="stroke:#181818;stroke-width:0.5;" x1="1461" x2="1744.9097" y1="478.9297" y2="478.9297"/><text fill="#000000" font-family="sans-serif" font-size="14" lengthAdjust="spacing" textLength="45.8281" x="1744.9097" y="483.2764">Export</text><line style="stroke:#181818;stroke-width:0.5;" x1="1790.7378" x2="2074.6475" y1="478.9297" y2="478.9297"/><ellipse cx="1471" cy="582.2109" fill="#84BE84" rx="3" ry="3" style="stroke:#038048;stroke-width:1;"/><text fill="#000000" font-family="sans-serif" font-size="14" lengthAdjust="spacing" textLength="332.6709" x="1480" y="585.5576">ClearCertificate(slot) : Result&lt;std::monostate&gt;</text><ellipse cx="1471" cy="598.5078" fill="#84BE84" rx="3" ry="3" style="stroke:#038048;stroke-width:1;"/><text fill="#000000" font-family="sans-serif" font-size="14" lengthAdjust="spacing" textLength="394.1738" x="1480" y="601.8545">GetCertificateSlotInfo(slot) : Result&lt;CertificateSlotInfo&gt;</text><line style="stroke:#181818;stroke-width:0.5;" x1="1461" x2="1706.0713" y1="564.4141" y2="564.4141"/><text fill="#000000" font-family="sans-serif" font-size="14" lengthAdjust="spacing" textLength="123.5049" x="1706.0713" y="568.7607">Slot Management</text><line style="stroke:#181818;stroke-width:0.5;" x1="1829.5762" x2="2074.6475" y1="564.4141" y2="564.4141"/><ellipse cx="1471" cy="635.1016" fill="#84BE84" rx="3" ry="3" style="stroke:#038048;stroke-width:1;"/><text fill="#000000" font-family="sans-serif" font-size="14" lengthAdjust="spacing" textLength="565.6465" x="1480" y="638.4482">ImportCrl(crl_data, format, issuer_cert, persist) : Result&lt;CryptoResourceGuard&gt;</text><ellipse cx="1471" cy="651.3984" fill="#84BE84" rx="3" ry="3" style="stroke:#038048;stroke-width:1;"/><text fill="#000000" font-family="sans-serif" font-size="14" lengthAdjust="spacing" textLength="280.8613" x="1480" y="654.7451">DeleteCrl(crl) : Result&lt;std::monostate&gt;</text><ellipse cx="1471" cy="667.6953" fill="#84BE84" rx="3" ry="3" style="stroke:#038048;stroke-width:1;"/><text fill="#000000" font-family="sans-serif" font-size="14" lengthAdjust="spacing" textLength="257.4004" x="1480" y="671.042">DeleteExpiredCrls() : Result&lt;size_t&gt;</text><ellipse cx="1471" cy="683.9922" fill="#84BE84" rx="3" ry="3" style="stroke:#038048;stroke-width:1;"/><text fill="#000000" font-family="sans-serif" font-size="14" lengthAdjust="spacing" textLength="310.7002" x="1480" y="687.3389">DeleteExpiredCertificates() : Result&lt;size_t&gt;</text><line style="stroke:#181818;stroke-width:0.5;" x1="1461" x2="1705.8354" y1="617.3047" y2="617.3047"/><text fill="#000000" font-family="sans-serif" font-size="14" lengthAdjust="spacing" textLength="123.9766" x="1705.8354" y="621.6514">CRL Management</text><line style="stroke:#181818;stroke-width:0.5;" x1="1829.812" x2="2074.6475" y1="617.3047" y2="617.3047"/><ellipse cx="1471" cy="720.5859" fill="#84BE84" rx="3" ry="3" style="stroke:#038048;stroke-width:1;"/><text fill="#000000" font-family="sans-serif" font-size="14" lengthAdjust="spacing" textLength="589.6475" x="1480" y="723.9326">LoadCertificatePublicKey(cert) : Result&lt;pair&lt;CryptoResourceGuard, AlgorithmId&gt;&gt;</text><line style="stroke:#181818;stroke-width:0.5;" x1="1461" x2="1716.8242" y1="702.7891" y2="702.7891"/><text fill="#000000" font-family="sans-serif" font-size="14" lengthAdjust="spacing" textLength="101.999" x="1716.8242" y="707.1357">Key Extraction</text><line style="stroke:#181818;stroke-width:0.5;" x1="1818.8232" x2="2074.6475" y1="702.7891" y2="702.7891"/><ellipse cx="1471" cy="757.1797" fill="#84BE84" rx="3" ry="3" style="stroke:#038048;stroke-width:1;"/><text fill="#000000" font-family="sans-serif" font-size="14" lengthAdjust="spacing" textLength="537.5576" x="1480" y="760.5264">GetOcspRequestData(cert, issuer_cert) : Result&lt;IOcspRequestExport::Uptr&gt;</text><line style="stroke:#181818;stroke-width:0.5;" x1="1461" x2="1748.7617" y1="739.3828" y2="739.3828"/><text fill="#000000" font-family="sans-serif" font-size="14" lengthAdjust="spacing" textLength="38.124" x="1748.7617" y="743.7295">OCSP</text><line style="stroke:#181818;stroke-width:0.5;" x1="1786.8857" x2="2074.6475" y1="739.3828" y2="739.3828"/></g><!--class ICertificateVerificationContext--><g id="elem_ICertificateVerificationContext"><rect codeLine="49" fill="#F1F1F1" height="227.2656" id="ICertificateVerificationContext" rx="2.5" ry="2.5" style="stroke:#181818;stroke-width:0.5;" width="513.1016" x="2132.5" y="441.2969"/><ellipse cx="2278.9565" cy="457.2969" fill="#B4A7E5" rx="11" ry="11" style="stroke:#181818;stroke-width:1;"/><path d="M2274.8784,453.0625 L2274.8784,450.9063 L2282.269,450.9063 L2282.269,453.0625 L2279.8003,453.0625 L2279.8003,461.1406 L2282.269,461.1406 L2282.269,463.2969 L2274.8784,463.2969 L2274.8784,461.1406 L2277.3472,461.1406 L2277.3472,453.0625 L2274.8784,453.0625 Z " fill="#000000"/><text fill="#000000" font-family="sans-serif" font-size="14" font-style="italic" lengthAdjust="spacing" textLength="211.6885" x="2299.4565" y="462.1436">ICertificateVerificationContext</text><line style="stroke:#181818;stroke-width:0.5;" x1="2133.5" x2="2644.6016" y1="473.2969" y2="473.2969"/><ellipse cx="2143.5" cy="507.2422" fill="#84BE84" rx="3" ry="3" style="stroke:#038048;stroke-width:1;"/><text fill="#000000" font-family="sans-serif" font-size="14" lengthAdjust="spacing" textLength="321.3643" x="2152.5" y="510.5889">SetCertificate(cert) : Result&lt;std::monostate&gt;</text><ellipse cx="2143.5" cy="523.5391" fill="#84BE84" rx="3" ry="3" style="stroke:#038048;stroke-width:1;"/><text fill="#000000" font-family="sans-serif" font-size="14" lengthAdjust="spacing" textLength="371.7109" x="2152.5" y="526.8857">SetCertificateChain(chain) : Result&lt;std::monostate&gt;</text><ellipse cx="2143.5" cy="539.8359" fill="#84BE84" rx="3" ry="3" style="stroke:#038048;stroke-width:1;"/><text fill="#000000" font-family="sans-serif" font-size="14" lengthAdjust="spacing" textLength="449.7295" x="2152.5" y="543.1826">SetVerificationTrustStore(trust_store) : Result&lt;std::monostate&gt;</text><ellipse cx="2143.5" cy="556.1328" fill="#84BE84" rx="3" ry="3" style="stroke:#038048;stroke-width:1;"/><text fill="#000000" font-family="sans-serif" font-size="14" lengthAdjust="spacing" textLength="487.1016" x="2152.5" y="559.4795">SetAdditionalTrustAnchors(anchors : span) : Result&lt;std::monostate&gt;</text><ellipse cx="2143.5" cy="572.4297" fill="#84BE84" rx="3" ry="3" style="stroke:#038048;stroke-width:1;"/><text fill="#000000" font-family="sans-serif" font-size="14" lengthAdjust="spacing" textLength="426.2822" x="2152.5" y="575.7764">SetOcspResponse(response_data) : Result&lt;std::monostate&gt;</text><ellipse cx="2143.5" cy="588.7266" fill="#84BE84" rx="3" ry="3" style="stroke:#038048;stroke-width:1;"/><text fill="#000000" font-family="sans-serif" font-size="14" lengthAdjust="spacing" textLength="257.8516" x="2152.5" y="592.0732">SetCrl(crl) : Result&lt;std::monostate&gt;</text><ellipse cx="2143.5" cy="605.0234" fill="#84BE84" rx="3" ry="3" style="stroke:#038048;stroke-width:1;"/><text fill="#000000" font-family="sans-serif" font-size="14" lengthAdjust="spacing" textLength="442.3877" x="2152.5" y="608.3701">SetVerificationTime(epoch_seconds) : Result&lt;std::monostate&gt;</text><ellipse cx="2143.5" cy="621.3203" fill="#84BE84" rx="3" ry="3" style="stroke:#038048;stroke-width:1;"/><text fill="#000000" font-family="sans-serif" font-size="14" lengthAdjust="spacing" textLength="424.4229" x="2152.5" y="624.667">SetRevocationCheckPolicy(policy) : Result&lt;std::monostate&gt;</text><line style="stroke:#181818;stroke-width:0.5;" x1="2133.5" x2="2341.5786" y1="489.4453" y2="489.4453"/><text fill="#000000" font-family="sans-serif" font-size="14" lengthAdjust="spacing" textLength="94.9443" x="2341.5786" y="493.792">Configuration</text><line style="stroke:#181818;stroke-width:0.5;" x1="2436.5229" x2="2644.6016" y1="489.4453" y2="489.4453"/><ellipse cx="2143.5" cy="657.9141" fill="#84BE84" rx="3" ry="3" style="stroke:#038048;stroke-width:1;"/><text fill="#000000" font-family="sans-serif" font-size="14" lengthAdjust="spacing" textLength="247.5088" x="2152.5" y="661.2607">Verify() : Result&lt;CertVerifyResult&gt;</text><line style="stroke:#181818;stroke-width:0.5;" x1="2133.5" x2="2354.4849" y1="640.1172" y2="640.1172"/><text fill="#000000" font-family="sans-serif" font-size="14" lengthAdjust="spacing" textLength="69.1318" x="2354.4849" y="644.4639">Execution</text><line style="stroke:#181818;stroke-width:0.5;" x1="2423.6167" x2="2644.6016" y1="640.1172" y2="640.1172"/></g><!--class ICsrGenerationContext--><g id="elem_ICsrGenerationContext"><rect codeLine="70" fill="#F1F1F1" height="162.0781" id="ICsrGenerationContext" rx="2.5" ry="2.5" style="stroke:#181818;stroke-width:0.5;" width="451.0654" x="2701.5" y="473.7969"/><ellipse cx="2842.71" cy="489.7969" fill="#B4A7E5" rx="11" ry="11" style="stroke:#181818;stroke-width:1;"/><path d="M2838.6318,485.5625 L2838.6318,483.4063 L2846.0225,483.4063 L2846.0225,485.5625 L2843.5537,485.5625 L2843.5537,493.6406 L2846.0225,493.6406 L2846.0225,495.7969 L2838.6318,495.7969 L2838.6318,493.6406 L2841.1006,493.6406 L2841.1006,485.5625 L2838.6318,485.5625 Z " fill="#000000"/><text fill="#000000" font-family="sans-serif" font-size="14" font-style="italic" lengthAdjust="spacing" textLength="160.1455" x="2863.21" y="494.6436">ICsrGenerationContext</text><line style="stroke:#181818;stroke-width:0.5;" x1="2702.5" x2="3151.5654" y1="505.7969" y2="505.7969"/><ellipse cx="2712.5" cy="539.7422" fill="#84BE84" rx="3" ry="3" style="stroke:#038048;stroke-width:1;"/><text fill="#000000" font-family="sans-serif" font-size="14" lengthAdjust="spacing" textLength="324.5088" x="2721.5" y="543.0889">SetSubjectKey(key) : Result&lt;std::monostate&gt;</text><ellipse cx="2712.5" cy="556.0391" fill="#84BE84" rx="3" ry="3" style="stroke:#038048;stroke-width:1;"/><text fill="#000000" font-family="sans-serif" font-size="14" lengthAdjust="spacing" textLength="425.0654" x="2721.5" y="559.3857">SetSignatureAlgorithm(algorithm) : Result&lt;std::monostate&gt;</text><ellipse cx="2712.5" cy="572.3359" fill="#84BE84" rx="3" ry="3" style="stroke:#038048;stroke-width:1;"/><text fill="#000000" font-family="sans-serif" font-size="14" lengthAdjust="spacing" textLength="310.8369" x="2721.5" y="575.6826">SetSubjectDn(dn) : Result&lt;std::monostate&gt;</text><ellipse cx="2712.5" cy="588.6328" fill="#84BE84" rx="3" ry="3" style="stroke:#038048;stroke-width:1;"/><text fill="#000000" font-family="sans-serif" font-size="14" lengthAdjust="spacing" textLength="362.79" x="2721.5" y="591.9795">AddSubjectAltName(san) : Result&lt;std::monostate&gt;</text><line style="stroke:#181818;stroke-width:0.5;" x1="2702.5" x2="2879.5605" y1="521.9453" y2="521.9453"/><text fill="#000000" font-family="sans-serif" font-size="14" lengthAdjust="spacing" textLength="94.9443" x="2879.5605" y="526.292">Configuration</text><line style="stroke:#181818;stroke-width:0.5;" x1="2974.5049" x2="3151.5654" y1="521.9453" y2="521.9453"/><ellipse cx="2712.5" cy="625.2266" fill="#84BE84" rx="3" ry="3" style="stroke:#038048;stroke-width:1;"/><text fill="#000000" font-family="sans-serif" font-size="14" lengthAdjust="spacing" textLength="269.8691" x="2721.5" y="628.5732">Generate() : Result&lt;ICsrExport::Uptr&gt;</text><line style="stroke:#181818;stroke-width:0.5;" x1="2702.5" x2="2892.4668" y1="607.4297" y2="607.4297"/><text fill="#000000" font-family="sans-serif" font-size="14" lengthAdjust="spacing" textLength="69.1318" x="2892.4668" y="611.7764">Execution</text><line style="stroke:#181818;stroke-width:0.5;" x1="2961.5986" x2="3151.5654" y1="607.4297" y2="607.4297"/></g><!--class BaseContextConfig--><g id="elem_BaseContextConfig"><rect codeLine="87" fill="#F1F1F1" height="137.75" id="BaseContextConfig" rx="2.5" ry="2.5" style="stroke:#181818;stroke-width:0.5;" width="335.0117" x="543.5" y="485.7969"/><ellipse cx="639.7056" cy="505.9297" fill="#ADD1B2" rx="11" ry="11" style="stroke:#181818;stroke-width:1;"/><path d="M642.6743,511.5703 Q642.0962,511.8672 641.4556,512.0078 Q640.8149,512.1641 640.1118,512.1641 Q637.6118,512.1641 636.2837,510.5234 Q634.9712,508.8672 634.9712,505.7422 Q634.9712,502.6172 636.2837,500.9609 Q637.6118,499.3047 640.1118,499.3047 Q640.8149,499.3047 641.4556,499.4609 Q642.1118,499.6172 642.6743,499.9141 L642.6743,502.6328 Q642.0493,502.0547 641.4556,501.7891 Q640.8618,501.5078 640.2368,501.5078 Q638.8931,501.5078 638.2056,502.5859 Q637.5181,503.6484 637.5181,505.7422 Q637.5181,507.8359 638.2056,508.9141 Q638.8931,509.9766 640.2368,509.9766 Q640.8618,509.9766 641.4556,509.7109 Q642.0493,509.4297 642.6743,508.8516 L642.6743,511.5703 Z " fill="#000000"/><text fill="#000000" font-family="sans-serif" font-size="12" font-style="italic" lengthAdjust="spacing" textLength="49.6113" x="702.4502" y="501.9355">&#171;struct&#187;</text><text fill="#000000" font-family="sans-serif" font-size="14" lengthAdjust="spacing" textLength="134.1006" x="660.2056" y="517.7607">BaseContextConfig</text><line style="stroke:#181818;stroke-width:0.5;" x1="544.5" x2="877.5117" y1="526.0625" y2="526.0625"/><ellipse cx="554.5" cy="539.7109" fill="transparent" rx="3" ry="3" style="stroke:#038048;stroke-width:1;"/><text fill="#000000" font-family="sans-serif" font-size="14" lengthAdjust="spacing" textLength="162.7637" x="563.5" y="543.0576">algorithm : AlgorithmId</text><ellipse cx="554.5" cy="556.0078" fill="transparent" rx="3" ry="3" style="stroke:#038048;stroke-width:1;"/><text fill="#000000" font-family="sans-serif" font-size="14" lengthAdjust="spacing" textLength="277.3682" x="563.5" y="559.3545">provider : optional&lt;CryptoResourceId&gt;</text><ellipse cx="554.5" cy="572.3047" fill="transparent" rx="3" ry="3" style="stroke:#038048;stroke-width:1;"/><text fill="#000000" font-family="sans-serif" font-size="14" lengthAdjust="spacing" textLength="283.2607" x="563.5" y="575.6514">provider_type : optional&lt;ProviderType&gt;</text><ellipse cx="554.5" cy="588.6016" fill="transparent" rx="3" ry="3" style="stroke:#038048;stroke-width:1;"/><text fill="#000000" font-family="sans-serif" font-size="14" lengthAdjust="spacing" textLength="309.0117" x="563.5" y="591.9482">operation_timeout : optional&lt;milliseconds&gt;</text><ellipse cx="554.5" cy="604.8984" fill="transparent" rx="3" ry="3" style="stroke:#038048;stroke-width:1;"/><text fill="#000000" font-family="sans-serif" font-size="14" lengthAdjust="spacing" textLength="161.4238" x="563.5" y="608.2451">timeout_enabled : bool</text><line style="stroke:#181818;stroke-width:0.5;" x1="544.5" x2="877.5117" y1="615.5469" y2="615.5469"/></g><!--class CertificateContextConfig--><g id="elem_CertificateContextConfig"><rect codeLine="95" fill="#F1F1F1" height="88.8594" id="CertificateContextConfig" rx="2.5" ry="2.5" style="stroke:#181818;stroke-width:0.5;" width="380.9834" x="46.5" y="138.2969"/><ellipse cx="146.3765" cy="158.4297" fill="#ADD1B2" rx="11" ry="11" style="stroke:#181818;stroke-width:1;"/><path d="M149.3452,164.0703 Q148.7671,164.3672 148.1265,164.5078 Q147.4858,164.6641 146.7827,164.6641 Q144.2827,164.6641 142.9546,163.0234 Q141.6421,161.3672 141.6421,158.2422 Q141.6421,155.1172 142.9546,153.4609 Q144.2827,151.8047 146.7827,151.8047 Q147.4858,151.8047 148.1265,151.9609 Q148.7827,152.1172 149.3452,152.4141 L149.3452,155.1328 Q148.7202,154.5547 148.1265,154.2891 Q147.5327,154.0078 146.9077,154.0078 Q145.564,154.0078 144.8765,155.0859 Q144.189,156.1484 144.189,158.2422 Q144.189,160.3359 144.8765,161.4141 Q145.564,162.4766 146.9077,162.4766 Q147.5327,162.4766 148.1265,162.2109 Q148.7202,161.9297 149.3452,161.3516 L149.3452,164.0703 Z " fill="#000000"/><text fill="#000000" font-family="sans-serif" font-size="12" font-style="italic" lengthAdjust="spacing" textLength="49.6113" x="228.436" y="154.4355">&#171;struct&#187;</text><text fill="#000000" font-family="sans-serif" font-size="14" lengthAdjust="spacing" textLength="172.7305" x="166.8765" y="170.2607">CertificateContextConfig</text><line style="stroke:#181818;stroke-width:0.5;" x1="47.5" x2="426.4834" y1="178.5625" y2="178.5625"/><line style="stroke:#181818;stroke-width:0.5;" x1="47.5" x2="426.4834" y1="186.5625" y2="186.5625"/><ellipse cx="57.5" cy="200.2109" fill="#84BE84" rx="3" ry="3" style="stroke:#038048;stroke-width:1;"/><text fill="#000000" font-family="sans-serif" font-size="14" lengthAdjust="spacing" textLength="320.8652" x="66.5" y="203.5576">SetProvider(prov) : CertificateContextConfig&amp;</text><ellipse cx="57.5" cy="216.5078" fill="#84BE84" rx="3" ry="3" style="stroke:#038048;stroke-width:1;"/><text fill="#000000" font-family="sans-serif" font-size="14" lengthAdjust="spacing" textLength="354.9834" x="66.5" y="219.8545">SetProviderType(type) : CertificateContextConfig&amp;</text></g><!--class CertificateVerificationContextConfig--><g id="elem_CertificateVerificationContextConfig"><rect codeLine="100" fill="#F1F1F1" height="121.4531" id="CertificateVerificationContextConfig" rx="2.5" ry="2.5" style="stroke:#181818;stroke-width:0.5;" width="497.1943" x="462.5" y="122.2969"/><ellipse cx="580.6079" cy="142.4297" fill="#ADD1B2" rx="11" ry="11" style="stroke:#181818;stroke-width:1;"/><path d="M583.5767,148.0703 Q582.9985,148.3672 582.3579,148.5078 Q581.7173,148.6641 581.0142,148.6641 Q578.5142,148.6641 577.186,147.0234 Q575.8735,145.3672 575.8735,142.2422 Q575.8735,139.1172 577.186,137.4609 Q578.5142,135.8047 581.0142,135.8047 Q581.7173,135.8047 582.3579,135.9609 Q583.0142,136.1172 583.5767,136.4141 L583.5767,139.1328 Q582.9517,138.5547 582.3579,138.2891 Q581.7642,138.0078 581.1392,138.0078 Q579.7954,138.0078 579.1079,139.0859 Q578.4204,140.1484 578.4204,142.2422 Q578.4204,144.3359 579.1079,145.4141 Q579.7954,146.4766 581.1392,146.4766 Q581.7642,146.4766 582.3579,146.2109 Q582.9517,145.9297 583.5767,145.3516 L583.5767,148.0703 Z " fill="#000000"/><text fill="#000000" font-family="sans-serif" font-size="12" font-style="italic" lengthAdjust="spacing" textLength="49.6113" x="702.5415" y="138.4355">&#171;struct&#187;</text><text fill="#000000" font-family="sans-serif" font-size="14" lengthAdjust="spacing" textLength="252.4785" x="601.1079" y="154.2607">CertificateVerificationContextConfig</text><line style="stroke:#181818;stroke-width:0.5;" x1="463.5" x2="958.6943" y1="162.5625" y2="162.5625"/><ellipse cx="473.5" cy="176.2109" fill="transparent" rx="3" ry="3" style="stroke:#038048;stroke-width:1;"/><text fill="#000000" font-family="sans-serif" font-size="14" lengthAdjust="spacing" textLength="378.4648" x="482.5" y="179.5576">revocation_policy : optional&lt;RevocationCheckPolicy&gt;</text><line style="stroke:#181818;stroke-width:1;" x1="463.5" x2="958.6943" y1="186.8594" y2="186.8594"/><ellipse cx="473.5" cy="200.5078" fill="#84BE84" rx="3" ry="3" style="stroke:#038048;stroke-width:1;"/><text fill="#000000" font-family="sans-serif" font-size="14" lengthAdjust="spacing" textLength="471.1943" x="482.5" y="203.8545">SetRevocationPolicy(policy) : CertificateVerificationContextConfig&amp;</text><ellipse cx="473.5" cy="216.8047" fill="#84BE84" rx="3" ry="3" style="stroke:#038048;stroke-width:1;"/><text fill="#000000" font-family="sans-serif" font-size="14" lengthAdjust="spacing" textLength="400.6133" x="482.5" y="220.1514">SetProvider(prov) : CertificateVerificationContextConfig&amp;</text><ellipse cx="473.5" cy="233.1016" fill="#84BE84" rx="3" ry="3" style="stroke:#038048;stroke-width:1;"/><text fill="#000000" font-family="sans-serif" font-size="14" lengthAdjust="spacing" textLength="434.7314" x="482.5" y="236.4482">SetProviderType(type) : CertificateVerificationContextConfig&amp;</text></g><!--class CsrGenerationContextConfig--><g id="elem_CsrGenerationContextConfig"><rect codeLine="108" fill="#F1F1F1" height="105.1563" id="CsrGenerationContextConfig" rx="2.5" ry="2.5" style="stroke:#181818;stroke-width:0.5;" width="409.1885" x="994.5" y="130.2969"/><ellipse cx="1094.3765" cy="150.4297" fill="#ADD1B2" rx="11" ry="11" style="stroke:#181818;stroke-width:1;"/><path d="M1097.3452,156.0703 Q1096.7671,156.3672 1096.1265,156.5078 Q1095.4858,156.6641 1094.7827,156.6641 Q1092.2827,156.6641 1090.9546,155.0234 Q1089.6421,153.3672 1089.6421,150.2422 Q1089.6421,147.1172 1090.9546,145.4609 Q1092.2827,143.8047 1094.7827,143.8047 Q1095.4858,143.8047 1096.1265,143.9609 Q1096.7827,144.1172 1097.3452,144.4141 L1097.3452,147.1328 Q1096.7202,146.5547 1096.1265,146.2891 Q1095.5327,146.0078 1094.9077,146.0078 Q1093.564,146.0078 1092.8765,147.0859 Q1092.189,148.1484 1092.189,150.2422 Q1092.189,152.3359 1092.8765,153.4141 Q1093.564,154.4766 1094.9077,154.4766 Q1095.5327,154.4766 1096.1265,154.2109 Q1096.7202,153.9297 1097.3452,153.3516 L1097.3452,156.0703 Z " fill="#000000"/><text fill="#000000" font-family="sans-serif" font-size="12" font-style="italic" lengthAdjust="spacing" textLength="49.6113" x="1190.5386" y="146.4355">&#171;struct&#187;</text><text fill="#000000" font-family="sans-serif" font-size="14" lengthAdjust="spacing" textLength="200.9355" x="1114.8765" y="162.2607">CsrGenerationContextConfig</text><line style="stroke:#181818;stroke-width:0.5;" x1="995.5" x2="1402.6885" y1="170.5625" y2="170.5625"/><line style="stroke:#181818;stroke-width:0.5;" x1="995.5" x2="1402.6885" y1="178.5625" y2="178.5625"/><ellipse cx="1005.5" cy="192.2109" fill="#84BE84" rx="3" ry="3" style="stroke:#038048;stroke-width:1;"/><text fill="#000000" font-family="sans-serif" font-size="14" lengthAdjust="spacing" textLength="349.3027" x="1014.5" y="195.5576">SetAlgorithm(alg) : CsrGenerationContextConfig&amp;</text><ellipse cx="1005.5" cy="208.5078" fill="#84BE84" rx="3" ry="3" style="stroke:#038048;stroke-width:1;"/><text fill="#000000" font-family="sans-serif" font-size="14" lengthAdjust="spacing" textLength="349.0703" x="1014.5" y="211.8545">SetProvider(prov) : CsrGenerationContextConfig&amp;</text><ellipse cx="1005.5" cy="224.8047" fill="#84BE84" rx="3" ry="3" style="stroke:#038048;stroke-width:1;"/><text fill="#000000" font-family="sans-serif" font-size="14" lengthAdjust="spacing" textLength="383.1885" x="1014.5" y="228.1514">SetProviderType(type) : CsrGenerationContextConfig&amp;</text></g><!--link ICertificateManagementContext to IContext--><g id="link_ICertificateManagementContext_IContext"><path codeLine="42" d="M2068.77,768.4169 C2084.49,776.9169 2100.29,784.9469 2116,792.2969 C2192.12,827.9069 2270.308,847.1146 2325.818,858.3546 " fill="transparent" id="ICertificateManagementContext-to-IContext" style="stroke:#181818;stroke-width:1;"/><polygon fill="transparent" points="2343.46,861.9269,2327.0088,852.474,2324.6273,864.2353,2343.46,861.9269" style="stroke:#181818;stroke-width:1;"/><text fill="#000000" font-family="sans-serif" font-size="13" lengthAdjust="spacing" textLength="48.915" x="2174" y="813.3638">inherits</text></g><!--link ICertificateVerificationContext to IContext--><g id="link_ICertificateVerificationContext_IContext"><path codeLine="63" d="M2389,668.4469 C2389,733.4869 2389,791.6169 2389,829.0769 " fill="transparent" id="ICertificateVerificationContext-to-IContext" style="stroke:#181818;stroke-width:1;"/><polygon fill="transparent" points="2389,847.0769,2395,829.0769,2383,829.0769,2389,847.0769" style="stroke:#181818;stroke-width:1;"/><text fill="#000000" font-family="sans-serif" font-size="13" lengthAdjust="spacing" textLength="48.915" x="2390" y="813.3638">inherits</text></g><!--link ICsrGenerationContext to IContext--><g id="link_ICsrGenerationContext_IContext"><path codeLine="80" d="M2855.6,636.0169 C2805.91,687.3869 2735.59,751.7569 2662,792.2969 C2588.17,832.9669 2508.9062,851.095 2452.6362,860.645 " fill="transparent" id="ICsrGenerationContext-to-IContext" style="stroke:#181818;stroke-width:1;"/><polygon fill="transparent" points="2434.89,863.6569,2453.6402,866.5604,2451.6323,854.7296,2434.89,863.6569" style="stroke:#181818;stroke-width:1;"/><text fill="#000000" font-family="sans-serif" font-size="13" lengthAdjust="spacing" textLength="48.915" x="2642" y="813.3638">inherits</text></g><!--link CertificateContextConfig to BaseContextConfig--><g id="link_CertificateContextConfig_BaseContextConfig"><path codeLine="114" d="M292.77,227.3269 C374.38,291.0369 512.9311,399.191 609.5111,474.581 " fill="transparent" id="CertificateContextConfig-to-BaseContextConfig" style="stroke:#181818;stroke-width:1;"/><polygon fill="transparent" points="623.7,485.6569,613.203,469.8514,605.8191,479.3107,623.7,485.6569" style="stroke:#181818;stroke-width:1;"/><text fill="#000000" font-family="sans-serif" font-size="13" lengthAdjust="spacing" textLength="48.915" x="365" y="286.3638">inherits</text></g><!--link CertificateVerificationContextConfig to BaseContextConfig--><g id="link_CertificateVerificationContextConfig_BaseContextConfig"><path codeLine="115" d="M711,243.6569 C711,309.8169 711,398.1869 711,467.5369 " fill="transparent" id="CertificateVerificationContextConfig-to-BaseContextConfig" style="stroke:#181818;stroke-width:1;"/><polygon fill="transparent" points="711,485.5369,717,467.5369,705,467.5369,711,485.5369" style="stroke:#181818;stroke-width:1;"/><text fill="#000000" font-family="sans-serif" font-size="13" lengthAdjust="spacing" textLength="48.915" x="712" y="286.3638">inherits</text></g><!--link CsrGenerationContextConfig to BaseContextConfig--><g id="link_CsrGenerationContextConfig_BaseContextConfig"><path codeLine="116" d="M1105.2,235.3169 C1085.26,247.1869 1064.62,260.1969 1046,273.2969 C951.55,339.7569 864.3412,414.3487 798.3212,473.6487 " fill="transparent" id="CsrGenerationContextConfig-to-BaseContextConfig" style="stroke:#181818;stroke-width:1;"/><polygon fill="transparent" points="784.93,485.6769,802.3306,478.1125,794.3118,469.185,784.93,485.6769" style="stroke:#181818;stroke-width:1;"/><text fill="#000000" font-family="sans-serif" font-size="13" lengthAdjust="spacing" textLength="48.915" x="1047" y="286.3638">inherits</text></g><!--link CertificateContextConfig to ICertificateManagementContext--><g id="link_CertificateContextConfig_ICertificateManagementContext"><path codeLine="122" d="M371.91,227.2969 C396.03,233.6669 421.09,239.3869 445,243.2969 C732.59,290.3569 812.56,225.3069 1100,273.2969 C1126.5,277.7169 1131.47,286.0769 1158,290.2969 C1186.76,294.8769 1392.46,288.8069 1420,298.2969 C1451.62,309.1969 1477.5823,321.077 1507.5023,338.197 " fill="transparent" id="CertificateContextConfig-to-ICertificateManagementContext" style="stroke:#181818;stroke-width:1;stroke-dasharray:7.0,7.0;"/><polygon fill="#181818" points="1512.71,341.1769,1506.8849,333.2353,1508.3702,338.6937,1502.9118,340.179,1512.71,341.1769" style="stroke:#181818;stroke-width:1;"/><text fill="#000000" font-family="sans-serif" font-size="13" lengthAdjust="spacing" textLength="68.1357" x="1159" y="286.3638">configures</text></g><!--link CertificateVerificationContextConfig to ICertificateVerificationContext--><g id="link_CertificateVerificationContextConfig_ICertificateVerificationContext"><path codeLine="123" d="M959.69,240.2569 C965.51,241.3069 971.29,242.3269 977,243.2969 C1089.5,262.4469 1120.94,247.0469 1232,273.2969 C1253.62,278.4069 1257.14,286.3569 1279,290.2969 C1323.45,298.3169 2049.73,282.3769 2092,298.2969 C2169.66,327.5369 2236.5479,382.6541 2289.6979,436.8241 " fill="transparent" id="CertificateVerificationContextConfig-to-ICertificateVerificationContext" style="stroke:#181818;stroke-width:1;stroke-dasharray:7.0,7.0;"/><polygon fill="#181818" points="2293.9,441.1069,2290.452,431.8813,2290.3982,437.5379,2284.7416,437.4841,2293.9,441.1069" style="stroke:#181818;stroke-width:1;"/><text fill="#000000" font-family="sans-serif" font-size="13" lengthAdjust="spacing" textLength="68.1357" x="1280" y="286.3638">configures</text></g><!--link CsrGenerationContextConfig to ICsrGenerationContext--><g id="link_CsrGenerationContextConfig_ICsrGenerationContext"><path codeLine="124" d="M1403.78,182.9369 C1751.93,184.2469 2442.79,199.7069 2662,298.2969 C2746.95,336.4969 2817.3058,409.3545 2865.3858,469.0345 " fill="transparent" id="CsrGenerationContextConfig-to-ICsrGenerationContext" style="stroke:#181818;stroke-width:1;stroke-dasharray:7.0,7.0;"/><polygon fill="#181818" points="2869.15,473.7069,2866.6186,464.1889,2866.0132,469.8132,2860.3888,469.2078,2869.15,473.7069" style="stroke:#181818;stroke-width:1;"/><text fill="#000000" font-family="sans-serif" font-size="13" lengthAdjust="spacing" textLength="68.1357" x="2623" y="286.3638">configures</text></g><!--SRC=[jLVRZjis47ttLn1vIBN8EXzWf0PSRniOJRk6bVPLeAcnpQv4iYHbnBq0-OX-OR-aeujjKfPaRjUhXpMNufoPEHoUeIot6P2OIGrahW_AIZ9RBiY_N_yXSz2MRpYZ5iYZ0aqjbuBCfR3mnPhHo3nneQYcEL6KFT4jnFQ0M1gOfMARmMZq3Vds1G-QDyx8TzG0YUXwhM7FCPwKRAH6JnlG81ZSlTHJam1vupfyG_uS4NmuJkaDPK0MnzVrYxzlaQ53yazKO10v27kxV3hXkp8xBpolyzCjdoGXIweD5riSdcRVLPFWO4GCnqbABRqljogdzevCo0fCaTaFhhF7zMzOBvF9ByhgwG2W6KJS8uRK_S1JBm7018mj2uT4JAe3CP1JOJapTtvMCTrxIV7qdfXCkfwDJIUJN0ffBAxm_7p_HKbjVSIFO1t0UaNC_wZvSc5nBh4k8VNQDiL7Bkw9BAmgXY5AvrBiqGnI1-Zalm99DlamIWFX0FnGXH2X6XI8mKK9SS8AY0ovYf5Lfq1zqkOPKErc7hW7RRfB9mknaMtxZYLUSFFLfzxO5dcrBJgBcCwyyaGcZ2b09pMrgguwrsqbj_YFB3I3ZmNLgHlx0sHWeK4EohQsm4BX6ZTOPoOQt4X_kNlKXlVgHpXWDLfDMTKGF3e-IUf2BOjrnXaQjEjRKQwx2BWdismhDRUxV97wn_Pn7Yyl3jCZCse5lnTWx0DotvInGxmhEyxY-ZIvieDYNluC2-5u_DVqt0KcMEixm63DwDQju5U4hOR8yAiq0zV1S3jmLtOs19pSy6tHt0zy0OKBnGggPDzklgDSHApy6shj1lrP5yR6s1yWikKmCUKu56cMfhn4eLc5CnDi9xM9QFsB84RHuB3g2ZHA2WEHRWQLQWJJyWmzQFF0SuX0IRPB330fKXEAieAzR0fW1-nfAV5G7o9L_OJsGc35PNrKuHsYbXRNi_L4x-7iAilNFPxn2XL7DFVWsnrA3xRhA1fzVly_3c1SL3UXKeIVu12wvJ7V2ceB3ISzZkXn58nHUtuGKHfsGl2iDJQppFvCiLnDqDdgBx26EOYywwVH0_hVHVVh5fQtVUM7ZIlKf- -j6txYdDqTwurbr9ZggwVnLwyY7v1pNJ0xdJebzuwSIW6vS1gsiq9fkUSfQ5mWLQsVhNw_y6uxn_M9FIXmZPRDYyyuxnh8unTfOb7Ny8xf6kKyotWZSgvHipG1GTSPVaLEo5hApDt_cWYt-OJmWSL-Z3CgCochhG_ZRRTTcLzK9d_TjY_K3aaS3bkVT3sfnTpbi5FqpsIEn-E-9d7H7q9YV1jEvtCn-gYzWkFJt24BLsl2qyxAUI_ArVIVQ-adVSMwIRMtx2lzkrG7HmXRvlsb60ZLJ_TrW5k8yWgoohVPSVLYxUtbzVtxwPKlZWbXZLw36GKHtCRikYZvgFrSrrXT7T53-0y0]--></g></svg>