<svg xmlns="http://www.w3.org/2000/svg" xmlns:xlink="http://www.w3.org/1999/xlink" contentStyleType="text/css" data-diagram-type="CLASS" height="1206px" preserveAspectRatio="none" style="width:2771px;height:1206px;background:#FFFFFF;" version="1.1" viewBox="0 0 2771 1206" width="2771px" zoomAndPan="magnify"><title>Score Crypto API &#8212; Crypto Operation Contexts</title><defs/><g><text fill="#000000" font-family="sans-serif" font-size="14" font-weight="bold" lengthAdjust="spacing" textLength="368.1699" x="1194.415" y="22.9951">Score Crypto API &#8212; Crypto Operation Contexts</text><!--cluster Context Base Hierarchy--><g id="cluster_Context Base Hierarchy"><rect fill="transparent" height="910" rx="2.5" ry="2.5" style="stroke:#000000;stroke-width:1.5;" width="560" x="1013" y="290.2969"/><text fill="#000000" font-family="sans-serif" font-size="14" font-weight="bold" lengthAdjust="spacing" textLength="186.1221" x="1199.939" y="305.292">Context Base Hierarchy</text></g><!--cluster Hash & MAC--><g id="cluster_Hash &amp; MAC"><rect fill="transparent" height="148" rx="2.5" ry="2.5" style="stroke:#000000;stroke-width:1.5;" width="771" x="1005" y="68.7969"/><text fill="#000000" font-family="sans-serif" font-size="14" font-weight="bold" lengthAdjust="spacing" textLength="96.4619" x="1342.269" y="83.792">Hash &amp; MAC</text></g><!--cluster Cipher & AEAD--><g id="cluster_Cipher &amp; AEAD"><rect fill="transparent" height="197" rx="2.5" ry="2.5" style="stroke:#000000;stroke-width:1.5;" width="974" x="7" y="44.2969"/><text fill="#000000" font-family="sans-serif" font-size="14" font-weight="bold" lengthAdjust="spacing" textLength="116.2725" x="435.8638" y="59.292">Cipher &amp; AEAD</text></g><!--cluster Signature--><g id="cluster_Signature"><rect fill="transparent" height="164" rx="2.5" ry="2.5" style="stroke:#000000;stroke-width:1.5;" width="965" x="1800" y="60.7969"/><text fill="#000000" font-family="sans-serif" font-size="14" font-weight="bold" lengthAdjust="spacing" textLength="77.376" x="2243.812" y="75.792">Signature</text></g><!--cluster Key Management & Random--><g id="cluster_Key Management &amp; Random"><rect fill="transparent" height="604" rx="2.5" ry="2.5" style="stroke:#000000;stroke-width:1.5;" width="1131" x="1597" y="469.2969"/><text fill="#000000" font-family="sans-serif" font-size="14" font-weight="bold" lengthAdjust="spacing" textLength="223.7744" x="2050.6128" y="484.292">Key Management &amp; Random</text></g><!--class IContext--><g id="elem_IContext"><rect codeLine="10" fill="#F1F1F1" height="48" id="IContext" rx="2.5" ry="2.5" style="stroke:#181818;stroke-width:0.5;" width="91.2197" x="1465.5" y="1136.2969"/><ellipse cx="1480.5" cy="1152.2969" fill="#B4A7E5" rx="11" ry="11" style="stroke:#181818;stroke-width:1;"/><path d="M1476.4219,1148.0625 L1476.4219,1145.9063 L1483.8125,1145.9063 L1483.8125,1148.0625 L1481.3438,1148.0625 L1481.3438,1156.1406 L1483.8125,1156.1406 L1483.8125,1158.2969 L1476.4219,1158.2969 L1476.4219,1156.1406 L1478.8906,1156.1406 L1478.8906,1148.0625 L1476.4219,1148.0625 Z " fill="#000000"/><text fill="#000000" font-family="sans-serif" font-size="14" font-style="italic" lengthAdjust="spacing" textLength="59.2197" x="1494.5" y="1157.1436">IContext</text><line style="stroke:#181818;stroke-width:0.5;" x1="1466.5" x2="1555.7197" y1="1168.2969" y2="1168.2969"/><line style="stroke:#181818;stroke-width:0.5;" x1="1466.5" x2="1555.7197" y1="1176.2969" y2="1176.2969"/></g><!--class IStreamingContext--><g id="elem_IStreamingContext"><rect codeLine="13" fill="#F1F1F1" height="96.8906" id="IStreamingContext" rx="2.5" ry="2.5" style="stroke:#181818;stroke-width:0.5;" width="527.1836" x="1029.5" y="732.2969"/><ellipse cx="1222.9263" cy="748.2969" fill="#B4A7E5" rx="11" ry="11" style="stroke:#181818;stroke-width:1;"/><path d="M1218.8481,744.0625 L1218.8481,741.9063 L1226.2388,741.9063 L1226.2388,744.0625 L1223.77,744.0625 L1223.77,752.1406 L1226.2388,752.1406 L1226.2388,754.2969 L1218.8481,754.2969 L1218.8481,752.1406 L1221.3169,752.1406 L1221.3169,744.0625 L1218.8481,744.0625 Z " fill="#000000"/><text fill="#000000" font-family="sans-serif" font-size="14" font-style="italic" lengthAdjust="spacing" textLength="131.8311" x="1243.4263" y="753.1436">IStreamingContext</text><line style="stroke:#181818;stroke-width:0.5;" x1="1030.5" x2="1555.6836" y1="764.2969" y2="764.2969"/><line style="stroke:#181818;stroke-width:0.5;" x1="1030.5" x2="1555.6836" y1="772.2969" y2="772.2969"/><polygon fill="#FFFF44" points="1040.5,780.9453,1044.5,784.9453,1040.5,788.9453,1036.5,784.9453" style="stroke:#B38D22;stroke-width:1;"/><text fill="#000000" font-family="sans-serif" font-size="14" lengthAdjust="spacing" textLength="501.1836" x="1049.5" y="789.292">Init(iv : optional&lt;span&lt;uint8_t&gt;&gt; = nullopt) : Result&lt;std::monostate&gt;</text><polygon fill="#FFFF44" points="1040.5,797.2422,1044.5,801.2422,1040.5,805.2422,1036.5,801.2422" style="stroke:#B38D22;stroke-width:1;"/><text fill="#000000" font-family="sans-serif" font-size="14" lengthAdjust="spacing" textLength="441.9365" x="1049.5" y="805.5889">Update(data : span&lt;const uint8_t&gt;) : Result&lt;std::monostate&gt;</text><polygon fill="#FFFF44" points="1040.5,813.5391,1044.5,817.5391,1040.5,821.5391,1036.5,817.5391" style="stroke:#B38D22;stroke-width:1;"/><text fill="#000000" font-family="sans-serif" font-size="14" lengthAdjust="spacing" textLength="237.8359" x="1049.5" y="821.8857">Reset() : Result&lt;std::monostate&gt;</text></g><!--class IStreamingOutputContext--><g id="elem_IStreamingOutputContext"><rect codeLine="19" fill="#F1F1F1" height="80.5938" id="IStreamingOutputContext" rx="2.5" ry="2.5" style="stroke:#181818;stroke-width:0.5;" width="376.0684" x="1105" y="325.2969"/><ellipse cx="1198.5532" cy="341.2969" fill="#B4A7E5" rx="11" ry="11" style="stroke:#181818;stroke-width:1;"/><path d="M1194.4751,337.0625 L1194.4751,334.9063 L1201.8657,334.9063 L1201.8657,337.0625 L1199.397,337.0625 L1199.397,345.1406 L1201.8657,345.1406 L1201.8657,347.2969 L1194.4751,347.2969 L1194.4751,345.1406 L1196.9438,345.1406 L1196.9438,337.0625 L1194.4751,337.0625 Z " fill="#000000"/><text fill="#000000" font-family="sans-serif" font-size="14" font-style="italic" lengthAdjust="spacing" textLength="180.4619" x="1219.0532" y="346.1436">IStreamingOutputContext</text><line style="stroke:#181818;stroke-width:0.5;" x1="1106" x2="1480.0684" y1="357.2969" y2="357.2969"/><line style="stroke:#181818;stroke-width:0.5;" x1="1106" x2="1480.0684" y1="365.2969" y2="365.2969"/><polygon fill="#FFFF44" points="1116,373.9453,1120,377.9453,1116,381.9453,1112,377.9453" style="stroke:#B38D22;stroke-width:1;"/><text fill="#000000" font-family="sans-serif" font-size="14" lengthAdjust="spacing" textLength="350.0684" x="1125" y="382.292">Finalize(output : span&lt;uint8_t&gt;) : Result&lt;size_t&gt;</text><polygon fill="#FFFF44" points="1116,390.2422,1120,394.2422,1116,398.2422,1112,394.2422" style="stroke:#B38D22;stroke-width:1;"/><text fill="#000000" font-family="sans-serif" font-size="14" lengthAdjust="spacing" textLength="166.4961" x="1125" y="398.5889">GetOutputSize() : size_t</text></g><!--class IHashContext--><g id="elem_IHashContext"><rect codeLine="32" fill="#F1F1F1" height="96.8906" id="IHashContext" rx="2.5" ry="2.5" style="stroke:#181818;stroke-width:0.5;" width="323.4658" x="1021.5" y="103.7969"/><ellipse cx="1131.7363" cy="119.7969" fill="#B4A7E5" rx="11" ry="11" style="stroke:#181818;stroke-width:1;"/><path d="M1127.6582,115.5625 L1127.6582,113.4063 L1135.0488,113.4063 L1135.0488,115.5625 L1132.5801,115.5625 L1132.5801,123.6406 L1135.0488,123.6406 L1135.0488,125.7969 L1127.6582,125.7969 L1127.6582,123.6406 L1130.127,123.6406 L1130.127,115.5625 L1127.6582,115.5625 Z " fill="#000000"/><text fill="#000000" font-family="sans-serif" font-size="14" font-style="italic" lengthAdjust="spacing" textLength="94.4932" x="1152.2363" y="124.6436">IHashContext</text><line style="stroke:#181818;stroke-width:0.5;" x1="1022.5" x2="1343.9658" y1="135.7969" y2="135.7969"/><line style="stroke:#181818;stroke-width:0.5;" x1="1022.5" x2="1343.9658" y1="143.7969" y2="143.7969"/><ellipse cx="1032.5" cy="157.4453" fill="#84BE84" rx="3" ry="3" style="stroke:#038048;stroke-width:1;"/><text fill="#000000" font-family="sans-serif" font-size="14" lengthAdjust="spacing" textLength="296.4336" x="1041.5" y="160.792">{using} Init(), Update(), Reset(), Finalize()</text><ellipse cx="1032.5" cy="173.7422" fill="#84BE84" rx="3" ry="3" style="stroke:#038048;stroke-width:1;"/><text fill="#000000" font-family="sans-serif" font-size="14" lengthAdjust="spacing" textLength="297.4658" x="1041.5" y="177.0889">SingleShot(input, output) : Result&lt;size_t&gt;</text><ellipse cx="1032.5" cy="190.0391" fill="#84BE84" rx="3" ry="3" style="stroke:#038048;stroke-width:1;"/><text fill="#000000" font-family="sans-serif" font-size="14" lengthAdjust="spacing" textLength="162.8184" x="1041.5" y="193.3857">GetDigestSize() : size_t</text></g><!--class IMacContext--><g id="elem_IMacContext"><rect codeLine="39" fill="#F1F1F1" height="96.8906" id="IMacContext" rx="2.5" ry="2.5" style="stroke:#181818;stroke-width:0.5;" width="380.3613" x="1380" y="103.7969"/><ellipse cx="1522.1431" cy="119.7969" fill="#B4A7E5" rx="11" ry="11" style="stroke:#181818;stroke-width:1;"/><path d="M1518.0649,115.5625 L1518.0649,113.4063 L1525.4556,113.4063 L1525.4556,115.5625 L1522.9868,115.5625 L1522.9868,123.6406 L1525.4556,123.6406 L1525.4556,125.7969 L1518.0649,125.7969 L1518.0649,123.6406 L1520.5337,123.6406 L1520.5337,115.5625 L1518.0649,115.5625 Z " fill="#000000"/><text fill="#000000" font-family="sans-serif" font-size="14" font-style="italic" lengthAdjust="spacing" textLength="87.5752" x="1542.6431" y="124.6436">IMacContext</text><line style="stroke:#181818;stroke-width:0.5;" x1="1381" x2="1759.3613" y1="135.7969" y2="135.7969"/><line style="stroke:#181818;stroke-width:0.5;" x1="1381" x2="1759.3613" y1="143.7969" y2="143.7969"/><ellipse cx="1391" cy="157.4453" fill="#84BE84" rx="3" ry="3" style="stroke:#038048;stroke-width:1;"/><text fill="#000000" font-family="sans-serif" font-size="14" lengthAdjust="spacing" textLength="308.6084" x="1400" y="160.792">{using} Init(iv), Update(), Reset(), Finalize()</text><ellipse cx="1391" cy="173.7422" fill="#84BE84" rx="3" ry="3" style="stroke:#038048;stroke-width:1;"/><text fill="#000000" font-family="sans-serif" font-size="14" lengthAdjust="spacing" textLength="354.3613" x="1400" y="177.0889">Verify(mac : span&lt;const uint8_t&gt;) : Result&lt;bool&gt;</text><ellipse cx="1391" cy="190.0391" fill="#84BE84" rx="3" ry="3" style="stroke:#038048;stroke-width:1;"/><text fill="#000000" font-family="sans-serif" font-size="14" lengthAdjust="spacing" textLength="146.2207" x="1400" y="193.3857">GetMacSize() : size_t</text></g><!--class ICipherContext--><g id="elem_ICipherContext"><rect codeLine="54" fill="#F1F1F1" height="96.8906" id="ICipherContext" rx="2.5" ry="2.5" style="stroke:#181818;stroke-width:0.5;" width="418.5469" x="546.5" y="103.7969"/><ellipse cx="699.0166" cy="119.7969" fill="#B4A7E5" rx="11" ry="11" style="stroke:#181818;stroke-width:1;"/><path d="M694.9385,115.5625 L694.9385,113.4063 L702.3291,113.4063 L702.3291,115.5625 L699.8604,115.5625 L699.8604,123.6406 L702.3291,123.6406 L702.3291,125.7969 L694.9385,125.7969 L694.9385,123.6406 L697.4072,123.6406 L697.4072,115.5625 L694.9385,115.5625 Z " fill="#000000"/><text fill="#000000" font-family="sans-serif" font-size="14" font-style="italic" lengthAdjust="spacing" textLength="105.0137" x="719.5166" y="124.6436">ICipherContext</text><line style="stroke:#181818;stroke-width:0.5;" x1="547.5" x2="964.0469" y1="135.7969" y2="135.7969"/><line style="stroke:#181818;stroke-width:0.5;" x1="547.5" x2="964.0469" y1="143.7969" y2="143.7969"/><ellipse cx="557.5" cy="157.4453" fill="#84BE84" rx="3" ry="3" style="stroke:#038048;stroke-width:1;"/><text fill="#000000" font-family="sans-serif" font-size="14" lengthAdjust="spacing" textLength="360.2266" x="566.5" y="160.792">{using} Init(iv), Reset(), Finalize(), GetOutputSize()</text><ellipse cx="557.5" cy="173.7422" fill="#84BE84" rx="3" ry="3" style="stroke:#038048;stroke-width:1;"/><text fill="#000000" font-family="sans-serif" font-size="14" lengthAdjust="spacing" textLength="392.5469" x="566.5" y="177.0889">Update(input, output : span&lt;uint8_t&gt;) : Result&lt;size_t&gt;</text><ellipse cx="557.5" cy="190.0391" fill="#84BE84" rx="3" ry="3" style="stroke:#038048;stroke-width:1;"/><text fill="#000000" font-family="sans-serif" font-size="14" lengthAdjust="spacing" textLength="318.541" x="566.5" y="193.3857">SingleShot(iv, input, output) : Result&lt;size_t&gt;</text></g><!--class IAeadContext--><g id="elem_IAeadContext"><rect codeLine="63" fill="#F1F1F1" height="145.7813" id="IAeadContext" rx="2.5" ry="2.5" style="stroke:#181818;stroke-width:0.5;" width="489.4902" x="22.5" y="79.2969"/><ellipse cx="215.5571" cy="95.2969" fill="#B4A7E5" rx="11" ry="11" style="stroke:#181818;stroke-width:1;"/><path d="M211.479,91.0625 L211.479,88.9063 L218.8696,88.9063 L218.8696,91.0625 L216.4009,91.0625 L216.4009,99.1406 L218.8696,99.1406 L218.8696,101.2969 L211.479,101.2969 L211.479,99.1406 L213.9478,99.1406 L213.9478,91.0625 L211.479,91.0625 Z " fill="#000000"/><text fill="#000000" font-family="sans-serif" font-size="14" font-style="italic" lengthAdjust="spacing" textLength="94.876" x="236.0571" y="100.1436">IAeadContext</text><line style="stroke:#181818;stroke-width:0.5;" x1="23.5" x2="510.9902" y1="111.2969" y2="111.2969"/><line style="stroke:#181818;stroke-width:0.5;" x1="23.5" x2="510.9902" y1="119.2969" y2="119.2969"/><ellipse cx="33.5" cy="132.9453" fill="#84BE84" rx="3" ry="3" style="stroke:#038048;stroke-width:1;"/><text fill="#000000" font-family="sans-serif" font-size="14" lengthAdjust="spacing" textLength="165.1221" x="42.5" y="136.292">{using} Init(iv), Reset()</text><ellipse cx="33.5" cy="149.2422" fill="#84BE84" rx="3" ry="3" style="stroke:#038048;stroke-width:1;"/><text fill="#000000" font-family="sans-serif" font-size="14" lengthAdjust="spacing" textLength="463.4902" x="42.5" y="152.5889">UpdateAad(aad : span&lt;const uint8_t&gt;) : Result&lt;std::monostate&gt;</text><ellipse cx="33.5" cy="165.5391" fill="#84BE84" rx="3" ry="3" style="stroke:#038048;stroke-width:1;"/><text fill="#000000" font-family="sans-serif" font-size="14" lengthAdjust="spacing" textLength="392.5469" x="42.5" y="168.8857">Update(input, output : span&lt;uint8_t&gt;) : Result&lt;size_t&gt;</text><ellipse cx="33.5" cy="181.8359" fill="#84BE84" rx="3" ry="3" style="stroke:#038048;stroke-width:1;"/><text fill="#000000" font-family="sans-serif" font-size="14" lengthAdjust="spacing" textLength="292.6191" x="42.5" y="185.1826">Finalize(output, tag_out) : Result&lt;size_t&gt;</text><ellipse cx="33.5" cy="198.1328" fill="#84BE84" rx="3" ry="3" style="stroke:#038048;stroke-width:1;"/><text fill="#000000" font-family="sans-serif" font-size="14" lengthAdjust="spacing" textLength="341.1133" x="42.5" y="201.4795">VerifyAndFinalize(output, tag_in) : Result&lt;bool&gt;</text><ellipse cx="33.5" cy="214.4297" fill="#84BE84" rx="3" ry="3" style="stroke:#038048;stroke-width:1;"/><text fill="#000000" font-family="sans-serif" font-size="14" lengthAdjust="spacing" textLength="143.8828" x="42.5" y="217.7764">GetTagSize() : size_t</text></g><!--class ISignContext--><g id="elem_ISignContext"><rect codeLine="82" fill="#F1F1F1" height="113.1875" id="ISignContext" rx="2.5" ry="2.5" style="stroke:#181818;stroke-width:0.5;" width="426.6816" x="1816.5" y="95.7969"/><ellipse cx="1980.7129" cy="111.7969" fill="#B4A7E5" rx="11" ry="11" style="stroke:#181818;stroke-width:1;"/><path d="M1976.6348,107.5625 L1976.6348,105.4063 L1984.0254,105.4063 L1984.0254,107.5625 L1981.5566,107.5625 L1981.5566,115.6406 L1984.0254,115.6406 L1984.0254,117.7969 L1976.6348,117.7969 L1976.6348,115.6406 L1979.1035,115.6406 L1979.1035,107.5625 L1976.6348,107.5625 Z " fill="#000000"/><text fill="#000000" font-family="sans-serif" font-size="14" font-style="italic" lengthAdjust="spacing" textLength="89.7559" x="2001.2129" y="116.6436">ISignContext</text><line style="stroke:#181818;stroke-width:0.5;" x1="1817.5" x2="2242.1816" y1="127.7969" y2="127.7969"/><line style="stroke:#181818;stroke-width:0.5;" x1="1817.5" x2="2242.1816" y1="135.7969" y2="135.7969"/><ellipse cx="1827.5" cy="149.4453" fill="#84BE84" rx="3" ry="3" style="stroke:#038048;stroke-width:1;"/><text fill="#000000" font-family="sans-serif" font-size="14" lengthAdjust="spacing" textLength="223.4736" x="1836.5" y="152.792">{using} Init(), Update(), Reset()</text><ellipse cx="1827.5" cy="165.7422" fill="#84BE84" rx="3" ry="3" style="stroke:#038048;stroke-width:1;"/><text fill="#000000" font-family="sans-serif" font-size="14" lengthAdjust="spacing" textLength="400.6816" x="1836.5" y="169.0889">SignFinalize(signature : span&lt;uint8_t&gt;) : Result&lt;size_t&gt;</text><ellipse cx="1827.5" cy="182.0391" fill="#84BE84" rx="3" ry="3" style="stroke:#038048;stroke-width:1;"/><text fill="#000000" font-family="sans-serif" font-size="14" lengthAdjust="spacing" textLength="313.0654" x="1836.5" y="185.3857">SingleShot(data, signature) : Result&lt;size_t&gt;</text><ellipse cx="1827.5" cy="198.3359" fill="#84BE84" rx="3" ry="3" style="stroke:#038048;stroke-width:1;"/><text fill="#000000" font-family="sans-serif" font-size="14" lengthAdjust="spacing" textLength="185.7119" x="1836.5" y="201.6826">GetSignatureSize() : size_t</text></g><!--class IVerifySignatureContext--><g id="elem_IVerifySignatureContext"><rect codeLine="89" fill="#F1F1F1" height="96.8906" id="IVerifySignatureContext" rx="2.5" ry="2.5" style="stroke:#181818;stroke-width:0.5;" width="469.8369" x="2279" y="103.7969"/><ellipse cx="2425.6104" cy="119.7969" fill="#B4A7E5" rx="11" ry="11" style="stroke:#181818;stroke-width:1;"/><path d="M2421.5322,115.5625 L2421.5322,113.4063 L2428.9229,113.4063 L2428.9229,115.5625 L2426.4541,115.5625 L2426.4541,123.6406 L2428.9229,123.6406 L2428.9229,125.7969 L2421.5322,125.7969 L2421.5322,123.6406 L2424.001,123.6406 L2424.001,115.5625 L2421.5322,115.5625 Z " fill="#000000"/><text fill="#000000" font-family="sans-serif" font-size="14" font-style="italic" lengthAdjust="spacing" textLength="168.1162" x="2446.1104" y="124.6436">IVerifySignatureContext</text><line style="stroke:#181818;stroke-width:0.5;" x1="2280" x2="2747.8369" y1="135.7969" y2="135.7969"/><line style="stroke:#181818;stroke-width:0.5;" x1="2280" x2="2747.8369" y1="143.7969" y2="143.7969"/><ellipse cx="2290" cy="157.4453" fill="#84BE84" rx="3" ry="3" style="stroke:#038048;stroke-width:1;"/><text fill="#000000" font-family="sans-serif" font-size="14" lengthAdjust="spacing" textLength="223.4736" x="2299" y="160.792">{using} Init(), Update(), Reset()</text><ellipse cx="2290" cy="173.7422" fill="#84BE84" rx="3" ry="3" style="stroke:#038048;stroke-width:1;"/><text fill="#000000" font-family="sans-serif" font-size="14" lengthAdjust="spacing" textLength="443.8369" x="2299" y="177.0889">VerifyFinalize(signature : span&lt;const uint8_t&gt;) : Result&lt;bool&gt;</text><ellipse cx="2290" cy="190.0391" fill="#84BE84" rx="3" ry="3" style="stroke:#038048;stroke-width:1;"/><text fill="#000000" font-family="sans-serif" font-size="14" lengthAdjust="spacing" textLength="303.3379" x="2299" y="193.3857">SingleShot(data, signature) : Result&lt;bool&gt;</text></g><!--class IKeyManagementContext--><g id="elem_IKeyManagementContext"><rect codeLine="103" fill="#F1F1F1" height="552.6094" id="IKeyManagementContext" rx="2.5" ry="2.5" style="stroke:#181818;stroke-width:0.5;" width="609.6182" x="2102" y="504.2969"/><ellipse cx="2313.7979" cy="520.2969" fill="#B4A7E5" rx="11" ry="11" style="stroke:#181818;stroke-width:1;"/><path d="M2309.7197,516.0625 L2309.7197,513.9063 L2317.1104,513.9063 L2317.1104,516.0625 L2314.6416,516.0625 L2314.6416,524.1406 L2317.1104,524.1406 L2317.1104,526.2969 L2309.7197,526.2969 L2309.7197,524.1406 L2312.1885,524.1406 L2312.1885,516.0625 L2309.7197,516.0625 Z " fill="#000000"/><text fill="#000000" font-family="sans-serif" font-size="14" font-style="italic" lengthAdjust="spacing" textLength="177.5225" x="2334.2979" y="525.1436">IKeyManagementContext</text><line style="stroke:#181818;stroke-width:0.5;" x1="2103" x2="2710.6182" y1="536.2969" y2="536.2969"/><ellipse cx="2113" cy="570.2422" fill="#84BE84" rx="3" ry="3" style="stroke:#038048;stroke-width:1;"/><text fill="#000000" font-family="sans-serif" font-size="14" lengthAdjust="spacing" textLength="548.2969" x="2122" y="573.5889">GenerateKey(params : GenerateKeyParams) : Result&lt;CryptoResourceGuard&gt;</text><ellipse cx="2113" cy="586.5391" fill="#84BE84" rx="3" ry="3" style="stroke:#038048;stroke-width:1;"/><text fill="#000000" font-family="sans-serif" font-size="14" lengthAdjust="spacing" textLength="583.6182" x="2122" y="589.8857">GenerateKey(target_slot, params : GenerateKeyParams) : Result&lt;std::monostate&gt;</text><line style="stroke:#181818;stroke-width:0.5;" x1="2103" x2="2352.4941" y1="552.4453" y2="552.4453"/><text fill="#000000" font-family="sans-serif" font-size="14" lengthAdjust="spacing" textLength="108.6299" x="2352.4941" y="556.792">Key Generation</text><line style="stroke:#181818;stroke-width:0.5;" x1="2461.124" x2="2710.6182" y1="552.4453" y2="552.4453"/><ellipse cx="2113" cy="623.1328" fill="#84BE84" rx="3" ry="3" style="stroke:#038048;stroke-width:1;"/><text fill="#000000" font-family="sans-serif" font-size="14" lengthAdjust="spacing" textLength="509.4004" x="2122" y="626.4795">DeriveKey(params : DeriveKeyParams) : Result&lt;CryptoResourceGuard&gt;</text><ellipse cx="2113" cy="639.4297" fill="#84BE84" rx="3" ry="3" style="stroke:#038048;stroke-width:1;"/><text fill="#000000" font-family="sans-serif" font-size="14" lengthAdjust="spacing" textLength="544.7217" x="2122" y="642.7764">DeriveKey(target_slot, params : DeriveKeyParams) : Result&lt;std::monostate&gt;</text><line style="stroke:#181818;stroke-width:0.5;" x1="2103" x2="2355.1841" y1="605.3359" y2="605.3359"/><text fill="#000000" font-family="sans-serif" font-size="14" lengthAdjust="spacing" textLength="103.25" x="2355.1841" y="609.6826">Key Derivation</text><line style="stroke:#181818;stroke-width:0.5;" x1="2458.4341" x2="2710.6182" y1="605.3359" y2="605.3359"/><ellipse cx="2113" cy="676.0234" fill="#84BE84" rx="3" ry="3" style="stroke:#038048;stroke-width:1;"/><text fill="#000000" font-family="sans-serif" font-size="14" lengthAdjust="spacing" textLength="500.418" x="2122" y="679.3701">AgreeKey(params : AgreeKeyParams) : Result&lt;CryptoResourceGuard&gt;</text><ellipse cx="2113" cy="692.3203" fill="#84BE84" rx="3" ry="3" style="stroke:#038048;stroke-width:1;"/><text fill="#000000" font-family="sans-serif" font-size="14" lengthAdjust="spacing" textLength="535.7393" x="2122" y="695.667">AgreeKey(target_slot, params : AgreeKeyParams) : Result&lt;std::monostate&gt;</text><line style="stroke:#181818;stroke-width:0.5;" x1="2103" x2="2352.5146" y1="658.2266" y2="658.2266"/><text fill="#000000" font-family="sans-serif" font-size="14" lengthAdjust="spacing" textLength="108.5889" x="2352.5146" y="662.5732">Key Agreement</text><line style="stroke:#181818;stroke-width:0.5;" x1="2461.1035" x2="2710.6182" y1="658.2266" y2="658.2266"/><ellipse cx="2113" cy="728.9141" fill="#84BE84" rx="3" ry="3" style="stroke:#038048;stroke-width:1;"/><text fill="#000000" font-family="sans-serif" font-size="14" lengthAdjust="spacing" textLength="462.376" x="2122" y="732.2607">PersistKey(target_slot, ephemeral_key) : Result&lt;std::monostate&gt;</text><ellipse cx="2113" cy="745.2109" fill="#84BE84" rx="3" ry="3" style="stroke:#038048;stroke-width:1;"/><text fill="#000000" font-family="sans-serif" font-size="14" lengthAdjust="spacing" textLength="395.8896" x="2122" y="748.5576">PersistKey(target_slot, guard) : Result&lt;std::monostate&gt;</text><line style="stroke:#181818;stroke-width:0.5;" x1="2103" x2="2366.5215" y1="711.1172" y2="711.1172"/><text fill="#000000" font-family="sans-serif" font-size="14" lengthAdjust="spacing" textLength="80.5752" x="2366.5215" y="715.4639">Persistence</text><line style="stroke:#181818;stroke-width:0.5;" x1="2447.0967" x2="2710.6182" y1="711.1172" y2="711.1172"/><ellipse cx="2113" cy="781.8047" fill="#84BE84" rx="3" ry="3" style="stroke:#038048;stroke-width:1;"/><text fill="#000000" font-family="sans-serif" font-size="14" lengthAdjust="spacing" textLength="525.1094" x="2122" y="785.1514">UnwrapKey(params : UnwrapKeyParams) : Result&lt;CryptoResourceGuard&gt;</text><ellipse cx="2113" cy="798.1016" fill="#84BE84" rx="3" ry="3" style="stroke:#038048;stroke-width:1;"/><text fill="#000000" font-family="sans-serif" font-size="14" lengthAdjust="spacing" textLength="560.4307" x="2122" y="801.4482">UnwrapKey(target_slot, params : UnwrapKeyParams) : Result&lt;std::monostate&gt;</text><line style="stroke:#181818;stroke-width:0.5;" x1="2103" x2="2349.3804" y1="764.0078" y2="764.0078"/><text fill="#000000" font-family="sans-serif" font-size="14" lengthAdjust="spacing" textLength="114.8574" x="2349.3804" y="768.3545">Key Unwrapping</text><line style="stroke:#181818;stroke-width:0.5;" x1="2464.2378" x2="2710.6182" y1="764.0078" y2="764.0078"/><ellipse cx="2113" cy="834.6953" fill="#84BE84" rx="3" ry="3" style="stroke:#038048;stroke-width:1;"/><text fill="#000000" font-family="sans-serif" font-size="14" lengthAdjust="spacing" textLength="510.4531" x="2122" y="838.042">ImportKey(params : ImportKeyParams) : Result&lt;CryptoResourceGuard&gt;</text><ellipse cx="2113" cy="850.9922" fill="#84BE84" rx="3" ry="3" style="stroke:#038048;stroke-width:1;"/><text fill="#000000" font-family="sans-serif" font-size="14" lengthAdjust="spacing" textLength="545.7744" x="2122" y="854.3389">ImportKey(target_slot, params : ImportKeyParams) : Result&lt;std::monostate&gt;</text><line style="stroke:#181818;stroke-width:0.5;" x1="2103" x2="2368.3125" y1="816.8984" y2="816.8984"/><text fill="#000000" font-family="sans-serif" font-size="14" lengthAdjust="spacing" textLength="76.9932" x="2368.3125" y="821.2451">Key Import</text><line style="stroke:#181818;stroke-width:0.5;" x1="2445.3057" x2="2710.6182" y1="816.8984" y2="816.8984"/><ellipse cx="2113" cy="887.5859" fill="#84BE84" rx="3" ry="3" style="stroke:#038048;stroke-width:1;"/><text fill="#000000" font-family="sans-serif" font-size="14" lengthAdjust="spacing" textLength="331.8779" x="2122" y="890.9326">LoadKey(slot) : Result&lt;CryptoResourceGuard&gt;</text><line style="stroke:#181818;stroke-width:0.5;" x1="2103" x2="2363.8042" y1="869.7891" y2="869.7891"/><text fill="#000000" font-family="sans-serif" font-size="14" lengthAdjust="spacing" textLength="86.0098" x="2363.8042" y="874.1357">Key Loading</text><line style="stroke:#181818;stroke-width:0.5;" x1="2449.814" x2="2710.6182" y1="869.7891" y2="869.7891"/><ellipse cx="2113" cy="924.1797" fill="#84BE84" rx="3" ry="3" style="stroke:#038048;stroke-width:1;"/><text fill="#000000" font-family="sans-serif" font-size="14" lengthAdjust="spacing" textLength="431.5254" x="2122" y="927.5264">WrapKey(params : WrapKeyParams, output) : Result&lt;size_t&gt;</text><ellipse cx="2113" cy="940.4766" fill="#84BE84" rx="3" ry="3" style="stroke:#038048;stroke-width:1;"/><text fill="#000000" font-family="sans-serif" font-size="14" lengthAdjust="spacing" textLength="430.1377" x="2122" y="943.8232">GetWrapKeySize(params : WrapKeyParams) : Result&lt;size_t&gt;</text><ellipse cx="2113" cy="956.7734" fill="#84BE84" rx="3" ry="3" style="stroke:#038048;stroke-width:1;"/><text fill="#000000" font-family="sans-serif" font-size="14" lengthAdjust="spacing" textLength="339.3701" x="2122" y="960.1201">ExportKey(key, output, format) : Result&lt;size_t&gt;</text><ellipse cx="2113" cy="973.0703" fill="#84BE84" rx="3" ry="3" style="stroke:#038048;stroke-width:1;"/><text fill="#000000" font-family="sans-serif" font-size="14" lengthAdjust="spacing" textLength="337.9824" x="2122" y="976.417">GetExportKeySize(key, format) : Result&lt;size_t&gt;</text><line style="stroke:#181818;stroke-width:0.5;" x1="2103" x2="2324.9214" y1="906.3828" y2="906.3828"/><text fill="#000000" font-family="sans-serif" font-size="14" lengthAdjust="spacing" textLength="163.7754" x="2324.9214" y="910.7295">Key Wrapping &amp; Export</text><line style="stroke:#181818;stroke-width:0.5;" x1="2488.6968" x2="2710.6182" y1="906.3828" y2="906.3828"/><ellipse cx="2113" cy="1009.6641" fill="#84BE84" rx="3" ry="3" style="stroke:#038048;stroke-width:1;"/><text fill="#000000" font-family="sans-serif" font-size="14" lengthAdjust="spacing" textLength="285.7969" x="2122" y="1013.0107">ClearKey(key) : Result&lt;std::monostate&gt;</text><line style="stroke:#181818;stroke-width:0.5;" x1="2103" x2="2362.4131" y1="991.8672" y2="991.8672"/><text fill="#000000" font-family="sans-serif" font-size="14" lengthAdjust="spacing" textLength="88.792" x="2362.4131" y="996.2139">Key Clearing</text><line style="stroke:#181818;stroke-width:0.5;" x1="2451.2051" x2="2710.6182" y1="991.8672" y2="991.8672"/><ellipse cx="2113" cy="1046.2578" fill="#84BE84" rx="3" ry="3" style="stroke:#038048;stroke-width:1;"/><text fill="#000000" font-family="sans-serif" font-size="14" lengthAdjust="spacing" textLength="300.8906" x="2122" y="1049.6045">GetKeySlotInfo(slot) : Result&lt;KeySlotInfo&gt;</text><line style="stroke:#181818;stroke-width:0.5;" x1="2103" x2="2364.1392" y1="1028.4609" y2="1028.4609"/><text fill="#000000" font-family="sans-serif" font-size="14" lengthAdjust="spacing" textLength="85.3398" x="2364.1392" y="1032.8076">Slot Queries</text><line style="stroke:#181818;stroke-width:0.5;" x1="2449.479" x2="2710.6182" y1="1028.4609" y2="1028.4609"/></g><!--class IRandomContext--><g id="elem_IRandomContext"><rect codeLine="135" fill="#F1F1F1" height="80.5938" id="IRandomContext" rx="2.5" ry="2.5" style="stroke:#181818;stroke-width:0.5;" width="454.1074" x="1613" y="740.2969"/><ellipse cx="1777.0591" cy="756.2969" fill="#B4A7E5" rx="11" ry="11" style="stroke:#181818;stroke-width:1;"/><path d="M1772.981,752.0625 L1772.981,749.9063 L1780.3716,749.9063 L1780.3716,752.0625 L1777.9028,752.0625 L1777.9028,760.1406 L1780.3716,760.1406 L1780.3716,762.2969 L1772.981,762.2969 L1772.981,760.1406 L1775.4497,760.1406 L1775.4497,752.0625 L1772.981,752.0625 Z " fill="#000000"/><text fill="#000000" font-family="sans-serif" font-size="14" font-style="italic" lengthAdjust="spacing" textLength="117.4893" x="1797.5591" y="761.1436">IRandomContext</text><line style="stroke:#181818;stroke-width:0.5;" x1="1614" x2="2066.1074" y1="772.2969" y2="772.2969"/><line style="stroke:#181818;stroke-width:0.5;" x1="1614" x2="2066.1074" y1="780.2969" y2="780.2969"/><ellipse cx="1624" cy="793.9453" fill="#84BE84" rx="3" ry="3" style="stroke:#038048;stroke-width:1;"/><text fill="#000000" font-family="sans-serif" font-size="14" lengthAdjust="spacing" textLength="362.3184" x="1633" y="797.292">Generate(output : span&lt;uint8_t&gt;) : Result&lt;size_t&gt;</text><ellipse cx="1624" cy="810.2422" fill="#84BE84" rx="3" ry="3" style="stroke:#038048;stroke-width:1;"/><text fill="#000000" font-family="sans-serif" font-size="14" lengthAdjust="spacing" textLength="428.1074" x="1633" y="813.5889">Seed(seed : span&lt;const uint8_t&gt;) : Result&lt;std::monostate&gt;</text></g><!--link IStreamingContext to IContext--><g id="link_IStreamingContext_IContext"><path codeLine="24" d="M1320.61,829.6069 C1367.93,911.5469 1453.7874,1060.2299 1488.7074,1120.6899 " fill="transparent" id="IStreamingContext-to-IContext" style="stroke:#181818;stroke-width:1;"/><polygon fill="transparent" points="1497.71,1136.2769,1493.9031,1117.6891,1483.5118,1123.6908,1497.71,1136.2769" style="stroke:#181818;stroke-width:1;"/><text fill="#000000" font-family="sans-serif" font-size="13" lengthAdjust="spacing" textLength="48.915" x="1480" y="1102.3638">inherits</text></g><!--link IStreamingOutputContext to IStreamingContext--><g id="link_IStreamingOutputContext_IStreamingContext"><path codeLine="25" d="M1293,406.3969 C1293,482.7169 1293,631.8669 1293,714.1369 " fill="transparent" id="IStreamingOutputContext-to-IStreamingContext" style="stroke:#181818;stroke-width:1;"/><polygon fill="transparent" points="1293,732.1369,1299,714.1369,1287,714.1369,1293,732.1369" style="stroke:#181818;stroke-width:1;"/><text fill="#000000" font-family="sans-serif" font-size="13" lengthAdjust="spacing" textLength="48.915" x="1294" y="449.3638">inherits</text></g><!--link IHashContext to IStreamingOutputContext--><g id="link_IHashContext_IStreamingOutputContext"><path codeLine="46" d="M1207.82,201.0269 C1227.28,238.4269 1245.7117,273.8891 1264.0217,309.0791 " fill="transparent" id="IHashContext-to-IStreamingOutputContext" style="stroke:#181818;stroke-width:1;"/><polygon fill="transparent" points="1272.33,325.0469,1269.3443,306.3096,1258.699,311.8485,1272.33,325.0469" style="stroke:#181818;stroke-width:1;"/><text fill="#000000" font-family="sans-serif" font-size="13" lengthAdjust="spacing" textLength="48.915" x="1245" y="270.3638">inherits</text></g><!--link IMacContext to IStreamingOutputContext--><g id="link_IMacContext_IStreamingOutputContext"><path codeLine="47" d="M1507.49,201.0269 C1458.5,238.4269 1405.4567,278.9336 1359.3667,314.1236 " fill="transparent" id="IMacContext-to-IStreamingOutputContext" style="stroke:#181818;stroke-width:1;"/><polygon fill="transparent" points="1345.06,325.0469,1363.0078,318.8925,1355.7256,309.3547,1345.06,325.0469" style="stroke:#181818;stroke-width:1;"/><text fill="#000000" font-family="sans-serif" font-size="13" lengthAdjust="spacing" textLength="48.915" x="1432" y="270.3638">inherits</text></g><!--link ICipherContext to IStreamingOutputContext--><g id="link_ICipherContext_IStreamingOutputContext"><path codeLine="74" d="M876.85,200.8969 C971.95,238.3469 1086.1821,283.3407 1175.6321,318.5707 " fill="transparent" id="ICipherContext-to-IStreamingOutputContext" style="stroke:#181818;stroke-width:1;"/><polygon fill="transparent" points="1192.38,325.1669,1177.8309,312.9881,1173.4334,324.1533,1192.38,325.1669" style="stroke:#181818;stroke-width:1;"/><text fill="#000000" font-family="sans-serif" font-size="13" lengthAdjust="spacing" textLength="48.915" x="1057" y="270.3638">inherits</text></g><!--link IAeadContext to IStreamingContext--><g id="link_IAeadContext_IStreamingContext"><path codeLine="75" d="M384.95,225.3169 C596.79,354.6769 1020.8876,613.6362 1199.5576,722.7362 " fill="transparent" id="IAeadContext-to-IStreamingContext" style="stroke:#181818;stroke-width:1;"/><polygon fill="transparent" points="1214.92,732.1169,1202.6845,717.6154,1196.4307,727.857,1214.92,732.1169" style="stroke:#181818;stroke-width:1;"/><text fill="#000000" font-family="sans-serif" font-size="13" lengthAdjust="spacing" textLength="48.915" x="679" y="370.3638">inherits</text></g><!--link ISignContext to IStreamingOutputContext--><g id="link_ISignContext_IStreamingOutputContext"><path codeLine="95" d="M1906.34,208.7969 C1865.62,224.6869 1819.6,240.1569 1776,249.2969 C1708.92,263.3569 1689.38,244.7669 1622,257.2969 C1542.39,272.0969 1472.2975,294.7961 1407.7875,318.9461 " fill="transparent" id="ISignContext-to-IStreamingOutputContext" style="stroke:#181818;stroke-width:1;"/><polygon fill="transparent" points="1390.93,325.2569,1409.8911,324.5653,1405.6839,313.3269,1390.93,325.2569" style="stroke:#181818;stroke-width:1;"/><text fill="#000000" font-family="sans-serif" font-size="13" lengthAdjust="spacing" textLength="48.915" x="1623" y="270.3638">inherits</text></g><!--link IVerifySignatureContext to IStreamingContext--><g id="link_IVerifySignatureContext_IStreamingContext"><path codeLine="96" d="M2392.55,200.8869 C2351.01,216.7669 2304.13,234.2369 2261,249.2969 C1968.52,351.3969 1859.66,297.0369 1597,461.2969 C1480.02,534.4569 1387.4911,648.2544 1336.8211,717.5844 " fill="transparent" id="IVerifySignatureContext-to-IStreamingContext" style="stroke:#181818;stroke-width:1;"/><polygon fill="transparent" points="1326.2,732.1169,1341.6652,721.1248,1331.9769,714.044,1326.2,732.1169" style="stroke:#181818;stroke-width:1;"/><text fill="#000000" font-family="sans-serif" font-size="13" lengthAdjust="spacing" textLength="48.915" x="2154" y="370.3638">inherits</text></g><!--link IKeyManagementContext to IContext--><g id="link_IKeyManagementContext_IContext"><path codeLine="140" d="M2129.28,1057.3269 C2114.79,1066.1369 2100.01,1074.1969 2085,1081.2969 C1991.15,1125.7269 1693.1848,1148.102 1574.5248,1155.532 " fill="transparent" id="IKeyManagementContext-to-IContext" style="stroke:#181818;stroke-width:1;"/><polygon fill="transparent" points="1556.56,1156.6569,1574.8998,1161.5203,1574.1499,1149.5437,1556.56,1156.6569" style="stroke:#181818;stroke-width:1;"/><text fill="#000000" font-family="sans-serif" font-size="13" lengthAdjust="spacing" textLength="48.915" x="2061" y="1102.3638">inherits</text></g><!--link IRandomContext to IContext--><g id="link_IRandomContext_IContext"><path codeLine="141" d="M1805.41,821.4869 C1736.95,900.0469 1597.876,1059.6168 1543.156,1122.4068 " fill="transparent" id="IRandomContext-to-IContext" style="stroke:#181818;stroke-width:1;"/><polygon fill="transparent" points="1531.33,1135.9769,1547.6793,1126.3488,1538.6326,1118.4648,1531.33,1135.9769" style="stroke:#181818;stroke-width:1;"/><text fill="#000000" font-family="sans-serif" font-size="13" lengthAdjust="spacing" textLength="48.915" x="1567" y="1102.3638">inherits</text></g><!--SRC=[lLXjRzis4FxkNt7eW4P1NVJhuAK672TBWorh5hVDHuELpWeHYHH8oelR1TYFs2_SBzdfrQ9UBDangWzEJ1uVFdVty8wouIP0MBXI8SpL9Z8IPhVNyDy__nPVFqQecE5Im5mAWqz6ZqRwaOk8AHP2nDn7vkF2R0X6eMkOy0CSZKxW_GiUMfvl1kTC8tpWn46v3vkNukPquLKx_2luFW9wE4sg5NCHhWl3RE9vL9zV68KivCAt3PFd9xWMt3Xy3HEGKH925fpfY8cpc01-Nfhf5Dw3Y8E0Pa_9w0vr79WpRRp999H2QiCCJYjudoEFHXpwO6IUGhbIQ0C5u20KCa3Zz9ZkyFHZRABOjFdxAoSN-JTqP6fIS6nZHrOqKbbxXIO3NYG0YMbcKsNJZFRRjtzFjqcQ4Dy7L9mqQflRbBD53QpAwkSZAFW3qm_m6cvcywEfTWlPejHaifcKD_0zrkJaSoR6qt4X8lel5y9ucxVJohe5Juxoua6IX0L5RmnPLdTayKsInGlkesxDOlASm1_IuAIHRY4Du5CaDNffzOdfNDR0EdHvmznUj_bw3yU_a0PM6oTaRkyX-ofbK7EVw1p9znB9EWBLDDU4RAkyVXWgSHgwxXZ7OCuZGYFLpYvd5yUhtrNKjhATpW_JHOiQnlKSLG1o6LbdOezAPn-izHY67gwJaZAib0pXAxMkR5lWOHHmbrhv1aYgQrH60xLkg-bOG5yWP8BSa6e3AwbWVZv_D_zqz-vgVlDBqP5WJS7mqkdB-NbbjSUJHf_S22XkiEOCh6ZJdnNt9vD5Sdfpoyx3EqFcxPMbHY9cp7COymxkXqT8QAtjZS4mVobxAcLMPMR2QrtDnUugyudvtLMcJITMofqYnGfDh8G6L4ggqvqvhcIgFyEryxTNdQfAuiTqwWNt1QD0uD7AKudOKfgIkOFwj5L2V57gHXUR7Lg5alla64gOlWPVEhVZfbRnDnDwkUYbhcTmtSuFxjM30h1TL5v1A-dRIzSTSVWn4lyDDt3318apH66eRzvHCP3XqGJVWTyYVxBS6ZR5i5ocNAzG5A-TowKbltGSoSP9tq0rJAg3j-bO9O7PMonzaR5oyIfcofjsu1ccV3HB7KWgmeF0ktfAxiG5vM_TuaGwRhjG3kthm1QhdNutS0_vcQymIwR5FHssg1SZ-p8laTg9TyBku7sBIdDjK93GBDRvH6Ctf2uLKdg3vIDk1bqMkf3ynBtXqVqi_b8iYkZ0sqIpSIk-vT2-0TvYjKUu6xY7_7KOILNJHJPc4I-7zYM-nMedtWtSG_ntoRn6o9F1PAzaaw4SSxpx8eUluVAf6PFxUYhlg_4U-ZwTBqgRRJlIJeICM4A395xiEKwkzI7htRjSdEwU0lGkp6Cp3v2fHh3JqPpCiBmjA2tmPqnb37Mz5wJCQFvQh6GzVvMfhb-qiXxLTY4fYhvpoEiTekTe-ZZebQIuPhIsoTs_TjdkTDe-Z_u7]--></g></svg>