<svg xmlns="http://www.w3.org/2000/svg" xmlns:xlink="http://www.w3.org/1999/xlink" contentStyleType="text/css" data-diagram-type="CLASS" height="685px" preserveAspectRatio="none" style="width:2498px;height:685px;background:#FFFFFF;" version="1.1" viewBox="0 0 2498 685" width="2498px" zoomAndPan="magnify"><title>Score Crypto API &#8212; Typed Object Hierarchy</title><defs/><g><text fill="#000000" font-family="sans-serif" font-size="14" font-weight="bold" lengthAdjust="spacing" textLength="342.665" x="1070.6675" y="22.9951">Score Crypto API &#8212; Typed Object Hierarchy</text><!--cluster Key Objects--><g id="cluster_Key Objects"><rect fill="transparent" height="350.5" rx="2.5" ry="2.5" style="stroke:#000000;stroke-width:1.5;" width="981" x="7" y="44.2969"/><text fill="#000000" font-family="sans-serif" font-size="14" font-weight="bold" lengthAdjust="spacing" textLength="93.8848" x="450.5576" y="59.292">Key Objects</text></g><!--cluster Slot Objects--><g id="cluster_Slot Objects"><rect fill="transparent" height="197" rx="2.5" ry="2.5" style="stroke:#000000;stroke-width:1.5;" width="618" x="1012" y="206.2969"/><text fill="#000000" font-family="sans-serif" font-size="14" font-weight="bold" lengthAdjust="spacing" textLength="95.6074" x="1273.1963" y="221.292">Slot Objects</text></g><!--cluster Certificate Objects--><g id="cluster_Certificate Objects"><rect fill="transparent" height="180" rx="2.5" ry="2.5" style="stroke:#000000;stroke-width:1.5;" width="326" x="1654" y="214.7969"/><text fill="#000000" font-family="sans-serif" font-size="14" font-weight="bold" lengthAdjust="spacing" textLength="147.4033" x="1743.2983" y="229.792">Certificate Objects</text></g><!--cluster Other Objects--><g id="cluster_Other Objects"><rect fill="transparent" height="99" rx="2.5" ry="2.5" style="stroke:#000000;stroke-width:1.5;" width="488" x="2004" y="255.2969"/><text fill="#000000" font-family="sans-serif" font-size="14" font-weight="bold" lengthAdjust="spacing" textLength="109.375" x="2193.3125" y="270.292">Other Objects</text></g><!--class IKeyObject--><g id="elem_IKeyObject"><rect codeLine="18" fill="#F1F1F1" height="129.4844" id="IKeyObject" rx="2.5" ry="2.5" style="stroke:#181818;stroke-width:0.5;" width="393.2813" x="486.5" y="249.7969"/><ellipse cx="640.9888" cy="265.7969" fill="#B4A7E5" rx="11" ry="11" style="stroke:#181818;stroke-width:1;"/><path d="M636.9106,261.5625 L636.9106,259.4063 L644.3013,259.4063 L644.3013,261.5625 L641.8325,261.5625 L641.8325,269.6406 L644.3013,269.6406 L644.3013,271.7969 L636.9106,271.7969 L636.9106,269.6406 L639.3794,269.6406 L639.3794,261.5625 L636.9106,261.5625 Z " fill="#000000"/><text fill="#000000" font-family="sans-serif" font-size="14" font-style="italic" lengthAdjust="spacing" textLength="75.8037" x="661.4888" y="270.6436">IKeyObject</text><line style="stroke:#181818;stroke-width:0.5;" x1="487.5" x2="878.7813" y1="281.7969" y2="281.7969"/><line style="stroke:#181818;stroke-width:0.5;" x1="487.5" x2="878.7813" y1="289.7969" y2="289.7969"/><ellipse cx="497.5" cy="303.4453" fill="#84BE84" rx="3" ry="3" style="stroke:#038048;stroke-width:1;"/><text fill="#000000" font-family="sans-serif" font-size="14" lengthAdjust="spacing" textLength="199.6367" x="506.5" y="306.792">GetAlgorithm() : AlgorithmId</text><ellipse cx="497.5" cy="319.7422" fill="#84BE84" rx="3" ry="3" style="stroke:#038048;stroke-width:1;"/><text fill="#000000" font-family="sans-serif" font-size="14" lengthAdjust="spacing" textLength="275.7822" x="506.5" y="323.0889">GetPersistence() : ResourcePersistence</text><ellipse cx="497.5" cy="336.0391" fill="#84BE84" rx="3" ry="3" style="stroke:#038048;stroke-width:1;"/><text fill="#000000" font-family="sans-serif" font-size="14" lengthAdjust="spacing" textLength="141.668" x="506.5" y="339.3857">IsExportable() : bool</text><ellipse cx="497.5" cy="352.3359" fill="#84BE84" rx="3" ry="3" style="stroke:#038048;stroke-width:1;"/><text fill="#000000" font-family="sans-serif" font-size="14" lengthAdjust="spacing" textLength="163.7412" x="506.5" y="355.6826">GetKeyLength() : size_t</text><ellipse cx="497.5" cy="368.6328" fill="#84BE84" rx="3" ry="3" style="stroke:#038048;stroke-width:1;"/><text fill="#000000" font-family="sans-serif" font-size="14" lengthAdjust="spacing" textLength="367.2813" x="506.5" y="371.9795">GetPermittedOperations() : KeyOperationPermission</text></g><!--class IPrivateKeyObject--><g id="elem_IPrivateKeyObject"><rect codeLine="26" fill="#F1F1F1" height="64.2969" id="IPrivateKeyObject" rx="2.5" ry="2.5" style="stroke:#181818;stroke-width:0.5;" width="277.2275" x="694.5" y="79.2969"/><ellipse cx="766.4346" cy="95.2969" fill="#B4A7E5" rx="11" ry="11" style="stroke:#181818;stroke-width:1;"/><path d="M762.3564,91.0625 L762.3564,88.9063 L769.7471,88.9063 L769.7471,91.0625 L767.2783,91.0625 L767.2783,99.1406 L769.7471,99.1406 L769.7471,101.2969 L762.3564,101.2969 L762.3564,99.1406 L764.8252,99.1406 L764.8252,91.0625 L762.3564,91.0625 Z " fill="#000000"/><text fill="#000000" font-family="sans-serif" font-size="14" font-style="italic" lengthAdjust="spacing" textLength="124.8584" x="786.9346" y="100.1436">IPrivateKeyObject</text><line style="stroke:#181818;stroke-width:0.5;" x1="695.5" x2="970.7275" y1="111.2969" y2="111.2969"/><line style="stroke:#181818;stroke-width:0.5;" x1="695.5" x2="970.7275" y1="119.2969" y2="119.2969"/><ellipse cx="705.5" cy="132.9453" fill="#84BE84" rx="3" ry="3" style="stroke:#038048;stroke-width:1;"/><text fill="#000000" font-family="sans-serif" font-size="14" lengthAdjust="spacing" textLength="251.2275" x="714.5" y="136.292">HasCorrespondingPublicKey() : bool</text></g><!--class IPublicKeyObject--><g id="elem_IPublicKeyObject"><rect codeLine="30" fill="#F1F1F1" height="64.2969" id="IPublicKeyObject" rx="2.5" ry="2.5" style="stroke:#181818;stroke-width:0.5;" width="317.2861" x="342.5" y="79.2969"/><ellipse cx="438.1519" cy="95.2969" fill="#B4A7E5" rx="11" ry="11" style="stroke:#181818;stroke-width:1;"/><path d="M434.0737,91.0625 L434.0737,88.9063 L441.4644,88.9063 L441.4644,91.0625 L438.9956,91.0625 L438.9956,99.1406 L441.4644,99.1406 L441.4644,101.2969 L434.0737,101.2969 L434.0737,99.1406 L436.5425,99.1406 L436.5425,91.0625 L434.0737,91.0625 Z " fill="#000000"/><text fill="#000000" font-family="sans-serif" font-size="14" font-style="italic" lengthAdjust="spacing" textLength="117.4824" x="458.6519" y="100.1436">IPublicKeyObject</text><line style="stroke:#181818;stroke-width:0.5;" x1="343.5" x2="658.7861" y1="111.2969" y2="111.2969"/><line style="stroke:#181818;stroke-width:0.5;" x1="343.5" x2="658.7861" y1="119.2969" y2="119.2969"/><ellipse cx="353.5" cy="132.9453" fill="#84BE84" rx="3" ry="3" style="stroke:#038048;stroke-width:1;"/><text fill="#000000" font-family="sans-serif" font-size="14" lengthAdjust="spacing" textLength="291.2861" x="362.5" y="136.292">ExportPublicKey(output) : Result&lt;size_t&gt;</text></g><!--class ISymmetricKeyObject--><g id="elem_ISymmetricKeyObject"><rect codeLine="34" fill="#F1F1F1" height="64.2969" id="ISymmetricKeyObject" rx="2.5" ry="2.5" style="stroke:#181818;stroke-width:0.5;" width="283.8584" x="23" y="79.2969"/><ellipse cx="84.8311" cy="95.2969" fill="#B4A7E5" rx="11" ry="11" style="stroke:#181818;stroke-width:1;"/><path d="M80.7529,91.0625 L80.7529,88.9063 L88.1436,88.9063 L88.1436,91.0625 L85.6748,91.0625 L85.6748,99.1406 L88.1436,99.1406 L88.1436,101.2969 L80.7529,101.2969 L80.7529,99.1406 L83.2217,99.1406 L83.2217,91.0625 L80.7529,91.0625 Z " fill="#000000"/><text fill="#000000" font-family="sans-serif" font-size="14" font-style="italic" lengthAdjust="spacing" textLength="151.6963" x="105.3311" y="100.1436">ISymmetricKeyObject</text><line style="stroke:#181818;stroke-width:0.5;" x1="24" x2="305.8584" y1="111.2969" y2="111.2969"/><line style="stroke:#181818;stroke-width:0.5;" x1="24" x2="305.8584" y1="119.2969" y2="119.2969"/><ellipse cx="34" cy="132.9453" fill="#84BE84" rx="3" ry="3" style="stroke:#038048;stroke-width:1;"/><text fill="#000000" font-family="sans-serif" font-size="14" lengthAdjust="spacing" textLength="257.8584" x="43" y="136.292">GetAllowedModes() : vector&lt;string&gt;</text></g><!--class IKeySlotObject--><g id="elem_IKeySlotObject"><rect codeLine="48" fill="#F1F1F1" height="145.7813" id="IKeySlotObject" rx="2.5" ry="2.5" style="stroke:#181818;stroke-width:0.5;" width="393.2813" x="1028.5" y="241.2969"/><ellipse cx="1169.5732" cy="257.2969" fill="#B4A7E5" rx="11" ry="11" style="stroke:#181818;stroke-width:1;"/><path d="M1165.4951,253.0625 L1165.4951,250.9063 L1172.8857,250.9063 L1172.8857,253.0625 L1170.417,253.0625 L1170.417,261.1406 L1172.8857,261.1406 L1172.8857,263.2969 L1165.4951,263.2969 L1165.4951,261.1406 L1167.9639,261.1406 L1167.9639,253.0625 L1165.4951,253.0625 Z " fill="#000000"/><text fill="#000000" font-family="sans-serif" font-size="14" font-style="italic" lengthAdjust="spacing" textLength="102.6348" x="1190.0732" y="262.1436">IKeySlotObject</text><line style="stroke:#181818;stroke-width:0.5;" x1="1029.5" x2="1420.7813" y1="273.2969" y2="273.2969"/><line style="stroke:#181818;stroke-width:0.5;" x1="1029.5" x2="1420.7813" y1="281.2969" y2="281.2969"/><ellipse cx="1039.5" cy="294.9453" fill="#84BE84" rx="3" ry="3" style="stroke:#038048;stroke-width:1;"/><text fill="#000000" font-family="sans-serif" font-size="14" lengthAdjust="spacing" textLength="155.3945" x="1048.5" y="298.292">GetInfo() : KeySlotInfo</text><ellipse cx="1039.5" cy="311.2422" fill="#84BE84" rx="3" ry="3" style="stroke:#038048;stroke-width:1;"/><text fill="#000000" font-family="sans-serif" font-size="14" lengthAdjust="spacing" textLength="176.5176" x="1048.5" y="314.5889">GetState() : KeySlotState</text><ellipse cx="1039.5" cy="327.5391" fill="#84BE84" rx="3" ry="3" style="stroke:#038048;stroke-width:1;"/><text fill="#000000" font-family="sans-serif" font-size="14" lengthAdjust="spacing" textLength="254.5088" x="1048.5" y="330.8857">GetAllowedAlgorithm() : AlgorithmId</text><ellipse cx="1039.5" cy="343.8359" fill="#84BE84" rx="3" ry="3" style="stroke:#038048;stroke-width:1;"/><text fill="#000000" font-family="sans-serif" font-size="14" lengthAdjust="spacing" textLength="219.4609" x="1048.5" y="347.1826">GetPrimaryProvider() : uint16_t</text><ellipse cx="1039.5" cy="360.1328" fill="#84BE84" rx="3" ry="3" style="stroke:#038048;stroke-width:1;"/><text fill="#000000" font-family="sans-serif" font-size="14" lengthAdjust="spacing" textLength="320.4893" x="1048.5" y="363.4795">GetCompatibleProviders() : vector&lt;uint16_t&gt;</text><ellipse cx="1039.5" cy="376.4297" fill="#84BE84" rx="3" ry="3" style="stroke:#038048;stroke-width:1;"/><text fill="#000000" font-family="sans-serif" font-size="14" lengthAdjust="spacing" textLength="367.2813" x="1048.5" y="379.7764">GetPermittedOperations() : KeyOperationPermission</text></g><!--class ICertSlotObject--><g id="elem_ICertSlotObject"><rect codeLine="57" fill="#F1F1F1" height="64.2969" id="ICertSlotObject" rx="2.5" ry="2.5" style="stroke:#181818;stroke-width:0.5;" width="157.4346" x="1456.5" y="282.2969"/><ellipse cx="1480.1603" cy="298.2969" fill="#B4A7E5" rx="11" ry="11" style="stroke:#181818;stroke-width:1;"/><path d="M1476.0822,294.0625 L1476.0822,291.9063 L1483.4728,291.9063 L1483.4728,294.0625 L1481.0041,294.0625 L1481.0041,302.1406 L1483.4728,302.1406 L1483.4728,304.2969 L1476.0822,304.2969 L1476.0822,302.1406 L1478.5509,302.1406 L1478.5509,294.0625 L1476.0822,294.0625 Z " fill="#000000"/><text fill="#000000" font-family="sans-serif" font-size="14" font-style="italic" lengthAdjust="spacing" textLength="106.1895" x="1496.0848" y="303.1436">ICertSlotObject</text><line style="stroke:#181818;stroke-width:0.5;" x1="1457.5" x2="1612.9346" y1="314.2969" y2="314.2969"/><line style="stroke:#181818;stroke-width:0.5;" x1="1457.5" x2="1612.9346" y1="322.2969" y2="322.2969"/><ellipse cx="1467.5" cy="335.9453" fill="#84BE84" rx="3" ry="3" style="stroke:#038048;stroke-width:1;"/><text fill="#000000" font-family="sans-serif" font-size="14" lengthAdjust="spacing" textLength="131.4346" x="1476.5" y="339.292">IsOccupied() : bool</text></g><!--class ICertificateObject--><g id="elem_ICertificateObject"><rect codeLine="69" fill="#F1F1F1" height="129.4844" id="ICertificateObject" rx="2.5" ry="2.5" style="stroke:#181818;stroke-width:0.5;" width="293.3945" x="1670.5" y="249.7969"/><ellipse cx="1751.7246" cy="265.7969" fill="#B4A7E5" rx="11" ry="11" style="stroke:#181818;stroke-width:1;"/><path d="M1747.6465,261.5625 L1747.6465,259.4063 L1755.0371,259.4063 L1755.0371,261.5625 L1752.5684,261.5625 L1752.5684,269.6406 L1755.0371,269.6406 L1755.0371,271.7969 L1747.6465,271.7969 L1747.6465,269.6406 L1750.1152,269.6406 L1750.1152,261.5625 L1747.6465,261.5625 Z " fill="#000000"/><text fill="#000000" font-family="sans-serif" font-size="14" font-style="italic" lengthAdjust="spacing" textLength="122.4453" x="1772.2246" y="270.6436">ICertificateObject</text><line style="stroke:#181818;stroke-width:0.5;" x1="1671.5" x2="1962.8945" y1="281.7969" y2="281.7969"/><line style="stroke:#181818;stroke-width:0.5;" x1="1671.5" x2="1962.8945" y1="289.7969" y2="289.7969"/><ellipse cx="1681.5" cy="303.4453" fill="#84BE84" rx="3" ry="3" style="stroke:#038048;stroke-width:1;"/><text fill="#000000" font-family="sans-serif" font-size="14" lengthAdjust="spacing" textLength="181.2549" x="1690.5" y="306.792">GetSubject() : string_view</text><ellipse cx="1681.5" cy="319.7422" fill="#84BE84" rx="3" ry="3" style="stroke:#038048;stroke-width:1;"/><text fill="#000000" font-family="sans-serif" font-size="14" lengthAdjust="spacing" textLength="170.8779" x="1690.5" y="323.0889">GetIssuer() : string_view</text><ellipse cx="1681.5" cy="336.0391" fill="#84BE84" rx="3" ry="3" style="stroke:#038048;stroke-width:1;"/><text fill="#000000" font-family="sans-serif" font-size="14" lengthAdjust="spacing" textLength="168.6563" x="1690.5" y="339.3857">GetNotBefore() : int64_t</text><ellipse cx="1681.5" cy="352.3359" fill="#84BE84" rx="3" ry="3" style="stroke:#038048;stroke-width:1;"/><text fill="#000000" font-family="sans-serif" font-size="14" lengthAdjust="spacing" textLength="156.9395" x="1690.5" y="355.6826">GetNotAfter() : int64_t</text><ellipse cx="1681.5" cy="368.6328" fill="#84BE84" rx="3" ry="3" style="stroke:#038048;stroke-width:1;"/><text fill="#000000" font-family="sans-serif" font-size="14" lengthAdjust="spacing" textLength="267.3945" x="1690.5" y="371.9795">GetPublicKeyAlgorithm() : AlgorithmId</text></g><!--class IProviderObject--><g id="elem_IProviderObject"><rect codeLine="84" fill="#F1F1F1" height="48" id="IProviderObject" rx="2.5" ry="2.5" style="stroke:#181818;stroke-width:0.5;" width="139.9189" x="2020" y="290.2969"/><ellipse cx="2035" cy="306.2969" fill="#B4A7E5" rx="11" ry="11" style="stroke:#181818;stroke-width:1;"/><path d="M2030.9219,302.0625 L2030.9219,299.9063 L2038.3125,299.9063 L2038.3125,302.0625 L2035.8438,302.0625 L2035.8438,310.1406 L2038.3125,310.1406 L2038.3125,312.2969 L2030.9219,312.2969 L2030.9219,310.1406 L2033.3906,310.1406 L2033.3906,302.0625 L2030.9219,302.0625 Z " fill="#000000"/><text fill="#000000" font-family="sans-serif" font-size="14" font-style="italic" lengthAdjust="spacing" textLength="107.9189" x="2049" y="311.1436">IProviderObject</text><line style="stroke:#181818;stroke-width:0.5;" x1="2021" x2="2158.9189" y1="322.2969" y2="322.2969"/><line style="stroke:#181818;stroke-width:0.5;" x1="2021" x2="2158.9189" y1="330.2969" y2="330.2969"/></g><!--class IDataObject--><g id="elem_IDataObject"><rect codeLine="85" fill="#F1F1F1" height="48" id="IDataObject" rx="2.5" ry="2.5" style="stroke:#181818;stroke-width:0.5;" width="115.1523" x="2195.5" y="290.2969"/><ellipse cx="2210.5" cy="306.2969" fill="#B4A7E5" rx="11" ry="11" style="stroke:#181818;stroke-width:1;"/><path d="M2206.4219,302.0625 L2206.4219,299.9063 L2213.8125,299.9063 L2213.8125,302.0625 L2211.3438,302.0625 L2211.3438,310.1406 L2213.8125,310.1406 L2213.8125,312.2969 L2206.4219,312.2969 L2206.4219,310.1406 L2208.8906,310.1406 L2208.8906,302.0625 L2206.4219,302.0625 Z " fill="#000000"/><text fill="#000000" font-family="sans-serif" font-size="14" font-style="italic" lengthAdjust="spacing" textLength="83.1523" x="2224.5" y="311.1436">IDataObject</text><line style="stroke:#181818;stroke-width:0.5;" x1="2196.5" x2="2309.6523" y1="322.2969" y2="322.2969"/><line style="stroke:#181818;stroke-width:0.5;" x1="2196.5" x2="2309.6523" y1="330.2969" y2="330.2969"/></g><!--class ISecureObject--><g id="elem_ISecureObject"><rect codeLine="86" fill="#F1F1F1" height="48" id="ISecureObject" rx="2.5" ry="2.5" style="stroke:#181818;stroke-width:0.5;" width="130.1641" x="2346" y="290.2969"/><ellipse cx="2361" cy="306.2969" fill="#B4A7E5" rx="11" ry="11" style="stroke:#181818;stroke-width:1;"/><path d="M2356.9219,302.0625 L2356.9219,299.9063 L2364.3125,299.9063 L2364.3125,302.0625 L2361.8438,302.0625 L2361.8438,310.1406 L2364.3125,310.1406 L2364.3125,312.2969 L2356.9219,312.2969 L2356.9219,310.1406 L2359.3906,310.1406 L2359.3906,302.0625 L2356.9219,302.0625 Z " fill="#000000"/><text fill="#000000" font-family="sans-serif" font-size="14" font-style="italic" lengthAdjust="spacing" textLength="98.1641" x="2375" y="311.1436">ISecureObject</text><line style="stroke:#181818;stroke-width:0.5;" x1="2347" x2="2475.1641" y1="322.2969" y2="322.2969"/><line style="stroke:#181818;stroke-width:0.5;" x1="2347" x2="2475.1641" y1="330.2969" y2="330.2969"/></g><!--class ICryptoObject--><g id="elem_ICryptoObject"><rect codeLine="9" fill="#F1F1F1" height="80.5938" id="ICryptoObject" rx="2.5" ry="2.5" style="stroke:#181818;stroke-width:0.5;" width="213.4209" x="1710.5" y="466.2969"/><ellipse cx="1764.7192" cy="482.2969" fill="#B4A7E5" rx="11" ry="11" style="stroke:#181818;stroke-width:1;"/><path d="M1760.6411,478.0625 L1760.6411,475.9063 L1768.0317,475.9063 L1768.0317,478.0625 L1765.563,478.0625 L1765.563,486.1406 L1768.0317,486.1406 L1768.0317,488.2969 L1760.6411,488.2969 L1760.6411,486.1406 L1763.1099,486.1406 L1763.1099,478.0625 L1760.6411,478.0625 Z " fill="#000000"/><text fill="#000000" font-family="sans-serif" font-size="14" font-style="italic" lengthAdjust="spacing" textLength="96.4824" x="1785.2192" y="487.1436">ICryptoObject</text><line style="stroke:#181818;stroke-width:0.5;" x1="1711.5" x2="1922.9209" y1="498.2969" y2="498.2969"/><line style="stroke:#181818;stroke-width:0.5;" x1="1711.5" x2="1922.9209" y1="506.2969" y2="506.2969"/><ellipse cx="1721.5" cy="519.9453" fill="#84BE84" rx="3" ry="3" style="stroke:#038048;stroke-width:1;"/><text fill="#000000" font-family="sans-serif" font-size="14" lengthAdjust="spacing" textLength="187.4209" x="1730.5" y="523.292">GetId() : CryptoResourceId</text><ellipse cx="1721.5" cy="536.2422" fill="#84BE84" rx="3" ry="3" style="stroke:#038048;stroke-width:1;"/><text fill="#000000" font-family="sans-serif" font-size="14" lengthAdjust="spacing" textLength="183.3057" x="1730.5" y="539.5889">GetType() : ResourceType</text></g><g id="elem_GMN27"><path d="M1650.5,608.2969 L1650.5,678.8281 A0,0 0 0 0 1650.5,678.8281 L1983.8174,678.8281 A0,0 0 0 0 1983.8174,678.8281 L1983.8174,618.2969 L1973.8174,608.2969 L1821,608.2969 L1817,547.5669 L1813,608.2969 L1650.5,608.2969 A0,0 0 0 0 1650.5,608.2969 " fill="#FEFFDD" style="stroke:#181818;stroke-width:0.5;"/><path d="M1973.8174,608.2969 L1973.8174,618.2969 L1983.8174,618.2969 L1973.8174,608.2969 " fill="#FEFFDD" style="stroke:#181818;stroke-width:0.5;"/><text fill="#000000" font-family="sans-serif" font-size="13" lengthAdjust="spacing" textLength="312.3174" x="1656.5" y="625.3638">Obtained via ICryptoContext accessor methods:</text><text fill="#000000" font-family="sans-serif" font-size="13" lengthAdjust="spacing" textLength="237.0469" x="1656.5" y="640.4966">GetKeyObject(), GetKeySlotObject(),</text><text fill="#000000" font-family="sans-serif" font-size="13" lengthAdjust="spacing" textLength="283.6577" x="1656.5" y="655.6294">GetCertificateObject(), GetCertSlotObject(),</text><text fill="#000000" font-family="sans-serif" font-size="13" lengthAdjust="spacing" textLength="129.689" x="1656.5" y="670.7622">GetProviderObject()</text></g><!--link IKeyObject to ICryptoObject--><g id="link_IKeyObject_ICryptoObject"><path codeLine="38" d="M879.56,378.4569 C922.85,390.7369 968.71,402.5069 1012,411.2969 C1259.36,461.5369 1537.3468,486.4696 1692.3468,497.6696 " fill="transparent" id="IKeyObject-to-ICryptoObject" style="stroke:#181818;stroke-width:1;"/><polygon fill="transparent" points="1710.3,498.9669,1692.7792,491.6852,1691.9144,503.654,1710.3,498.9669" style="stroke:#181818;stroke-width:1;"/><text fill="#000000" font-family="sans-serif" font-size="13" lengthAdjust="spacing" textLength="48.915" x="1143" y="432.3638">inherits</text></g><!--link IPrivateKeyObject to IKeyObject--><g id="link_IPrivateKeyObject_IKeyObject"><path codeLine="39" d="M809.56,143.7069 C788.47,171.9669 767.5967,199.9419 741.2267,235.2719 " fill="transparent" id="IPrivateKeyObject-to-IKeyObject" style="stroke:#181818;stroke-width:1;"/><polygon fill="transparent" points="730.46,249.6969,746.035,238.8608,736.4183,231.683,730.46,249.6969" style="stroke:#181818;stroke-width:1;"/><text fill="#000000" font-family="sans-serif" font-size="13" lengthAdjust="spacing" textLength="48.915" x="785" y="186.3638">inherits</text></g><!--link IPublicKeyObject to IKeyObject--><g id="link_IPublicKeyObject_IKeyObject"><path codeLine="40" d="M529.44,143.7069 C555.03,171.9669 581.3384,201.0239 613.3284,236.3539 " fill="transparent" id="IPublicKeyObject-to-IKeyObject" style="stroke:#181818;stroke-width:1;"/><polygon fill="transparent" points="625.41,249.6969,617.7761,232.3267,608.8808,240.3811,625.41,249.6969" style="stroke:#181818;stroke-width:1;"/><text fill="#000000" font-family="sans-serif" font-size="13" lengthAdjust="spacing" textLength="48.915" x="571" y="186.3638">inherits</text></g><!--link ISymmetricKeyObject to IKeyObject--><g id="link_ISymmetricKeyObject_IKeyObject"><path codeLine="41" d="M245.09,143.3769 C317.93,171.6369 410.9091,207.7153 502.3191,243.1853 " fill="transparent" id="ISymmetricKeyObject-to-IKeyObject" style="stroke:#181818;stroke-width:1;"/><polygon fill="transparent" points="519.1,249.6969,504.4896,237.5917,500.1485,248.779,519.1,249.6969" style="stroke:#181818;stroke-width:1;"/><text fill="#000000" font-family="sans-serif" font-size="13" lengthAdjust="spacing" textLength="48.915" x="363" y="186.3638">inherits</text></g><!--link IKeySlotObject to ICryptoObject--><g id="link_IKeySlotObject_ICryptoObject"><path codeLine="61" d="M1376.81,387.3369 C1397.48,395.9869 1418.61,404.2369 1439,411.2969 C1528.81,442.3969 1616.3099,463.9973 1692.8499,480.6173 " fill="transparent" id="IKeySlotObject-to-ICryptoObject" style="stroke:#181818;stroke-width:1;"/><polygon fill="transparent" points="1710.44,484.4369,1694.1231,474.754,1691.5767,486.4807,1710.44,484.4369" style="stroke:#181818;stroke-width:1;"/><text fill="#000000" font-family="sans-serif" font-size="13" lengthAdjust="spacing" textLength="48.915" x="1510" y="432.3638">inherits</text></g><!--link ICertSlotObject to ICryptoObject--><g id="link_ICertSlotObject_ICryptoObject"><path codeLine="62" d="M1570.61,346.4169 C1593.69,365.9769 1624.8,391.2269 1654,411.2969 C1682.31,430.7469 1699.1402,441.2893 1727.6402,457.3993 " fill="transparent" id="ICertSlotObject-to-ICryptoObject" style="stroke:#181818;stroke-width:1;"/><polygon fill="transparent" points="1743.31,466.2569,1730.5927,452.176,1724.6877,462.6226,1743.31,466.2569" style="stroke:#181818;stroke-width:1;"/><text fill="#000000" font-family="sans-serif" font-size="13" lengthAdjust="spacing" textLength="48.915" x="1689" y="432.3638">inherits</text></g><!--link ICertificateObject to ICryptoObject--><g id="link_ICertificateObject_ICryptoObject"><path codeLine="77" d="M1817,378.9969 C1817,407.7669 1817,422.8669 1817,448.0369 " fill="transparent" id="ICertificateObject-to-ICryptoObject" style="stroke:#181818;stroke-width:1;"/><polygon fill="transparent" points="1817,466.0369,1823,448.0369,1811,448.0369,1817,466.0369" style="stroke:#181818;stroke-width:1;"/><text fill="#000000" font-family="sans-serif" font-size="13" lengthAdjust="spacing" textLength="48.915" x="1818" y="432.3638">inherits</text></g><!--link IProviderObject to ICryptoObject--><g id="link_IProviderObject_ICryptoObject"><path codeLine="88" d="M2066.22,338.4469 C2044.66,358.8369 2011.53,388.7169 1980,411.2969 C1952.47,431.0069 1936.2461,441.3982 1907.9961,457.2982 " fill="transparent" id="IProviderObject-to-ICryptoObject" style="stroke:#181818;stroke-width:1;"/><polygon fill="transparent" points="1892.31,466.1269,1910.939,462.5269,1905.0532,452.0695,1892.31,466.1269" style="stroke:#181818;stroke-width:1;"/><text fill="#000000" font-family="sans-serif" font-size="13" lengthAdjust="spacing" textLength="48.915" x="1968" y="432.3638">inherits</text></g><!--link IDataObject to ICryptoObject--><g id="link_IDataObject_ICryptoObject"><path codeLine="89" d="M2240.72,338.6569 C2227.94,360.6669 2205.92,392.9369 2178,411.2969 C2101.68,461.4969 2017.7332,482.4803 1941.7032,493.5203 " fill="transparent" id="IDataObject-to-ICryptoObject" style="stroke:#181818;stroke-width:1;"/><polygon fill="transparent" points="1923.89,496.1069,1942.5654,499.458,1940.841,487.5826,1923.89,496.1069" style="stroke:#181818;stroke-width:1;"/><text fill="#000000" font-family="sans-serif" font-size="13" lengthAdjust="spacing" textLength="48.915" x="2161" y="432.3638">inherits</text></g><!--link ISecureObject to ICryptoObject--><g id="link_ISecureObject_ICryptoObject"><path codeLine="90" d="M2397.22,338.4369 C2382.78,360.5969 2358.03,393.2669 2328,411.2969 C2261.33,451.3169 2070.6551,478.2567 1941.5051,492.9167 " fill="transparent" id="ISecureObject-to-ICryptoObject" style="stroke:#181818;stroke-width:1;"/><polygon fill="transparent" points="1923.62,494.9469,1942.1819,498.8784,1940.8284,486.955,1923.62,494.9469" style="stroke:#181818;stroke-width:1;"/><text fill="#000000" font-family="sans-serif" font-size="13" lengthAdjust="spacing" textLength="48.915" x="2307" y="432.3638">inherits</text></g><!--SRC=[lLRBRjim4BphAuXScg3DeK2HWv4QSDsY4Vgm4VKUqDJQPYDf1NBbH7q0_OX-OR-aAuco9Lbs3TYfJXOvE-Jipgv5cY8GWK83Ocpob52Cfhxuy-kt-9Ad48h9x2ie4ZSQZ3HgcNkUlTT9AesCHIhLlLn0G3bp68R9P161vpqJhuzuEFmMaOvbqGc1cKi5mg-4EINVFS7FS_4Uo0_FByJ0wRu5YvbHu8SRG9624b9l5WlUpnCe_02vIwqzbinLGPmrEC-Sp4OIUBULWRN8KRH0esaPbqhNRouFQzWKZDMM857jb3JM6m6-VVUOeY4vYohu335g4_A5FaAoe6MvR_KtkAEj8sDD1E4aPVUHniIMs49AlL9YhELVPIpNfgDxQlHA4lJBlv5sZCQ0JJ49TRAOPhD8AyQsxzp3MWDxI2lb6ohCACt8vIoBwBhIEjn17UHn36HsiPSLY_01mayOGfMG5OFGN5kEIXOjtaRPBoz_33kzCE1pby3bjXLuArTLpEPzAw2JXd_XUxJj2JbLemKHakkCapLRWtD7jnM8_lhvoHnh8nUeuhsD28ZBq8IK2xqkEBHzZOwboQS6Lpe4Ku8pll3BgsxNZJ5EkRMuSMjmosHrqF09UdKCXdQapRSJfR9KGzZRcfs47-3rpbdx8qxXnE90FTUA2tdoqT_3tMFA1ghVc45MBbS3kHmcToiD3nttMfiv0-t4V4Pw0tF-g2XXV8MhLrsRCMGq9qVKYrWFb_qMhnsmhUxfQpeX9ZjvDLkiFNMi-zADjCxkMqcoVoS0bHcN7A-U-4sgG_fcGty8kddaVwZ7I2cmLYJ8m_98ieA3nmmHnWBdxMkpjicCf4xu0tcbPRqvHixr8mbPtWADuF-w9OPsmFZgWsVY-kk5UzyC85whK5isTkZsl5h3smKyl_0W2IlzVm40]--></g></svg>