<svg xmlns="http://www.w3.org/2000/svg" xmlns:xlink="http://www.w3.org/1999/xlink" contentStyleType="text/css" data-diagram-type="CLASS" height="698px" preserveAspectRatio="none" style="width:1616px;height:698px;background:#FFFFFF;" version="1.1" viewBox="0 0 1616 698" width="1616px" zoomAndPan="magnify"><title>Score Crypto API &#8212; Key</title><defs/><g><text fill="#000000" font-family="sans-serif" font-size="14" font-weight="bold" lengthAdjust="spacing" textLength="186.3066" x="707.8467" y="22.9951">Score Crypto API &#8212; Key</text><!--cluster Key Operation Parameters--><g id="cluster_Key Operation Parameters"><rect fill="transparent" height="648" rx="2.5" ry="2.5" style="stroke:#000000;stroke-width:1.5;" width="1603" x="7" y="44.2969"/><text fill="#000000" font-family="sans-serif" font-size="14" font-weight="bold" lengthAdjust="spacing" textLength="209.6309" x="703.6846" y="59.292">Key Operation Parameters</text></g><!--class KdfParameters--><g id="elem_KdfParameters"><rect codeLine="10" fill="#F1F1F1" height="284.4219" id="KdfParameters" rx="2.5" ry="2.5" style="stroke:#181818;stroke-width:0.5;" width="332.8242" x="180.5" y="392.2969"/><ellipse cx="290.7842" cy="412.4297" fill="#ADD1B2" rx="11" ry="11" style="stroke:#181818;stroke-width:1;"/><path d="M293.7529,418.0703 Q293.1748,418.3672 292.5342,418.5078 Q291.8936,418.6641 291.1904,418.6641 Q288.6904,418.6641 287.3623,417.0234 Q286.0498,415.3672 286.0498,412.2422 Q286.0498,409.1172 287.3623,407.4609 Q288.6904,405.8047 291.1904,405.8047 Q291.8936,405.8047 292.5342,405.9609 Q293.1904,406.1172 293.7529,406.4141 L293.7529,409.1328 Q293.1279,408.5547 292.5342,408.2891 Q291.9404,408.0078 291.3154,408.0078 Q289.9717,408.0078 289.2842,409.0859 Q288.5967,410.1484 288.5967,412.2422 Q288.5967,414.3359 289.2842,415.4141 Q289.9717,416.4766 291.3154,416.4766 Q291.9404,416.4766 292.5342,416.2109 Q293.1279,415.9297 293.7529,415.3516 L293.7529,418.0703 Z " fill="#000000"/><text fill="#000000" font-family="sans-serif" font-size="12" font-style="italic" lengthAdjust="spacing" textLength="49.6113" x="338.3564" y="408.4355">&#171;struct&#187;</text><text fill="#000000" font-family="sans-serif" font-size="14" lengthAdjust="spacing" textLength="103.7559" x="311.2842" y="424.2607">KdfParameters</text><line style="stroke:#181818;stroke-width:0.5;" x1="181.5" x2="512.3242" y1="432.5625" y2="432.5625"/><ellipse cx="191.5" cy="446.2109" fill="transparent" rx="3" ry="3" style="stroke:#038048;stroke-width:1;"/><text fill="#000000" font-family="sans-serif" font-size="14" lengthAdjust="spacing" textLength="191.6865" x="200.5" y="449.5576">kdf_algorithm : AlgorithmId</text><ellipse cx="191.5" cy="462.5078" fill="transparent" rx="3" ry="3" style="stroke:#038048;stroke-width:1;"/><text fill="#000000" font-family="sans-serif" font-size="14" lengthAdjust="spacing" textLength="183.4287" x="200.5" y="465.8545">salt : array&lt;uint8_t, 128&gt;</text><ellipse cx="191.5" cy="478.8047" fill="transparent" rx="3" ry="3" style="stroke:#038048;stroke-width:1;"/><text fill="#000000" font-family="sans-serif" font-size="14" lengthAdjust="spacing" textLength="130.1289" x="200.5" y="482.1514">salt_length : size_t</text><ellipse cx="191.5" cy="495.1016" fill="transparent" rx="3" ry="3" style="stroke:#038048;stroke-width:1;"/><text fill="#000000" font-family="sans-serif" font-size="14" lengthAdjust="spacing" textLength="238.3486" x="200.5" y="498.4482">label : FixedCapacityString&lt;128&gt;</text><ellipse cx="191.5" cy="511.3984" fill="transparent" rx="3" ry="3" style="stroke:#038048;stroke-width:1;"/><text fill="#000000" font-family="sans-serif" font-size="14" lengthAdjust="spacing" textLength="191.584" x="200.5" y="514.7451">seed : array&lt;uint8_t, 256&gt;</text><ellipse cx="191.5" cy="527.6953" fill="transparent" rx="3" ry="3" style="stroke:#038048;stroke-width:1;"/><text fill="#000000" font-family="sans-serif" font-size="14" lengthAdjust="spacing" textLength="138.2842" x="200.5" y="531.042">seed_length : size_t</text><ellipse cx="191.5" cy="543.9922" fill="transparent" rx="3" ry="3" style="stroke:#038048;stroke-width:1;"/><text fill="#000000" font-family="sans-serif" font-size="14" lengthAdjust="spacing" textLength="281.0527" x="200.5" y="547.3389">output_key_length : optional&lt;uint32_t&gt;</text><ellipse cx="191.5" cy="560.2891" fill="transparent" rx="3" ry="3" style="stroke:#038048;stroke-width:1;"/><text fill="#000000" font-family="sans-serif" font-size="14" lengthAdjust="spacing" textLength="256.8877" x="200.5" y="563.6357">iteration_count : optional&lt;uint32_t&gt;</text><line style="stroke:#181818;stroke-width:1;" x1="181.5" x2="512.3242" y1="570.9375" y2="570.9375"/><ellipse cx="191.5" cy="584.5859" fill="#84BE84" rx="3" ry="3" style="stroke:#038048;stroke-width:1;"/><text fill="#000000" font-family="sans-serif" font-size="14" lengthAdjust="spacing" textLength="275.1191" x="200.5" y="587.9326">SetKdfAlgorithm(alg) : KdfParameters&amp;</text><ellipse cx="191.5" cy="600.8828" fill="#84BE84" rx="3" ry="3" style="stroke:#038048;stroke-width:1;"/><text fill="#000000" font-family="sans-serif" font-size="14" lengthAdjust="spacing" textLength="220.582" x="200.5" y="604.2295">SetSalt(data) : KdfParameters&amp;</text><ellipse cx="191.5" cy="617.1797" fill="#84BE84" rx="3" ry="3" style="stroke:#038048;stroke-width:1;"/><text fill="#000000" font-family="sans-serif" font-size="14" lengthAdjust="spacing" textLength="216.6377" x="200.5" y="620.5264">SetLabel(lbl) : KdfParameters&amp;</text><ellipse cx="191.5" cy="633.4766" fill="#84BE84" rx="3" ry="3" style="stroke:#038048;stroke-width:1;"/><text fill="#000000" font-family="sans-serif" font-size="14" lengthAdjust="spacing" textLength="228.7373" x="200.5" y="636.8232">SetSeed(data) : KdfParameters&amp;</text><ellipse cx="191.5" cy="649.7734" fill="#84BE84" rx="3" ry="3" style="stroke:#038048;stroke-width:1;"/><text fill="#000000" font-family="sans-serif" font-size="14" lengthAdjust="spacing" textLength="306.8242" x="200.5" y="653.1201">SetOutputKeyLength(len) : KdfParameters&amp;</text><ellipse cx="191.5" cy="666.0703" fill="#84BE84" rx="3" ry="3" style="stroke:#038048;stroke-width:1;"/><text fill="#000000" font-family="sans-serif" font-size="14" lengthAdjust="spacing" textLength="302.6611" x="200.5" y="669.417">SetIterationCount(count) : KdfParameters&amp;</text></g><!--class GenerateKeyParams--><g id="elem_GenerateKeyParams"><rect codeLine="28" fill="#F1F1F1" height="121.4531" id="GenerateKeyParams" rx="2.5" ry="2.5" style="stroke:#181818;stroke-width:0.5;" width="355.9365" x="845" y="136.7969"/><ellipse cx="946.8418" cy="156.9297" fill="#ADD1B2" rx="11" ry="11" style="stroke:#181818;stroke-width:1;"/><path d="M949.8105,162.5703 Q949.2324,162.8672 948.5918,163.0078 Q947.9512,163.1641 947.248,163.1641 Q944.748,163.1641 943.4199,161.5234 Q942.1074,159.8672 942.1074,156.7422 Q942.1074,153.6172 943.4199,151.9609 Q944.748,150.3047 947.248,150.3047 Q947.9512,150.3047 948.5918,150.4609 Q949.248,150.6172 949.8105,150.9141 L949.8105,153.6328 Q949.1855,153.0547 948.5918,152.7891 Q947.998,152.5078 947.373,152.5078 Q946.0293,152.5078 945.3418,153.5859 Q944.6543,154.6484 944.6543,156.7422 Q944.6543,158.8359 945.3418,159.9141 Q946.0293,160.9766 947.373,160.9766 Q947.998,160.9766 948.5918,160.7109 Q949.1855,160.4297 949.8105,159.8516 L949.8105,162.5703 Z " fill="#000000"/><text fill="#000000" font-family="sans-serif" font-size="12" font-style="italic" lengthAdjust="spacing" textLength="49.6113" x="1014.4126" y="152.9355">&#171;struct&#187;</text><text fill="#000000" font-family="sans-serif" font-size="14" lengthAdjust="spacing" textLength="143.7529" x="967.3418" y="168.7607">GenerateKeyParams</text><line style="stroke:#181818;stroke-width:0.5;" x1="846" x2="1199.9365" y1="177.0625" y2="177.0625"/><ellipse cx="856" cy="190.7109" fill="transparent" rx="3" ry="3" style="stroke:#038048;stroke-width:1;"/><text fill="#000000" font-family="sans-serif" font-size="14" lengthAdjust="spacing" textLength="162.7637" x="865" y="194.0576">algorithm : AlgorithmId</text><ellipse cx="856" cy="207.0078" fill="transparent" rx="3" ry="3" style="stroke:#038048;stroke-width:1;"/><text fill="#000000" font-family="sans-serif" font-size="14" lengthAdjust="spacing" textLength="269.6162" x="865" y="210.3545">permissions : KeyOperationPermission</text><line style="stroke:#181818;stroke-width:1;" x1="846" x2="1199.9365" y1="217.6563" y2="217.6563"/><ellipse cx="856" cy="231.3047" fill="#84BE84" rx="3" ry="3" style="stroke:#038048;stroke-width:1;"/><text fill="#000000" font-family="sans-serif" font-size="14" lengthAdjust="spacing" textLength="292.1201" x="865" y="234.6514">SetAlgorithm(alg) : GenerateKeyParams&amp;</text><ellipse cx="856" cy="247.6016" fill="#84BE84" rx="3" ry="3" style="stroke:#038048;stroke-width:1;"/><text fill="#000000" font-family="sans-serif" font-size="14" lengthAdjust="spacing" textLength="329.9365" x="865" y="250.9482">SetPermissions(perms) : GenerateKeyParams&amp;</text></g><!--class DeriveKeyParams--><g id="elem_DeriveKeyParams"><rect codeLine="36" fill="#F1F1F1" height="186.6406" id="DeriveKeyParams" rx="2.5" ry="2.5" style="stroke:#181818;stroke-width:0.5;" width="379.5752" x="430" y="103.7969"/><ellipse cx="553.3853" cy="123.9297" fill="#ADD1B2" rx="11" ry="11" style="stroke:#181818;stroke-width:1;"/><path d="M556.354,129.5703 Q555.7759,129.8672 555.1353,130.0078 Q554.4946,130.1641 553.7915,130.1641 Q551.2915,130.1641 549.9634,128.5234 Q548.6509,126.8672 548.6509,123.7422 Q548.6509,120.6172 549.9634,118.9609 Q551.2915,117.3047 553.7915,117.3047 Q554.4946,117.3047 555.1353,117.4609 Q555.7915,117.6172 556.354,117.9141 L556.354,120.6328 Q555.729,120.0547 555.1353,119.7891 Q554.5415,119.5078 553.9165,119.5078 Q552.5728,119.5078 551.8853,120.5859 Q551.1978,121.6484 551.1978,123.7422 Q551.1978,125.8359 551.8853,126.9141 Q552.5728,127.9766 553.9165,127.9766 Q554.5415,127.9766 555.1353,127.7109 Q555.729,127.4297 556.354,126.8516 L556.354,129.5703 Z " fill="#000000"/><text fill="#000000" font-family="sans-serif" font-size="12" font-style="italic" lengthAdjust="spacing" textLength="49.6113" x="611.2319" y="119.9355">&#171;struct&#187;</text><text fill="#000000" font-family="sans-serif" font-size="14" lengthAdjust="spacing" textLength="124.3047" x="573.8853" y="135.7607">DeriveKeyParams</text><line style="stroke:#181818;stroke-width:0.5;" x1="431" x2="808.5752" y1="144.0625" y2="144.0625"/><ellipse cx="441" cy="157.7109" fill="transparent" rx="3" ry="3" style="stroke:#038048;stroke-width:1;"/><text fill="#000000" font-family="sans-serif" font-size="14" lengthAdjust="spacing" textLength="217.335" x="450" y="161.0576">source_key : CryptoResourceId</text><ellipse cx="441" cy="174.0078" fill="transparent" rx="3" ry="3" style="stroke:#038048;stroke-width:1;"/><text fill="#000000" font-family="sans-serif" font-size="14" lengthAdjust="spacing" textLength="254.7002" x="450" y="177.3545">derived_key_algorithm : AlgorithmId</text><ellipse cx="441" cy="190.3047" fill="transparent" rx="3" ry="3" style="stroke:#038048;stroke-width:1;"/><text fill="#000000" font-family="sans-serif" font-size="14" lengthAdjust="spacing" textLength="139.2959" x="450" y="193.6514">kdf : KdfParameters</text><ellipse cx="441" cy="206.6016" fill="transparent" rx="3" ry="3" style="stroke:#038048;stroke-width:1;"/><text fill="#000000" font-family="sans-serif" font-size="14" lengthAdjust="spacing" textLength="269.6162" x="450" y="209.9482">permissions : KeyOperationPermission</text><line style="stroke:#181818;stroke-width:1;" x1="431" x2="808.5752" y1="217.25" y2="217.25"/><ellipse cx="441" cy="230.8984" fill="#84BE84" rx="3" ry="3" style="stroke:#038048;stroke-width:1;"/><text fill="#000000" font-family="sans-serif" font-size="14" lengthAdjust="spacing" textLength="269.999" x="450" y="234.2451">SetSourceKey(id) : DeriveKeyParams&amp;</text><ellipse cx="441" cy="247.1953" fill="#84BE84" rx="3" ry="3" style="stroke:#038048;stroke-width:1;"/><text fill="#000000" font-family="sans-serif" font-size="14" lengthAdjust="spacing" textLength="353.5752" x="450" y="250.542">SetDerivedKeyAlgorithm(alg) : DeriveKeyParams&amp;</text><ellipse cx="441" cy="263.4922" fill="#84BE84" rx="3" ry="3" style="stroke:#038048;stroke-width:1;"/><text fill="#000000" font-family="sans-serif" font-size="14" lengthAdjust="spacing" textLength="227.6709" x="450" y="266.8389">SetKdf(kdf) : DeriveKeyParams&amp;</text><ellipse cx="441" cy="279.7891" fill="#84BE84" rx="3" ry="3" style="stroke:#038048;stroke-width:1;"/><text fill="#000000" font-family="sans-serif" font-size="14" lengthAdjust="spacing" textLength="310.4883" x="450" y="283.1357">SetPermissions(perms) : DeriveKeyParams&amp;</text></g><!--class AgreeKeyParams--><g id="elem_AgreeKeyParams"><rect codeLine="48" fill="#F1F1F1" height="235.5313" id="AgreeKeyParams" rx="2.5" ry="2.5" style="stroke:#181818;stroke-width:0.5;" width="372.2402" x="23" y="79.2969"/><ellipse cx="144.9634" cy="99.4297" fill="#ADD1B2" rx="11" ry="11" style="stroke:#181818;stroke-width:1;"/><path d="M147.9321,105.0703 Q147.354,105.3672 146.7134,105.5078 Q146.0728,105.6641 145.3696,105.6641 Q142.8696,105.6641 141.5415,104.0234 Q140.229,102.3672 140.229,99.2422 Q140.229,96.1172 141.5415,94.4609 Q142.8696,92.8047 145.3696,92.8047 Q146.0728,92.8047 146.7134,92.9609 Q147.3696,93.1172 147.9321,93.4141 L147.9321,96.1328 Q147.3071,95.5547 146.7134,95.2891 Q146.1196,95.0078 145.4946,95.0078 Q144.1509,95.0078 143.4634,96.0859 Q142.7759,97.1484 142.7759,99.2422 Q142.7759,101.3359 143.4634,102.4141 Q144.1509,103.4766 145.4946,103.4766 Q146.1196,103.4766 146.7134,103.2109 Q147.3071,102.9297 147.9321,102.3516 L147.9321,105.0703 Z " fill="#000000"/><text fill="#000000" font-family="sans-serif" font-size="12" font-style="italic" lengthAdjust="spacing" textLength="49.6113" x="200.5645" y="95.4355">&#171;struct&#187;</text><text fill="#000000" font-family="sans-serif" font-size="14" lengthAdjust="spacing" textLength="119.8135" x="165.4634" y="111.2607">AgreeKeyParams</text><line style="stroke:#181818;stroke-width:0.5;" x1="24" x2="394.2402" y1="119.5625" y2="119.5625"/><ellipse cx="34" cy="133.2109" fill="transparent" rx="3" ry="3" style="stroke:#038048;stroke-width:1;"/><text fill="#000000" font-family="sans-serif" font-size="14" lengthAdjust="spacing" textLength="220.0352" x="43" y="136.5576">private_key : CryptoResourceId</text><ellipse cx="34" cy="149.5078" fill="transparent" rx="3" ry="3" style="stroke:#038048;stroke-width:1;"/><text fill="#000000" font-family="sans-serif" font-size="14" lengthAdjust="spacing" textLength="274.5996" x="43" y="152.8545">peer_public_key : span&lt;const uint8_t&gt;</text><ellipse cx="34" cy="165.8047" fill="transparent" rx="3" ry="3" style="stroke:#038048;stroke-width:1;"/><text fill="#000000" font-family="sans-serif" font-size="14" lengthAdjust="spacing" textLength="246.8252" x="43" y="169.1514">agreement_algorithm : AlgorithmId</text><ellipse cx="34" cy="182.1016" fill="transparent" rx="3" ry="3" style="stroke:#038048;stroke-width:1;"/><text fill="#000000" font-family="sans-serif" font-size="14" lengthAdjust="spacing" textLength="306.3184" x="43" y="185.4482">public_key_format : optional&lt;FormatType&gt;</text><ellipse cx="34" cy="198.3984" fill="transparent" rx="3" ry="3" style="stroke:#038048;stroke-width:1;"/><text fill="#000000" font-family="sans-serif" font-size="14" lengthAdjust="spacing" textLength="334.8994" x="43" y="201.7451">derived_key_algorithm : optional&lt;AlgorithmId&gt;</text><ellipse cx="34" cy="214.6953" fill="transparent" rx="3" ry="3" style="stroke:#038048;stroke-width:1;"/><text fill="#000000" font-family="sans-serif" font-size="14" lengthAdjust="spacing" textLength="219.4951" x="43" y="218.042">kdf : optional&lt;KdfParameters&gt;</text><ellipse cx="34" cy="230.9922" fill="transparent" rx="3" ry="3" style="stroke:#038048;stroke-width:1;"/><text fill="#000000" font-family="sans-serif" font-size="14" lengthAdjust="spacing" textLength="269.6162" x="43" y="234.3389">permissions : KeyOperationPermission</text><line style="stroke:#181818;stroke-width:1;" x1="24" x2="394.2402" y1="241.6406" y2="241.6406"/><ellipse cx="34" cy="255.2891" fill="#84BE84" rx="3" ry="3" style="stroke:#038048;stroke-width:1;"/><text fill="#000000" font-family="sans-serif" font-size="14" lengthAdjust="spacing" textLength="266.1709" x="43" y="258.6357">SetPrivateKey(id) : AgreeKeyParams&amp;</text><ellipse cx="34" cy="271.5859" fill="#84BE84" rx="3" ry="3" style="stroke:#038048;stroke-width:1;"/><text fill="#000000" font-family="sans-serif" font-size="14" lengthAdjust="spacing" textLength="308.9775" x="43" y="274.9326">SetPeerPublicKey(data) : AgreeKeyParams&amp;</text><ellipse cx="34" cy="287.8828" fill="#84BE84" rx="3" ry="3" style="stroke:#038048;stroke-width:1;"/><text fill="#000000" font-family="sans-serif" font-size="14" lengthAdjust="spacing" textLength="346.2402" x="43" y="291.2295">SetAgreementAlgorithm(alg) : AgreeKeyParams&amp;</text><ellipse cx="34" cy="304.1797" fill="#84BE84" rx="3" ry="3" style="stroke:#038048;stroke-width:1;"/><text fill="#000000" font-family="sans-serif" font-size="14" lengthAdjust="spacing" textLength="223.1797" x="43" y="307.5264">SetKdf(kdf) : AgreeKeyParams&amp;</text></g><!--class WrapKeyParams--><g id="elem_WrapKeyParams"><rect codeLine="63" fill="#F1F1F1" height="219.2344" id="WrapKeyParams" rx="2.5" ry="2.5" style="stroke:#181818;stroke-width:0.5;" width="357.3994" x="1236.5" y="87.7969"/><ellipse cx="1353.2339" cy="107.9297" fill="#ADD1B2" rx="11" ry="11" style="stroke:#181818;stroke-width:1;"/><path d="M1356.2026,113.5703 Q1355.6245,113.8672 1354.9839,114.0078 Q1354.3433,114.1641 1353.6401,114.1641 Q1351.1401,114.1641 1349.812,112.5234 Q1348.4995,110.8672 1348.4995,107.7422 Q1348.4995,104.6172 1349.812,102.9609 Q1351.1401,101.3047 1353.6401,101.3047 Q1354.3433,101.3047 1354.9839,101.4609 Q1355.6401,101.6172 1356.2026,101.9141 L1356.2026,104.6328 Q1355.5776,104.0547 1354.9839,103.7891 Q1354.3901,103.5078 1353.7651,103.5078 Q1352.4214,103.5078 1351.7339,104.5859 Q1351.0464,105.6484 1351.0464,107.7422 Q1351.0464,109.8359 1351.7339,110.9141 Q1352.4214,111.9766 1353.7651,111.9766 Q1354.3901,111.9766 1354.9839,111.7109 Q1355.5776,111.4297 1356.2026,110.8516 L1356.2026,113.5703 Z " fill="#000000"/><text fill="#000000" font-family="sans-serif" font-size="12" font-style="italic" lengthAdjust="spacing" textLength="49.6113" x="1406.644" y="103.9355">&#171;struct&#187;</text><text fill="#000000" font-family="sans-serif" font-size="14" lengthAdjust="spacing" textLength="115.4316" x="1373.7339" y="119.7607">WrapKeyParams</text><line style="stroke:#181818;stroke-width:0.5;" x1="1237.5" x2="1592.8994" y1="128.0625" y2="128.0625"/><ellipse cx="1247.5" cy="141.7109" fill="transparent" rx="3" ry="3" style="stroke:#038048;stroke-width:1;"/><text fill="#000000" font-family="sans-serif" font-size="14" lengthAdjust="spacing" textLength="226.2627" x="1256.5" y="145.0576">key_to_wrap : CryptoResourceId</text><ellipse cx="1247.5" cy="158.0078" fill="transparent" rx="3" ry="3" style="stroke:#038048;stroke-width:1;"/><text fill="#000000" font-family="sans-serif" font-size="14" lengthAdjust="spacing" textLength="235.7441" x="1256.5" y="161.3545">wrapping_key : CryptoResourceId</text><ellipse cx="1247.5" cy="174.3047" fill="transparent" rx="3" ry="3" style="stroke:#038048;stroke-width:1;"/><text fill="#000000" font-family="sans-serif" font-size="14" lengthAdjust="spacing" textLength="315.1709" x="1256.5" y="177.6514">wrapping_algorithm : optional&lt;AlgorithmId&gt;</text><ellipse cx="1247.5" cy="190.6016" fill="transparent" rx="3" ry="3" style="stroke:#038048;stroke-width:1;"/><text fill="#000000" font-family="sans-serif" font-size="14" lengthAdjust="spacing" textLength="173.7764" x="1256.5" y="193.9482">iv : span&lt;const uint8_t&gt;</text><ellipse cx="1247.5" cy="206.8984" fill="transparent" rx="3" ry="3" style="stroke:#038048;stroke-width:1;"/><text fill="#000000" font-family="sans-serif" font-size="14" lengthAdjust="spacing" textLength="187.6465" x="1256.5" y="210.2451">aad : span&lt;const uint8_t&gt;</text><line style="stroke:#181818;stroke-width:1;" x1="1237.5" x2="1592.8994" y1="217.5469" y2="217.5469"/><ellipse cx="1247.5" cy="231.1953" fill="#84BE84" rx="3" ry="3" style="stroke:#038048;stroke-width:1;"/><text fill="#000000" font-family="sans-serif" font-size="14" lengthAdjust="spacing" textLength="266.916" x="1256.5" y="234.542">SetKeyToWrap(id) : WrapKeyParams&amp;</text><ellipse cx="1247.5" cy="247.4922" fill="#84BE84" rx="3" ry="3" style="stroke:#038048;stroke-width:1;"/><text fill="#000000" font-family="sans-serif" font-size="14" lengthAdjust="spacing" textLength="280.335" x="1256.5" y="250.8389">SetWrappingKey(id) : WrapKeyParams&amp;</text><ellipse cx="1247.5" cy="263.7891" fill="#84BE84" rx="3" ry="3" style="stroke:#038048;stroke-width:1;"/><text fill="#000000" font-family="sans-serif" font-size="14" lengthAdjust="spacing" textLength="331.3994" x="1256.5" y="267.1357">SetWrappingAlgorithm(alg) : WrapKeyParams&amp;</text><ellipse cx="1247.5" cy="280.0859" fill="#84BE84" rx="3" ry="3" style="stroke:#038048;stroke-width:1;"/><text fill="#000000" font-family="sans-serif" font-size="14" lengthAdjust="spacing" textLength="217.8271" x="1256.5" y="283.4326">SetIv(data) : WrapKeyParams&amp;</text><ellipse cx="1247.5" cy="296.3828" fill="#84BE84" rx="3" ry="3" style="stroke:#038048;stroke-width:1;"/><text fill="#000000" font-family="sans-serif" font-size="14" lengthAdjust="spacing" textLength="232.4561" x="1256.5" y="299.7295">SetAad(data) : WrapKeyParams&amp;</text></g><!--class UnwrapKeyParams--><g id="elem_UnwrapKeyParams"><rect codeLine="77" fill="#F1F1F1" height="219.2344" id="UnwrapKeyParams" rx="2.5" ry="2.5" style="stroke:#181818;stroke-width:0.5;" width="368.8496" x="838.5" y="424.7969"/><ellipse cx="952.5952" cy="444.9297" fill="#ADD1B2" rx="11" ry="11" style="stroke:#181818;stroke-width:1;"/><path d="M955.564,450.5703 Q954.9858,450.8672 954.3452,451.0078 Q953.7046,451.1641 953.0015,451.1641 Q950.5015,451.1641 949.1733,449.5234 Q947.8608,447.8672 947.8608,444.7422 Q947.8608,441.6172 949.1733,439.9609 Q950.5015,438.3047 953.0015,438.3047 Q953.7046,438.3047 954.3452,438.4609 Q955.0015,438.6172 955.564,438.9141 L955.564,441.6328 Q954.939,441.0547 954.3452,440.7891 Q953.7515,440.5078 953.1265,440.5078 Q951.7827,440.5078 951.0952,441.5859 Q950.4077,442.6484 950.4077,444.7422 Q950.4077,446.8359 951.0952,447.9141 Q951.7827,448.9766 953.1265,448.9766 Q953.7515,448.9766 954.3452,448.7109 Q954.939,448.4297 955.564,447.8516 L955.564,450.5703 Z " fill="#000000"/><text fill="#000000" font-family="sans-serif" font-size="12" font-style="italic" lengthAdjust="spacing" textLength="49.6113" x="1014.3691" y="440.9355">&#171;struct&#187;</text><text fill="#000000" font-family="sans-serif" font-size="14" lengthAdjust="spacing" textLength="132.1592" x="973.0952" y="456.7607">UnwrapKeyParams</text><line style="stroke:#181818;stroke-width:0.5;" x1="839.5" x2="1206.3496" y1="465.0625" y2="465.0625"/><ellipse cx="849.5" cy="478.7109" fill="transparent" rx="3" ry="3" style="stroke:#038048;stroke-width:1;"/><text fill="#000000" font-family="sans-serif" font-size="14" lengthAdjust="spacing" textLength="261.1943" x="858.5" y="482.0576">wrapped_data : span&lt;const uint8_t&gt;</text><ellipse cx="849.5" cy="495.0078" fill="transparent" rx="3" ry="3" style="stroke:#038048;stroke-width:1;"/><text fill="#000000" font-family="sans-serif" font-size="14" lengthAdjust="spacing" textLength="235.7441" x="858.5" y="498.3545">wrapping_key : CryptoResourceId</text><ellipse cx="849.5" cy="511.3047" fill="transparent" rx="3" ry="3" style="stroke:#038048;stroke-width:1;"/><text fill="#000000" font-family="sans-serif" font-size="14" lengthAdjust="spacing" textLength="237.7744" x="858.5" y="514.6514">inner_key_algorithm : AlgorithmId</text><ellipse cx="849.5" cy="527.6016" fill="transparent" rx="3" ry="3" style="stroke:#038048;stroke-width:1;"/><text fill="#000000" font-family="sans-serif" font-size="14" lengthAdjust="spacing" textLength="315.1709" x="858.5" y="530.9482">wrapping_algorithm : optional&lt;AlgorithmId&gt;</text><ellipse cx="849.5" cy="543.8984" fill="transparent" rx="3" ry="3" style="stroke:#038048;stroke-width:1;"/><text fill="#000000" font-family="sans-serif" font-size="14" lengthAdjust="spacing" textLength="173.7764" x="858.5" y="547.2451">iv : span&lt;const uint8_t&gt;</text><ellipse cx="849.5" cy="560.1953" fill="transparent" rx="3" ry="3" style="stroke:#038048;stroke-width:1;"/><text fill="#000000" font-family="sans-serif" font-size="14" lengthAdjust="spacing" textLength="187.6465" x="858.5" y="563.542">aad : span&lt;const uint8_t&gt;</text><ellipse cx="849.5" cy="576.4922" fill="transparent" rx="3" ry="3" style="stroke:#038048;stroke-width:1;"/><text fill="#000000" font-family="sans-serif" font-size="14" lengthAdjust="spacing" textLength="269.6162" x="858.5" y="579.8389">permissions : KeyOperationPermission</text><line style="stroke:#181818;stroke-width:1;" x1="839.5" x2="1206.3496" y1="587.1406" y2="587.1406"/><ellipse cx="849.5" cy="600.7891" fill="#84BE84" rx="3" ry="3" style="stroke:#038048;stroke-width:1;"/><text fill="#000000" font-family="sans-serif" font-size="14" lengthAdjust="spacing" textLength="319.0195" x="858.5" y="604.1357">SetWrappedData(data) : UnwrapKeyParams&amp;</text><ellipse cx="849.5" cy="617.0859" fill="#84BE84" rx="3" ry="3" style="stroke:#038048;stroke-width:1;"/><text fill="#000000" font-family="sans-serif" font-size="14" lengthAdjust="spacing" textLength="297.0625" x="858.5" y="620.4326">SetWrappingKey(id) : UnwrapKeyParams&amp;</text><ellipse cx="849.5" cy="633.3828" fill="#84BE84" rx="3" ry="3" style="stroke:#038048;stroke-width:1;"/><text fill="#000000" font-family="sans-serif" font-size="14" lengthAdjust="spacing" textLength="342.8496" x="858.5" y="636.7295">SetInnerKeyAlgorithm(alg) : UnwrapKeyParams&amp;</text></g><!--class ImportKeyParams--><g id="elem_ImportKeyParams"><rect codeLine="91" fill="#F1F1F1" height="170.3438" id="ImportKeyParams" rx="2.5" ry="2.5" style="stroke:#181818;stroke-width:0.5;" width="300.3193" x="1243" y="449.2969"/><ellipse cx="1326.4941" cy="469.4297" fill="#ADD1B2" rx="11" ry="11" style="stroke:#181818;stroke-width:1;"/><path d="M1329.4629,475.0703 Q1328.8848,475.3672 1328.2441,475.5078 Q1327.6035,475.6641 1326.9004,475.6641 Q1324.4004,475.6641 1323.0723,474.0234 Q1321.7598,472.3672 1321.7598,469.2422 Q1321.7598,466.1172 1323.0723,464.4609 Q1324.4004,462.8047 1326.9004,462.8047 Q1327.6035,462.8047 1328.2441,462.9609 Q1328.9004,463.1172 1329.4629,463.4141 L1329.4629,466.1328 Q1328.8379,465.5547 1328.2441,465.2891 Q1327.6504,465.0078 1327.0254,465.0078 Q1325.6816,465.0078 1324.9941,466.0859 Q1324.3066,467.1484 1324.3066,469.2422 Q1324.3066,471.3359 1324.9941,472.4141 Q1325.6816,473.4766 1327.0254,473.4766 Q1327.6504,473.4766 1328.2441,473.2109 Q1328.8379,472.9297 1329.4629,472.3516 L1329.4629,475.0703 Z " fill="#000000"/><text fill="#000000" font-family="sans-serif" font-size="12" font-style="italic" lengthAdjust="spacing" textLength="49.6113" x="1384.604" y="465.4355">&#171;struct&#187;</text><text fill="#000000" font-family="sans-serif" font-size="14" lengthAdjust="spacing" textLength="124.8311" x="1346.9941" y="481.2607">ImportKeyParams</text><line style="stroke:#181818;stroke-width:0.5;" x1="1244" x2="1542.3193" y1="489.5625" y2="489.5625"/><ellipse cx="1254" cy="503.2109" fill="transparent" rx="3" ry="3" style="stroke:#038048;stroke-width:1;"/><text fill="#000000" font-family="sans-serif" font-size="14" lengthAdjust="spacing" textLength="225.1416" x="1263" y="506.5576">key_data : span&lt;const uint8_t&gt;</text><ellipse cx="1254" cy="519.5078" fill="transparent" rx="3" ry="3" style="stroke:#038048;stroke-width:1;"/><text fill="#000000" font-family="sans-serif" font-size="14" lengthAdjust="spacing" textLength="144.9902" x="1263" y="522.8545">format : FormatType</text><ellipse cx="1254" cy="535.8047" fill="transparent" rx="3" ry="3" style="stroke:#038048;stroke-width:1;"/><text fill="#000000" font-family="sans-serif" font-size="14" lengthAdjust="spacing" textLength="162.7637" x="1263" y="539.1514">algorithm : AlgorithmId</text><ellipse cx="1254" cy="552.1016" fill="transparent" rx="3" ry="3" style="stroke:#038048;stroke-width:1;"/><text fill="#000000" font-family="sans-serif" font-size="14" lengthAdjust="spacing" textLength="269.6162" x="1263" y="555.4482">permissions : KeyOperationPermission</text><line style="stroke:#181818;stroke-width:1;" x1="1244" x2="1542.3193" y1="562.75" y2="562.75"/><ellipse cx="1254" cy="576.3984" fill="#84BE84" rx="3" ry="3" style="stroke:#038048;stroke-width:1;"/><text fill="#000000" font-family="sans-serif" font-size="14" lengthAdjust="spacing" textLength="274.3193" x="1263" y="579.7451">SetKeyData(data) : ImportKeyParams&amp;</text><ellipse cx="1254" cy="592.6953" fill="#84BE84" rx="3" ry="3" style="stroke:#038048;stroke-width:1;"/><text fill="#000000" font-family="sans-serif" font-size="14" lengthAdjust="spacing" textLength="257.4141" x="1263" y="596.042">SetFormat(fmt) : ImportKeyParams&amp;</text><ellipse cx="1254" cy="608.9922" fill="#84BE84" rx="3" ry="3" style="stroke:#038048;stroke-width:1;"/><text fill="#000000" font-family="sans-serif" font-size="14" lengthAdjust="spacing" textLength="273.1982" x="1263" y="612.3389">SetAlgorithm(alg) : ImportKeyParams&amp;</text></g><!--link DeriveKeyParams to KdfParameters--><g id="link_DeriveKeyParams_KdfParameters"><path codeLine="102" d="M544.32,291.1669 C518.83,322.4369 493.5801,353.4255 465.7701,387.5555 " fill="transparent" id="DeriveKeyParams-to-KdfParameters" style="stroke:#181818;stroke-width:1;"/><polygon fill="#181818" points="461.98,392.2069,470.766,387.7565,465.1384,388.3307,464.5642,382.7031,461.98,392.2069" style="stroke:#181818;stroke-width:1;"/><text fill="#000000" font-family="sans-serif" font-size="13" lengthAdjust="spacing" textLength="29.7832" x="500" y="358.3638">uses</text></g><!--link AgreeKeyParams to KdfParameters--><g id="link_AgreeKeyParams_KdfParameters"><path codeLine="103" d="M257.27,315.4669 C267.45,340.1769 276.0036,360.9596 286.5136,386.4596 " fill="transparent" id="AgreeKeyParams-to-KdfParameters" style="stroke:#181818;stroke-width:1;"/><polygon fill="#181818" points="288.8,392.0069,289.0687,382.1617,286.8947,387.3841,281.6723,385.2102,288.8,392.0069" style="stroke:#181818;stroke-width:1;"/><text fill="#000000" font-family="sans-serif" font-size="13" lengthAdjust="spacing" textLength="97.9063" x="274" y="358.3638">optionally uses</text></g><!--SRC=[nLVRQjj047tNLonzQ5LQFpIb9GHNO19IJ08nTKeUnKOQEujrOtUKL2s1VaI_i5_IMKdMtLgLX5PFmNlEpEuvHxCA2Wo0hRrO0ZkLMO8nMwoMxFVFN-m2CijIEn4bNFAG9TpRyIsiCIE210zvj0t0ibwnJqzuY4vzs5K2agE88xRIpG11ggTMBZVCNXngy8Bzi1WzNi2LOXV-fbvYyxb2cNheE2L8Fs_Opj-uFDZ6Kk1To4xOOl_tqc-W50-G5hcKF9kd8i9Z5z-oTqV7JWVa1X1jyOwmIdm75nlB0R-5W1REnJVmJpaTHc2sHYcYxRnR2S3ljplwyB4B6caNfvYawEuWgq5neWNZGLxp_P6BpNe2Iq5TBquZ78VFPhC6TGr8ObVIsIJeQ-At37ZPngz9BDldo4t0IosR7Tm6neganwIALxaobA7BN1URv35HbdjjJhKqTYxG0SwZrOZWPuWq4QXPZZiOGtC4AUwXK8hse7HZoAeNO5Mj7BQdvqrlPvqJrqMLhLkh4LBho6SWnRtvm2fEfGSwdbItc5DVeFYnTMm_B-VdEJQBH6zprvLdat2TRuvOjl2r69s3TlGhLdrQxaa_JgJDstGCCt3GeK5Aov_5LeBPdeJAaD5cVn80wIRfRI2y4gmI7iqzsXMoSdGrfmpNxKE8S8ARTLbt4ykGjsRIUVxBTPQ0Co4k5QtHoUa5fqAr4kGyMuHMXQfrXjfcz0m6kSebq8JzP1kbBFRgza8tIcjaRWZNoi-Dv8anFbf-ZDq7mex7HoCIkW7DGQkGVsEhk3S7ali6JF-kW-mwrZgKBhOawKXxKswxzdmAkcVV66bvNuLZ3BRW_XYkPVBNw66ApRadzBRfiaQXfrij8hfc9axy_nUBfmw3cqAyCzAkygMZkp5Bu_Ybrd7e1XgajGAm39DOugJtV9BvrVokn_O__FeXV4lcpkawiXLRj3SXch4zQGVXfRJTJwFPpEdyatB2KWN59qlddXx2xcCUP0NjqVe3]--></g></svg>