<svg xmlns="http://www.w3.org/2000/svg" xmlns:xlink="http://www.w3.org/1999/xlink" contentStyleType="text/css" data-diagram-type="CLASS" height="494px" preserveAspectRatio="none" style="width:1357px;height:494px;background:#FFFFFF;" version="1.1" viewBox="0 0 1357 494" width="1357px" zoomAndPan="magnify"><title>Score Crypto API &#8212; Resource Management</title><defs/><g><text fill="#000000" font-family="sans-serif" font-size="14" font-weight="bold" lengthAdjust="spacing" textLength="337.6543" x="502.6729" y="22.9951">Score Crypto API &#8212; Resource Management</text><!--cluster Resource Management--><g id="cluster_Resource Management"><rect fill="transparent" height="444" rx="2.5" ry="2.5" style="stroke:#000000;stroke-width:1.5;" width="1344" x="7" y="44.2969"/><text fill="#000000" font-family="sans-serif" font-size="14" font-weight="bold" lengthAdjust="spacing" textLength="180.8174" x="588.5913" y="59.292">Resource Management</text></g><!--class CryptoResourceGuard--><g id="elem_CryptoResourceGuard"><rect codeLine="10" fill="#F1F1F1" height="162.0781" id="CryptoResourceGuard" rx="2.5" ry="2.5" style="stroke:#181818;stroke-width:0.5;" width="450.6279" x="884.5" y="79.2969"/><ellipse cx="1028.1436" cy="95.2969" fill="#ADD1B2" rx="11" ry="11" style="stroke:#181818;stroke-width:1;"/><path d="M1031.1123,100.9375 Q1030.5342,101.2344 1029.8936,101.375 Q1029.2529,101.5313 1028.5498,101.5313 Q1026.0498,101.5313 1024.7217,99.8906 Q1023.4092,98.2344 1023.4092,95.1094 Q1023.4092,91.9844 1024.7217,90.3281 Q1026.0498,88.6719 1028.5498,88.6719 Q1029.2529,88.6719 1029.8936,88.8281 Q1030.5498,88.9844 1031.1123,89.2813 L1031.1123,92 Q1030.4873,91.4219 1029.8936,91.1563 Q1029.2998,90.875 1028.6748,90.875 Q1027.3311,90.875 1026.6436,91.9531 Q1025.9561,93.0156 1025.9561,95.1094 Q1025.9561,97.2031 1026.6436,98.2813 Q1027.3311,99.3438 1028.6748,99.3438 Q1029.2998,99.3438 1029.8936,99.0781 Q1030.4873,98.7969 1031.1123,98.2188 L1031.1123,100.9375 Z " fill="#000000"/><text fill="#000000" font-family="sans-serif" font-size="14" lengthAdjust="spacing" textLength="154.8408" x="1048.6436" y="100.1436">CryptoResourceGuard</text><line style="stroke:#181818;stroke-width:0.5;" x1="885.5" x2="1334.1279" y1="111.2969" y2="111.2969"/><rect fill="transparent" height="6" style="stroke:#C82930;stroke-width:1;" width="6" x="892.5" y="121.9453"/><text fill="#000000" font-family="sans-serif" font-size="14" lengthAdjust="spacing" textLength="424.6279" x="904.5" y="128.292">release_handle_ : shared_ptr&lt;void&gt;  // internal, type-erased</text><rect fill="transparent" height="6" style="stroke:#C82930;stroke-width:1;" width="6" x="892.5" y="138.2422"/><text fill="#000000" font-family="sans-serif" font-size="14" lengthAdjust="spacing" textLength="158.3066" x="904.5" y="144.5889">id_ : CryptoResourceId</text><rect fill="transparent" height="6" style="stroke:#C82930;stroke-width:1;" width="6" x="892.5" y="154.5391"/><text fill="#000000" font-family="sans-serif" font-size="14" lengthAdjust="spacing" textLength="93.0781" x="904.5" y="160.8857">active_ : bool</text><line style="stroke:#181818;stroke-width:1;" x1="885.5" x2="1334.1279" y1="168.1875" y2="168.1875"/><ellipse cx="895.5" cy="181.8359" fill="#84BE84" rx="3" ry="3" style="stroke:#038048;stroke-width:1;"/><text fill="#000000" font-family="sans-serif" font-size="14" lengthAdjust="spacing" textLength="215.7559" x="904.5" y="185.1826">Id() : const CryptoResourceId&amp;</text><ellipse cx="895.5" cy="198.1328" fill="#84BE84" rx="3" ry="3" style="stroke:#038048;stroke-width:1;"/><text fill="#000000" font-family="sans-serif" font-size="14" lengthAdjust="spacing" textLength="327.3184" x="904.5" y="201.4795">{implicit} operator const CryptoResourceId&amp;()</text><ellipse cx="895.5" cy="214.4297" fill="#84BE84" rx="3" ry="3" style="stroke:#038048;stroke-width:1;"/><text fill="#000000" font-family="sans-serif" font-size="14" lengthAdjust="spacing" textLength="109.4229" x="904.5" y="217.7764">IsActive() : bool</text><ellipse cx="895.5" cy="230.7266" fill="#84BE84" rx="3" ry="3" style="stroke:#038048;stroke-width:1;"/><text fill="#000000" font-family="sans-serif" font-size="14" lengthAdjust="spacing" textLength="253.4287" x="904.5" y="234.0732">Release() : Result&lt;std::monostate&gt;</text></g><!--class CryptoResourceGuardFactory--><g id="elem_CryptoResourceGuardFactory"><rect codeLine="21" fill="#F1F1F1" height="72.5625" id="CryptoResourceGuardFactory" rx="2.5" ry="2.5" style="stroke:#181818;stroke-width:0.5;" width="430.9199" x="418.5" y="123.7969"/><ellipse cx="526.0771" cy="143.9297" fill="#ADD1B2" rx="11" ry="11" style="stroke:#181818;stroke-width:1;"/><path d="M529.0459,149.5703 Q528.4678,149.8672 527.8271,150.0078 Q527.1865,150.1641 526.4834,150.1641 Q523.9834,150.1641 522.6553,148.5234 Q521.3428,146.8672 521.3428,143.7422 Q521.3428,140.6172 522.6553,138.9609 Q523.9834,137.3047 526.4834,137.3047 Q527.1865,137.3047 527.8271,137.4609 Q528.4834,137.6172 529.0459,137.9141 L529.0459,140.6328 Q528.4209,140.0547 527.8271,139.7891 Q527.2334,139.5078 526.6084,139.5078 Q525.2646,139.5078 524.5771,140.5859 Q523.8896,141.6484 523.8896,143.7422 Q523.8896,145.8359 524.5771,146.9141 Q525.2646,147.9766 526.6084,147.9766 Q527.2334,147.9766 527.8271,147.7109 Q528.4209,147.4297 529.0459,146.8516 L529.0459,149.5703 Z " fill="#000000"/><text fill="#000000" font-family="sans-serif" font-size="12" font-style="italic" lengthAdjust="spacing" textLength="61.0664" x="619.6768" y="139.9355">&#171;internal&#187;</text><text fill="#000000" font-family="sans-serif" font-size="14" lengthAdjust="spacing" textLength="207.2656" x="546.5771" y="155.7607">CryptoResourceGuardFactory</text><line style="stroke:#181818;stroke-width:0.5;" x1="419.5" x2="848.4199" y1="164.0625" y2="164.0625"/><line style="stroke:#181818;stroke-width:0.5;" x1="419.5" x2="848.4199" y1="172.0625" y2="172.0625"/><ellipse cx="429.5" cy="185.7109" fill="#84BE84" rx="3" ry="3" style="stroke:#038048;stroke-width:1;"/><text fill="#000000" font-family="sans-serif" font-size="14" lengthAdjust="spacing" text-decoration="underline" textLength="404.9199" x="438.5" y="189.0576">Make(handle, id) : CryptoResourceGuard  // IPC layer only</text></g><!--class CryptoResourceId--><g id="elem_CryptoResourceId"><rect codeLine="25" fill="#F1F1F1" height="154.0469" id="CryptoResourceId" rx="2.5" ry="2.5" style="stroke:#181818;stroke-width:0.5;" width="266.3516" x="977" y="318.2969"/><ellipse cx="1043.4692" cy="338.4297" fill="#ADD1B2" rx="11" ry="11" style="stroke:#181818;stroke-width:1;"/><path d="M1046.438,344.0703 Q1045.8599,344.3672 1045.2192,344.5078 Q1044.5786,344.6641 1043.8755,344.6641 Q1041.3755,344.6641 1040.0474,343.0234 Q1038.7349,341.3672 1038.7349,338.2422 Q1038.7349,335.1172 1040.0474,333.4609 Q1041.3755,331.8047 1043.8755,331.8047 Q1044.5786,331.8047 1045.2192,331.9609 Q1045.8755,332.1172 1046.438,332.4141 L1046.438,335.1328 Q1045.813,334.5547 1045.2192,334.2891 Q1044.6255,334.0078 1044.0005,334.0078 Q1042.6567,334.0078 1041.9692,335.0859 Q1041.2817,336.1484 1041.2817,338.2422 Q1041.2817,340.3359 1041.9692,341.4141 Q1042.6567,342.4766 1044.0005,342.4766 Q1044.6255,342.4766 1045.2192,342.2109 Q1045.813,341.9297 1046.438,341.3516 L1046.438,344.0703 Z " fill="#000000"/><text fill="#000000" font-family="sans-serif" font-size="12" font-style="italic" lengthAdjust="spacing" textLength="49.6113" x="1101.6201" y="334.4355">&#171;struct&#187;</text><text fill="#000000" font-family="sans-serif" font-size="14" lengthAdjust="spacing" textLength="124.9131" x="1063.9692" y="350.2607">CryptoResourceId</text><line style="stroke:#181818;stroke-width:0.5;" x1="978" x2="1242.3516" y1="358.5625" y2="358.5625"/><ellipse cx="988" cy="372.2109" fill="transparent" rx="3" ry="3" style="stroke:#038048;stroke-width:1;"/><text fill="#000000" font-family="sans-serif" font-size="14" lengthAdjust="spacing" textLength="83.8223" x="997" y="375.5576">id : uint64_t</text><ellipse cx="988" cy="388.5078" fill="transparent" rx="3" ry="3" style="stroke:#038048;stroke-width:1;"/><text fill="#000000" font-family="sans-serif" font-size="14" lengthAdjust="spacing" textLength="144.3682" x="997" y="391.8545">type : ResourceType</text><ellipse cx="988" cy="404.8047" fill="transparent" rx="3" ry="3" style="stroke:#038048;stroke-width:1;"/><text fill="#000000" font-family="sans-serif" font-size="14" lengthAdjust="spacing" textLength="240.3516" x="997" y="408.1514">persistence : ResourcePersistence</text><ellipse cx="988" cy="421.1016" fill="transparent" rx="3" ry="3" style="stroke:#038048;stroke-width:1;"/><text fill="#000000" font-family="sans-serif" font-size="14" lengthAdjust="spacing" textLength="191.4746" x="997" y="424.4482">primary_provider : uint16_t</text><line style="stroke:#181818;stroke-width:1;" x1="978" x2="1242.3516" y1="431.75" y2="431.75"/><ellipse cx="988" cy="445.3984" fill="#84BE84" rx="3" ry="3" style="stroke:#038048;stroke-width:1;"/><text fill="#000000" font-family="sans-serif" font-size="14" lengthAdjust="spacing" textLength="175.417" x="997" y="448.7451">operator==(other) : bool</text><ellipse cx="988" cy="461.6953" fill="#84BE84" rx="3" ry="3" style="stroke:#038048;stroke-width:1;"/><text fill="#000000" font-family="sans-serif" font-size="14" lengthAdjust="spacing" textLength="169.2988" x="997" y="465.042">operator!=(other) : bool</text></g><g id="elem_N_Lifetime"><path d="M23,117.2969 L23,202.9609 L383.3901,202.9609 L383.3901,127.2969 L373.3901,117.2969 L23,117.2969 " fill="#FEFFDD" style="stroke:#181818;stroke-width:0.5;"/><path d="M373.3901,117.2969 L373.3901,127.2969 L383.3901,127.2969 L373.3901,117.2969 " fill="#FEFFDD" style="stroke:#181818;stroke-width:1;"/><text fill="#000000" font-family="sans-serif" font-size="13" lengthAdjust="spacing" textLength="307.9248" x="29" y="134.3638">Key lifetime managed by daemon ref-counting.</text><text fill="#000000" font-family="sans-serif" font-size="13" lengthAdjust="spacing" textLength="302.4087" x="29" y="149.4966">Guard holds a type-erased IPC release handle.</text><text fill="#000000" font-family="sans-serif" font-size="13" lengthAdjust="spacing" textLength="262.9136" x="29" y="164.6294">CryptoResourceGuardFactory is the sole</text><text fill="#000000" font-family="sans-serif" font-size="13" lengthAdjust="spacing" textLength="339.3901" x="29" y="179.7622">construction path &#8212; only IPC-layer implementations</text><text fill="#000000" font-family="sans-serif" font-size="13" lengthAdjust="spacing" textLength="122.1289" x="29" y="194.895">can create guards.</text></g><!--link CryptoResourceGuard to CryptoResourceId--><g id="link_CryptoResourceGuard_CryptoResourceId"><path codeLine="43" d="M1110,241.4869 C1110,266.3569 1110,287.6969 1110,312.2869 " fill="transparent" id="CryptoResourceGuard-to-CryptoResourceId" style="stroke:#181818;stroke-width:1;"/><polygon fill="#181818" points="1110,318.2869,1114,309.2869,1110,313.2869,1106,309.2869,1110,318.2869" style="stroke:#181818;stroke-width:1;"/><text fill="#000000" font-family="sans-serif" font-size="13" lengthAdjust="spacing" textLength="44.8271" x="1111" y="284.3638">guards</text></g><!--SRC=[fLHDQnin4BtlhvZcqDeasr0eEHZR408ffX-O9lT5aIQsi5PQf5d34Wpz4Vs5_IKTQTVPTUqcX-XaIs_cFRqtMj9a4EwaymWtlgd8mVLo0Nz-_OQV65pj9S9tOSKAIxIKPM6ZRIMyAA4ISiFRTzHm0u-IX5qPpB8FC7l3ul9Jl6ziscc5inEzp-0f0rxIY10w3_QmBxNmgZkFA-UB6XG1YxMmoc014mXhuL4L5Vdfrcar1xYy16q9lHNc0gYfC4VFDMhGHgjOUaYs60A49BrD_H-SC_r1dZ__FeU56eqP8PqDTDJi_G3ufClAQAbf1wvYCUJy_wf6uo51k4uw4is1a7EEAJcHZhY-DZGDf2QJqbaNI13E4tYNlUpkBT_K-GQcqxrdy_d0STOUcscvuyWsE6fzls03nqS6jcb5-nVB6p2YGG_EckOr7Gl5x85yBUaVRgsOf6PXLvyB6kp7KDjhfmRt_7TmoWu77GYj78AM_UuGwtKfV5DKtcsrOi4jtwUh0TzXwFi0PxEHepNw4z7i8UzEGJeZh2C44U17yKq_8kcoL_KL6p3T9fJfeIXuQ409v73v2JpcqjMMj5rzV2vgpLyxemA8uTIdCBfd0sryVTKB0w43i7O8plJAqip6d3Jhg0IjquSgPXnPyZRoEElfPOi82tsni20zycJ2AXA5LWPQbSneRJarKNa-FvwOITSassL_0G00]--></g></svg>